BenchTwelve-Black.ufo
<glyph name="exclam" format="1">
  <advance width="787"/>
  <unicode hex="0021"/>
  <outline>
    <contour>
      <point x="401" y="515" type="curve" smooth="yes"/>
      <point x="538" y="515" type="line" smooth="yes"/>
      <point x="578" y="515"/>
      <point x="605" y="549"/>
      <point x="616" y="591" type="curve" smooth="yes"/>
      <point x="854" y="1442" type="line"/>
      <point x="861" y="1485"/>
      <point x="836" y="1521"/>
      <point x="796" y="1521" type="curve" smooth="yes"/>
      <point x="426" y="1521" type="line" smooth="yes"/>
      <point x="386" y="1521"/>
      <point x="350" y="1489"/>
      <point x="344" y="1446" type="curve"/>
      <point x="344" y="591" type="line" smooth="yes"/>
      <point x="345" y="549"/>
      <point x="361" y="515"/>
    </contour>
    <contour>
      <point x="206" y="0" type="curve" smooth="yes"/>
      <point x="579" y="0" type="line" smooth="yes"/>
      <point x="619" y="0"/>
      <point x="655" y="33"/>
      <point x="661" y="76" type="curve" smooth="yes"/>
      <point x="690" y="287" type="line" smooth="yes"/>
      <point x="696" y="330"/>
      <point x="670" y="363"/>
      <point x="630" y="363" type="curve" smooth="yes"/>
      <point x="257" y="363" type="line" smooth="yes"/>
      <point x="217" y="363"/>
      <point x="182" y="330"/>
      <point x="176" y="287" type="curve" smooth="yes"/>
      <point x="146" y="76" type="line" smooth="yes"/>
      <point x="140" y="33"/>
      <point x="166" y="0"/>
    </contour>
  </outline>
</glyph>
<glyph name="numbersign" format="1">
  <advance width="1690"/>
  <unicode hex="0023"/>
  <outline>
    <contour>
      <point x="722" y="580" type="line"/>
      <point x="799" y="793" type="line"/>
      <point x="1147" y="793" type="line"/>
      <point x="1070" y="580" type="line"/>
    </contour>
    <contour>
      <point x="210" y="-205" type="curve" smooth="yes"/>
      <point x="403" y="-205" type="line" smooth="yes"/>
      <point x="423" y="-205"/>
      <point x="444" y="-191"/>
      <point x="454" y="-170" type="curve"/>
      <point x="647" y="369" type="line"/>
      <point x="995" y="369" type="line"/>
      <point x="802" y="-170" type="line"/>
      <point x="794" y="-187"/>
      <point x="802" y="-205"/>
      <point x="819" y="-205" type="curve" smooth="yes"/>
      <point x="1012" y="-205" type="line" smooth="yes"/>
      <point x="1032" y="-205"/>
      <point x="1053" y="-191"/>
      <point x="1063" y="-170" type="curve"/>
      <point x="1256" y="369" type="line"/>
      <point x="1483" y="369" type="line" smooth="yes"/>
      <point x="1523" y="369"/>
      <point x="1547" y="383"/>
      <point x="1553" y="426" type="curve" smooth="yes"/>
      <point x="1567" y="523" type="line" smooth="yes"/>
      <point x="1573" y="566"/>
      <point x="1553" y="580"/>
      <point x="1513" y="580" type="curve" smooth="yes"/>
      <point x="1331" y="580" type="line"/>
      <point x="1408" y="793" type="line"/>
      <point x="1612" y="793" type="line" smooth="yes"/>
      <point x="1652" y="793"/>
      <point x="1677" y="807"/>
      <point x="1683" y="850" type="curve" smooth="yes"/>
      <point x="1697" y="949" type="line" smooth="yes"/>
      <point x="1703" y="992"/>
      <point x="1682" y="1006"/>
      <point x="1642" y="1006" type="curve" smooth="yes"/>
      <point x="1484" y="1006" type="line"/>
      <point x="1702" y="1612" type="line"/>
      <point x="1710" y="1629"/>
      <point x="1701" y="1647"/>
      <point x="1684" y="1647" type="curve" smooth="yes"/>
      <point x="1492" y="1647" type="line" smooth="yes"/>
      <point x="1472" y="1647"/>
      <point x="1450" y="1633"/>
      <point x="1440" y="1612" type="curve"/>
      <point x="1223" y="1006" type="line"/>
      <point x="875" y="1006" type="line"/>
      <point x="1092" y="1612" type="line"/>
      <point x="1100" y="1629"/>
      <point x="1092" y="1647"/>
      <point x="1075" y="1647" type="curve" smooth="yes"/>
      <point x="883" y="1647" type="line" smooth="yes"/>
      <point x="863" y="1647"/>
      <point x="841" y="1633"/>
      <point x="831" y="1612" type="curve"/>
      <point x="614" y="1006" type="line"/>
      <point x="399" y="1006" type="line" smooth="yes"/>
      <point x="359" y="1006"/>
      <point x="335" y="992"/>
      <point x="329" y="949" type="curve" smooth="yes"/>
      <point x="315" y="850" type="line" smooth="yes"/>
      <point x="309" y="807"/>
      <point x="329" y="793"/>
      <point x="369" y="793" type="curve" smooth="yes"/>
      <point x="537" y="793" type="line"/>
      <point x="461" y="580" type="line"/>
      <point x="269" y="580" type="line" smooth="yes"/>
      <point x="229" y="580"/>
      <point x="205" y="566"/>
      <point x="199" y="523" type="curve" smooth="yes"/>
      <point x="185" y="426" type="line" smooth="yes"/>
      <point x="179" y="383"/>
      <point x="200" y="369"/>
      <point x="240" y="369" type="curve" smooth="yes"/>
      <point x="386" y="369" type="line"/>
      <point x="193" y="-170" type="line"/>
      <point x="185" y="-187"/>
      <point x="193" y="-205"/>
    </contour>
  </outline>
</glyph>
<glyph name="percent" format="1">
  <advance width="2463"/>
  <unicode hex="0025"/>
  <outline>
    <contour>
      <point x="1921" y="-40" type="curve" smooth="yes"/>
      <point x="2197" y="-40"/>
      <point x="2371" y="194"/>
      <point x="2404" y="431" type="curve" smooth="yes"/>
      <point x="2437" y="667"/>
      <point x="2332" y="897"/>
      <point x="2052" y="897" type="curve" smooth="yes"/>
      <point x="1772" y="897"/>
      <point x="1602" y="667"/>
      <point x="1569" y="431" type="curve" smooth="yes"/>
      <point x="1536" y="194"/>
      <point x="1645" y="-40"/>
    </contour>
    <contour>
      <point x="1945" y="134" type="curve" smooth="yes"/>
      <point x="1832" y="134"/>
      <point x="1790" y="241"/>
      <point x="1816" y="425" type="curve" smooth="yes"/>
      <point x="1842" y="613"/>
      <point x="1918" y="723"/>
      <point x="2028" y="723" type="curve" smooth="yes"/>
      <point x="2140" y="723"/>
      <point x="2182" y="613"/>
      <point x="2156" y="425" type="curve" smooth="yes"/>
      <point x="2130" y="241"/>
      <point x="2058" y="134"/>
    </contour>
    <contour>
      <point x="614" y="560" type="curve" smooth="yes"/>
      <point x="890" y="560"/>
      <point x="1063" y="793"/>
      <point x="1096" y="1031" type="curve" smooth="yes"/>
      <point x="1129" y="1267"/>
      <point x="1025" y="1497"/>
      <point x="745" y="1497" type="curve" smooth="yes"/>
      <point x="465" y="1497"/>
      <point x="295" y="1267"/>
      <point x="262" y="1031" type="curve" smooth="yes"/>
      <point x="229" y="793"/>
      <point x="338" y="560"/>
    </contour>
    <contour>
      <point x="638" y="734" type="curve" smooth="yes"/>
      <point x="525" y="734"/>
      <point x="483" y="840"/>
      <point x="509" y="1024" type="curve" smooth="yes"/>
      <point x="535" y="1212"/>
      <point x="610" y="1323"/>
      <point x="721" y="1323" type="curve" smooth="yes"/>
      <point x="832" y="1323"/>
      <point x="875" y="1212"/>
      <point x="849" y="1024" type="curve" smooth="yes"/>
      <point x="823" y="840"/>
      <point x="751" y="734"/>
    </contour>
    <contour>
      <point x="811" y="-82" type="curve" smooth="yes"/>
      <point x="947" y="-82" type="line" smooth="yes"/>
      <point x="990" y="-82"/>
      <point x="1033" y="-54"/>
      <point x="1057" y="-12" type="curve" smooth="yes"/>
      <point x="1873" y="1466" type="line" smooth="yes"/>
      <point x="1877" y="1473"/>
      <point x="1879" y="1480"/>
      <point x="1880" y="1487" type="curve" smooth="yes"/>
      <point x="1884" y="1513"/>
      <point x="1867" y="1536"/>
      <point x="1840" y="1536" type="curve" smooth="yes"/>
      <point x="1705" y="1536" type="line" smooth="yes"/>
      <point x="1662" y="1536"/>
      <point x="1618" y="1508"/>
      <point x="1595" y="1466" type="curve" smooth="yes"/>
      <point x="778" y="-12" type="line" smooth="yes"/>
      <point x="774" y="-19"/>
      <point x="772" y="-26"/>
      <point x="771" y="-33" type="curve" smooth="yes"/>
      <point x="767" y="-59"/>
      <point x="784" y="-82"/>
    </contour>
  </outline>
</glyph>
<glyph name="ampersand" format="1">
  <advance width="2930"/>
  <unicode hex="0026"/>
  <outline>
    <contour>
      <point x="1120" y="269" type="curve" smooth="yes"/>
      <point x="1002" y="269"/>
      <point x="801" y="278"/>
      <point x="822" y="438" type="curve" smooth="yes"/>
      <point x="822" y="442"/>
      <point x="823" y="446"/>
      <point x="824" y="450" type="curve" smooth="yes"/>
      <point x="836" y="539"/>
      <point x="881" y="611"/>
      <point x="1086" y="612" type="curve" smooth="yes"/>
      <point x="1579" y="612" type="line" smooth="yes"/>
      <point x="1803" y="612" type="line" smooth="yes"/>
      <point x="1822" y="612"/>
      <point x="1834" y="597"/>
      <point x="1831" y="577" type="curve" smooth="yes"/>
      <point x="1817" y="475" type="line" smooth="yes"/>
      <point x="1811" y="434"/>
      <point x="1810" y="396"/>
      <point x="1811" y="360" type="curve"/>
      <point x="1714" y="332"/>
      <point x="1478" y="269"/>
    </contour>
    <contour>
      <point x="2410" y="-41" type="curve" smooth="yes"/>
      <point x="2530" y="-41"/>
      <point x="2645" y="-25"/>
      <point x="2740" y="-2" type="curve" smooth="yes"/>
      <point x="2780" y="8"/>
      <point x="2814" y="46"/>
      <point x="2818" y="88" type="curve"/>
      <point x="2837" y="232" type="line"/>
      <point x="2840" y="266"/>
      <point x="2824" y="290"/>
      <point x="2794" y="290" type="curve" smooth="yes"/>
      <point x="2788" y="290"/>
      <point x="2782" y="289"/>
      <point x="2776" y="287" type="curve" smooth="yes"/>
      <point x="2709" y="269"/>
      <point x="2626" y="254"/>
      <point x="2550" y="254" type="curve" smooth="yes"/>
      <point x="2424" y="254"/>
      <point x="2326" y="295"/>
      <point x="2345" y="433" type="curve" smooth="yes"/>
      <point x="2365" y="577" type="line" smooth="yes"/>
      <point x="2368" y="597"/>
      <point x="2383" y="612"/>
      <point x="2402" y="612" type="curve" smooth="yes"/>
      <point x="2748" y="612" type="line" smooth="yes"/>
      <point x="2788" y="612"/>
      <point x="2824" y="645"/>
      <point x="2830" y="688" type="curve" smooth="yes"/>
      <point x="2846" y="801" type="line" smooth="yes"/>
      <point x="2852" y="844"/>
      <point x="2826" y="876"/>
      <point x="2786" y="876" type="curve" smooth="yes"/>
      <point x="2440" y="876" type="line" smooth="yes"/>
      <point x="2421" y="876"/>
      <point x="2409" y="892"/>
      <point x="2412" y="912" type="curve" smooth="yes"/>
      <point x="2473" y="1348" type="line" smooth="yes"/>
      <point x="2479" y="1391"/>
      <point x="2453" y="1423"/>
      <point x="2413" y="1423" type="curve" smooth="yes"/>
      <point x="2047" y="1423" type="line" smooth="yes"/>
      <point x="2007" y="1423"/>
      <point x="1974" y="1391"/>
      <point x="1966" y="1348" type="curve" smooth="yes"/>
      <point x="1878" y="912" type="line"/>
      <point x="1875" y="892"/>
      <point x="1859" y="876"/>
      <point x="1840" y="876" type="curve" smooth="yes"/>
      <point x="1124" y="876" type="line" smooth="yes"/>
      <point x="916" y="876"/>
      <point x="889" y="937"/>
      <point x="900" y="1019" type="curve" smooth="yes"/>
      <point x="900" y="1021"/>
      <point x="901" y="1023"/>
      <point x="901" y="1025" type="curve" smooth="yes"/>
      <point x="921" y="1151"/>
      <point x="1103" y="1165"/>
      <point x="1241" y="1165" type="curve" smooth="yes"/>
      <point x="1436" y="1165"/>
      <point x="1644" y="1129"/>
      <point x="1667" y="1126" type="curve" smooth="yes"/>
      <point x="1675" y="1124"/>
      <point x="1681" y="1123"/>
      <point x="1688" y="1123" type="curve" smooth="yes"/>
      <point x="1712" y="1123"/>
      <point x="1727" y="1136"/>
      <point x="1735" y="1167" type="curve" smooth="yes"/>
      <point x="1781" y="1352" type="line" smooth="yes"/>
      <point x="1783" y="1357"/>
      <point x="1783" y="1361"/>
      <point x="1784" y="1365" type="curve" smooth="yes"/>
      <point x="1788" y="1395"/>
      <point x="1776" y="1412"/>
      <point x="1743" y="1422" type="curve"/>
      <point x="1679" y="1439"/>
      <point x="1431" y="1475"/>
      <point x="1284" y="1475" type="curve" smooth="yes"/>
      <point x="721" y="1475"/>
      <point x="326" y="1367"/>
      <point x="279" y="1036" type="curve" smooth="yes"/>
      <point x="254" y="858"/>
      <point x="347" y="758"/>
      <point x="531" y="737" type="curve"/>
      <point x="335" y="712"/>
      <point x="222" y="602"/>
      <point x="197" y="424" type="curve" smooth="yes"/>
      <point x="148" y="76"/>
      <point x="510" y="-40"/>
      <point x="1073" y="-40" type="curve" smooth="yes"/>
      <point x="1484" y="-40"/>
      <point x="1809" y="59"/>
      <point x="1931" y="101" type="curve"/>
      <point x="2045" y="-2"/>
      <point x="2227" y="-41"/>
    </contour>
  </outline>
</glyph>
<glyph name="parenright" format="1">
  <advance width="930"/>
  <unicode hex="0029"/>
  <outline>
    <contour>
      <point x="167" y="-143" type="line" smooth="yes"/>
      <point x="590" y="-97"/>
      <point x="844" y="297"/>
      <point x="900" y="698" type="curve" smooth="yes"/>
      <point x="956" y="1098"/>
      <point x="814" y="1493"/>
      <point x="404" y="1540" type="curve" smooth="yes"/>
      <point x="398" y="1540" type="line" smooth="yes"/>
      <point x="364" y="1540"/>
      <point x="327" y="1506"/>
      <point x="322" y="1470" type="curve" smooth="yes"/>
      <point x="310" y="1384" type="line" smooth="yes"/>
      <point x="300" y="1315"/>
      <point x="314" y="1297"/>
      <point x="367" y="1266" type="curve" smooth="yes"/>
      <point x="480" y="1200"/>
      <point x="520" y="974"/>
      <point x="481" y="698" type="curve" smooth="yes"/>
      <point x="442" y="423"/>
      <point x="341" y="198"/>
      <point x="208" y="132" type="curve" smooth="yes"/>
      <point x="146" y="102"/>
      <point x="128" y="84"/>
      <point x="118" y="15" type="curve" smooth="yes"/>
      <point x="105" y="-73" type="line" smooth="yes"/>
      <point x="100" y="-109"/>
      <point x="127" y="-143"/>
      <point x="161" y="-143" type="curve" smooth="yes"/>
    </contour>
  </outline>
</glyph>
<glyph name="asterisk" format="1">
  <advance width="1222"/>
  <unicode hex="002A"/>
  <outline>
    <contour>
      <point x="429" y="407" type="curve" smooth="yes"/>
      <point x="467" y="407"/>
      <point x="503" y="431"/>
      <point x="525" y="466" type="curve" smooth="yes"/>
      <point x="719" y="788" type="line"/>
      <point x="822" y="466" type="line" smooth="yes"/>
      <point x="834" y="431"/>
      <point x="865" y="407"/>
      <point x="902" y="407" type="curve" smooth="yes"/>
      <point x="956" y="407"/>
      <point x="1014" y="456"/>
      <point x="1022" y="516" type="curve" smooth="yes"/>
      <point x="1034" y="600"/>
      <point x="874" y="787"/>
      <point x="821" y="858" type="curve"/>
      <point x="1161" y="936" type="line" smooth="yes"/>
      <point x="1206" y="946"/>
      <point x="1247" y="988"/>
      <point x="1254" y="1038" type="curve" smooth="yes"/>
      <point x="1262" y="1095"/>
      <point x="1229" y="1151"/>
      <point x="1171" y="1151" type="curve" smooth="yes"/>
      <point x="1113" y="1151"/>
      <point x="889" y="1022"/>
      <point x="801" y="975" type="curve"/>
      <point x="834" y="1096"/>
      <point x="880" y="1229"/>
      <point x="897" y="1348" type="curve" smooth="yes"/>
      <point x="905" y="1407"/>
      <point x="866" y="1451"/>
      <point x="813" y="1451" type="curve" smooth="yes"/>
      <point x="764" y="1451"/>
      <point x="706" y="1414"/>
      <point x="697" y="1353" type="curve" smooth="yes"/>
      <point x="680" y="1232"/>
      <point x="689" y="1093"/>
      <point x="688" y="975" type="curve"/>
      <point x="611" y="1024"/>
      <point x="428" y="1151"/>
      <point x="369" y="1151" type="curve" smooth="yes"/>
      <point x="311" y="1151"/>
      <point x="262" y="1095"/>
      <point x="254" y="1038" type="curve" smooth="yes"/>
      <point x="247" y="988"/>
      <point x="276" y="946"/>
      <point x="319" y="936" type="curve" smooth="yes"/>
      <point x="636" y="858" type="line"/>
      <point x="559" y="784"/>
      <point x="352" y="600"/>
      <point x="340" y="516" type="curve" smooth="yes"/>
      <point x="332" y="456"/>
      <point x="374" y="407"/>
    </contour>
  </outline>
</glyph>
<glyph name="comma" format="1">
  <advance width="597"/>
  <unicode hex="002C"/>
  <outline>
    <contour>
      <point x="142" y="-336" type="curve" smooth="yes"/>
      <point x="274" y="-313"/>
      <point x="451" y="-202"/>
      <point x="484" y="36" type="curve" smooth="yes"/>
      <point x="517" y="268" type="line" smooth="yes"/>
      <point x="523" y="311"/>
      <point x="496" y="345"/>
      <point x="456" y="345" type="curve" smooth="yes"/>
      <point x="223" y="345" type="line" smooth="yes"/>
      <point x="183" y="345"/>
      <point x="163" y="313"/>
      <point x="157" y="270" type="curve" smooth="yes"/>
      <point x="129" y="67" type="line" smooth="yes"/>
      <point x="124" y="29"/>
      <point x="140" y="0"/>
      <point x="175" y="0" type="curve" smooth="yes"/>
      <point x="248" y="0" type="line" smooth="yes"/>
      <point x="262" y="0"/>
      <point x="262" y="-11"/>
      <point x="260" y="-27" type="curve" smooth="yes"/>
      <point x="257" y="-51"/>
      <point x="230" y="-128"/>
      <point x="160" y="-171" type="curve" smooth="yes"/>
      <point x="116" y="-198"/>
      <point x="93" y="-192"/>
      <point x="85" y="-246" type="curve" smooth="yes"/>
      <point x="78" y="-291" type="line" smooth="yes"/>
      <point x="74" y="-322"/>
      <point x="99" y="-337"/>
      <point x="127" y="-337" type="curve" smooth="yes"/>
      <point x="132" y="-337"/>
      <point x="137" y="-337"/>
    </contour>
  </outline>
</glyph>
<glyph name="hyphen" format="1">
  <advance width="979"/>
  <unicode hex="002D"/>
  <outline>
    <contour>
      <point x="248" y="422" type="curve" smooth="yes"/>
      <point x="850" y="422" type="line" smooth="yes"/>
      <point x="890" y="422"/>
      <point x="923" y="453"/>
      <point x="929" y="496" type="curve" smooth="yes"/>
      <point x="954" y="674" type="line" smooth="yes"/>
      <point x="960" y="717"/>
      <point x="936" y="748"/>
      <point x="896" y="748" type="curve" smooth="yes"/>
      <point x="294" y="748" type="line" smooth="yes"/>
      <point x="254" y="748"/>
      <point x="220" y="717"/>
      <point x="214" y="674" type="curve" smooth="yes"/>
      <point x="189" y="496" type="line" smooth="yes"/>
      <point x="183" y="453"/>
      <point x="208" y="422"/>
    </contour>
  </outline>
</glyph>
<glyph name="period" format="1">
  <advance width="576"/>
  <unicode hex="002E"/>
  <outline>
    <contour>
      <point x="189" y="0" type="curve" smooth="yes"/>
      <point x="387" y="0" type="line" smooth="yes"/>
      <point x="427" y="0"/>
      <point x="464" y="34"/>
      <point x="470" y="77" type="curve" smooth="yes"/>
      <point x="496" y="265" type="line" smooth="yes"/>
      <point x="502" y="308"/>
      <point x="475" y="342"/>
      <point x="435" y="342" type="curve" smooth="yes"/>
      <point x="237" y="342" type="line" smooth="yes"/>
      <point x="197" y="342"/>
      <point x="161" y="308"/>
      <point x="155" y="265" type="curve" smooth="yes"/>
      <point x="128" y="77" type="line" smooth="yes"/>
      <point x="122" y="34"/>
      <point x="149" y="0"/>
    </contour>
  </outline>
</glyph>
<glyph name="slash" format="1">
  <advance width="1297"/>
  <unicode hex="002F"/>
  <outline>
    <contour>
      <point x="448" y="-219" type="curve"/>
      <point x="466" y="-219"/>
      <point x="515" y="-209"/>
      <point x="523" y="-194" type="curve"/>
      <point x="537" y="-194"/>
      <point x="1163" y="1061"/>
      <point x="1168" y="1072" type="curve" smooth="yes"/>
      <point x="1173" y="1084"/>
      <point x="1412" y="1584"/>
      <point x="1417" y="1617" type="curve" smooth="yes"/>
      <point x="1417" y="1618"/>
      <point x="1416" y="1619"/>
      <point x="1416" y="1619" type="curve"/>
      <point x="1426" y="1637"/>
      <point x="1075" y="1647"/>
      <point x="1061" y="1647" type="curve" smooth="yes"/>
      <point x="1043" y="1647"/>
      <point x="986" y="1637"/>
      <point x="978" y="1623" type="curve"/>
      <point x="974" y="1623"/>
      <point x="346" y="373"/>
      <point x="341" y="364" type="curve" smooth="yes"/>
      <point x="336" y="352"/>
      <point x="89" y="-165"/>
      <point x="84" y="-198" type="curve" smooth="yes"/>
      <point x="84" y="-199"/>
      <point x="85" y="-200"/>
      <point x="85" y="-200" type="curve"/>
      <point x="77" y="-214"/>
      <point x="435" y="-218"/>
    </contour>
  </outline>
</glyph>
<glyph name="zero" format="1">
  <advance width="2152"/>
  <unicode hex="0030"/>
  <outline>
    <contour>
      <point x="1074" y="-41" type="curve" smooth="yes"/>
      <point x="1557" y="-41"/>
      <point x="2038" y="84"/>
      <point x="2128" y="723" type="curve" smooth="yes"/>
      <point x="2211" y="1314"/>
      <point x="1770" y="1475"/>
      <point x="1287" y="1475" type="curve" smooth="yes"/>
      <point x="803" y="1475"/>
      <point x="309" y="1314"/>
      <point x="226" y="723" type="curve" smooth="yes"/>
      <point x="136" y="84"/>
      <point x="590" y="-41"/>
    </contour>
    <contour>
      <point x="1125" y="323" type="curve" smooth="yes"/>
      <point x="916" y="323"/>
      <point x="831" y="415"/>
      <point x="874" y="723" type="curve" smooth="yes"/>
      <point x="916" y="1020"/>
      <point x="1026" y="1117"/>
      <point x="1237" y="1117" type="curve" smooth="yes"/>
      <point x="1447" y="1117"/>
      <point x="1523" y="1020"/>
      <point x="1481" y="723" type="curve" smooth="yes"/>
      <point x="1438" y="415"/>
      <point x="1333" y="323"/>
    </contour>
  </outline>
</glyph>
<glyph name="one" format="1">
  <advance width="1209"/>
  <unicode hex="0031"/>
  <outline>
    <contour>
      <point x="478" y="0" type="curve" smooth="yes"/>
      <point x="994" y="0" type="line" smooth="yes"/>
      <point x="1034" y="0"/>
      <point x="1069" y="33"/>
      <point x="1075" y="76" type="curve" smooth="yes"/>
      <point x="1256" y="1363" type="line" smooth="yes"/>
      <point x="1262" y="1406"/>
      <point x="1236" y="1438"/>
      <point x="1196" y="1438" type="curve"/>
      <point x="367" y="1358" type="line"/>
      <point x="327" y="1358"/>
      <point x="293" y="1326"/>
      <point x="287" y="1283" type="curve" smooth="yes"/>
      <point x="259" y="1083" type="line" smooth="yes"/>
      <point x="253" y="1040"/>
      <point x="278" y="1008"/>
      <point x="318" y="1008" type="curve"/>
      <point x="518" y="1028" type="line"/>
      <point x="537" y="1028"/>
      <point x="550" y="1011"/>
      <point x="547" y="991" type="curve" smooth="yes"/>
      <point x="418" y="76" type="line" smooth="yes"/>
      <point x="412" y="33"/>
      <point x="438" y="0"/>
    </contour>
  </outline>
</glyph>
<glyph name="two" format="1">
  <advance width="2041"/>
  <unicode hex="0032"/>
  <outline>
    <contour>
      <point x="219" y="1" type="curve" smooth="yes"/>
      <point x="1790" y="1" type="line" smooth="yes"/>
      <point x="1829" y="1"/>
      <point x="1846" y="21"/>
      <point x="1853" y="69" type="curve" smooth="yes"/>
      <point x="1877" y="242" type="line" smooth="yes"/>
      <point x="1883" y="288"/>
      <point x="1865" y="306"/>
      <point x="1834" y="306" type="curve" smooth="yes"/>
      <point x="879" y="306" type="line" smooth="yes"/>
      <point x="846" y="306"/>
      <point x="829" y="322"/>
      <point x="833" y="350" type="curve" smooth="yes"/>
      <point x="838" y="387"/>
      <point x="851" y="393"/>
      <point x="868" y="399" type="curve"/>
      <point x="1255" y="598"/>
      <point x="1946" y="439"/>
      <point x="2022" y="978" type="curve" smooth="yes"/>
      <point x="2083" y="1415"/>
      <point x="1697" y="1476"/>
      <point x="1158" y="1476" type="curve"/>
      <point x="916" y="1475"/>
      <point x="554" y="1401"/>
      <point x="409" y="1336" type="curve" smooth="yes"/>
      <point x="381" y="1324"/>
      <point x="369" y="1304"/>
      <point x="364" y="1267" type="curve" smooth="yes"/>
      <point x="363" y="1263"/>
      <point x="374" y="1141"/>
      <point x="398" y="1074" type="curve"/>
      <point x="400" y="1053"/>
      <point x="417" y="1044"/>
      <point x="450" y="1044" type="curve" smooth="yes"/>
      <point x="464" y="1044"/>
      <point x="478" y="1048"/>
      <point x="497" y="1054" type="curve" smooth="yes"/>
      <point x="521" y="1062"/>
      <point x="918" y="1165"/>
      <point x="1216" y="1165" type="curve" smooth="yes"/>
      <point x="1513" y="1165"/>
      <point x="1524" y="1105"/>
      <point x="1514" y="1036" type="curve" smooth="yes"/>
      <point x="1478" y="778"/>
      <point x="380" y="1096"/>
      <point x="164" y="207" type="curve" smooth="yes"/>
      <point x="162" y="196"/>
      <point x="138" y="103"/>
      <point x="137" y="93" type="curve" smooth="yes"/>
      <point x="129" y="37"/>
      <point x="159" y="1"/>
    </contour>
  </outline>
</glyph>
<glyph name="five" format="1">
  <advance width="2075"/>
  <unicode hex="0035"/>
  <outline>
    <contour>
      <point x="968" y="-40" type="curve"/>
      <point x="971" y="-40" type="line" smooth="yes"/>
      <point x="1534" y="-40"/>
      <point x="1961" y="56"/>
      <point x="2016" y="447" type="curve" smooth="yes"/>
      <point x="2055" y="728"/>
      <point x="1892" y="934"/>
      <point x="1283" y="934" type="curve" smooth="yes"/>
      <point x="1117" y="934"/>
      <point x="1000" y="903"/>
      <point x="894" y="863" type="curve"/>
      <point x="919" y="1057" type="line" smooth="yes"/>
      <point x="928" y="1119"/>
      <point x="952" y="1129"/>
      <point x="994" y="1129" type="curve" smooth="yes"/>
      <point x="1902" y="1126" type="line" smooth="yes"/>
      <point x="1926" y="1126"/>
      <point x="1941" y="1139"/>
      <point x="1949" y="1170" type="curve" smooth="yes"/>
      <point x="1953" y="1188"/>
      <point x="1998" y="1360"/>
      <point x="2001" y="1380" type="curve" smooth="yes"/>
      <point x="2005" y="1410"/>
      <point x="1995" y="1438"/>
      <point x="1960" y="1438" type="curve" smooth="yes"/>
      <point x="417" y="1438" type="line" smooth="yes"/>
      <point x="353" y="1438"/>
      <point x="327" y="1393"/>
      <point x="316" y="1318" type="curve"/>
      <point x="286" y="680" type="line" smooth="yes"/>
      <point x="284" y="639"/>
      <point x="287" y="598"/>
      <point x="349" y="598" type="curve" smooth="yes"/>
      <point x="772" y="598" type="line" smooth="yes"/>
      <point x="913" y="598"/>
      <point x="913" y="699"/>
      <point x="1144" y="699" type="curve" smooth="yes"/>
      <point x="1377" y="699"/>
      <point x="1413" y="591"/>
      <point x="1398" y="487" type="curve" smooth="yes"/>
      <point x="1372" y="300"/>
      <point x="1169" y="270"/>
      <point x="1012" y="270" type="curve" smooth="yes"/>
      <point x="701" y="270"/>
      <point x="327" y="361"/>
      <point x="292" y="368" type="curve" smooth="yes"/>
      <point x="284" y="370"/>
      <point x="279" y="371"/>
      <point x="272" y="371" type="curve" smooth="yes"/>
      <point x="248" y="371"/>
      <point x="232" y="358"/>
      <point x="224" y="327" type="curve" smooth="yes"/>
      <point x="222" y="317"/>
      <point x="175" y="133"/>
      <point x="174" y="129" type="curve" smooth="yes"/>
      <point x="170" y="99"/>
      <point x="183" y="82"/>
      <point x="216" y="72" type="curve" smooth="yes"/>
      <point x="316" y="39"/>
      <point x="744" y="-39"/>
    </contour>
  </outline>
</glyph>
<glyph name="seven" format="1">
  <advance width="1412"/>
  <unicode hex="0037"/>
  <outline>
    <contour>
      <point x="426" y="0" type="curve" smooth="yes"/>
      <point x="903" y="0" type="line" smooth="yes"/>
      <point x="943" y="0"/>
      <point x="975" y="33"/>
      <point x="983" y="76" type="curve"/>
      <point x="1504" y="1363" type="line"/>
      <point x="1510" y="1406"/>
      <point x="1483" y="1438"/>
      <point x="1443" y="1438" type="curve" smooth="yes"/>
      <point x="369" y="1438" type="line" smooth="yes"/>
      <point x="329" y="1438"/>
      <point x="295" y="1406"/>
      <point x="289" y="1363" type="curve" smooth="yes"/>
      <point x="261" y="1163" type="line" smooth="yes"/>
      <point x="255" y="1120"/>
      <point x="280" y="1087"/>
      <point x="320" y="1087" type="curve" smooth="yes"/>
      <point x="752" y="1087" type="line" smooth="yes"/>
      <point x="771" y="1087"/>
      <point x="784" y="1071"/>
      <point x="780" y="1051" type="curve"/>
      <point x="367" y="76" type="line"/>
      <point x="359" y="33"/>
      <point x="386" y="0"/>
    </contour>
  </outline>
</glyph>
<glyph name="colon" format="1">
  <advance width="617"/>
  <unicode hex="003A"/>
  <outline>
    <contour>
      <point x="303" y="671" type="curve" smooth="yes"/>
      <point x="501" y="671" type="line" smooth="yes"/>
      <point x="541" y="671"/>
      <point x="578" y="705"/>
      <point x="584" y="748" type="curve" smooth="yes"/>
      <point x="610" y="936" type="line" smooth="yes"/>
      <point x="616" y="979"/>
      <point x="589" y="1013"/>
      <point x="549" y="1013" type="curve" smooth="yes"/>
      <point x="351" y="1013" type="line" smooth="yes"/>
      <point x="311" y="1013"/>
      <point x="275" y="979"/>
      <point x="269" y="936" type="curve" smooth="yes"/>
      <point x="243" y="748" type="line" smooth="yes"/>
      <point x="237" y="705"/>
      <point x="263" y="671"/>
    </contour>
    <contour>
      <point x="209" y="0" type="curve" smooth="yes"/>
      <point x="407" y="0" type="line" smooth="yes"/>
      <point x="447" y="0"/>
      <point x="484" y="34"/>
      <point x="490" y="77" type="curve" smooth="yes"/>
      <point x="516" y="265" type="line" smooth="yes"/>
      <point x="522" y="308"/>
      <point x="495" y="342"/>
      <point x="455" y="342" type="curve" smooth="yes"/>
      <point x="257" y="342" type="line" smooth="yes"/>
      <point x="217" y="342"/>
      <point x="181" y="308"/>
      <point x="175" y="265" type="curve" smooth="yes"/>
      <point x="148" y="77" type="line" smooth="yes"/>
      <point x="142" y="34"/>
      <point x="169" y="0"/>
    </contour>
  </outline>
</glyph>
<glyph name="semicolon" format="1">
  <advance width="633"/>
  <unicode hex="003B"/>
  <outline>
    <contour>
      <point x="306" y="671" type="curve" smooth="yes"/>
      <point x="504" y="671" type="line" smooth="yes"/>
      <point x="544" y="671"/>
      <point x="581" y="705"/>
      <point x="587" y="748" type="curve" smooth="yes"/>
      <point x="613" y="936" type="line" smooth="yes"/>
      <point x="619" y="979"/>
      <point x="592" y="1013"/>
      <point x="552" y="1013" type="curve" smooth="yes"/>
      <point x="354" y="1013" type="line" smooth="yes"/>
      <point x="314" y="1013"/>
      <point x="278" y="979"/>
      <point x="272" y="936" type="curve" smooth="yes"/>
      <point x="245" y="748" type="line" smooth="yes"/>
      <point x="239" y="705"/>
      <point x="266" y="671"/>
    </contour>
    <contour>
      <point x="161" y="-336" type="curve" smooth="yes"/>
      <point x="293" y="-313"/>
      <point x="470" y="-202"/>
      <point x="503" y="36" type="curve" smooth="yes"/>
      <point x="536" y="268" type="line" smooth="yes"/>
      <point x="542" y="311"/>
      <point x="515" y="345"/>
      <point x="475" y="345" type="curve" smooth="yes"/>
      <point x="243" y="345" type="line" smooth="yes"/>
      <point x="203" y="345"/>
      <point x="182" y="313"/>
      <point x="176" y="270" type="curve" smooth="yes"/>
      <point x="148" y="67" type="line" smooth="yes"/>
      <point x="143" y="29"/>
      <point x="159" y="0"/>
      <point x="194" y="0" type="curve" smooth="yes"/>
      <point x="266" y="0" type="line" smooth="yes"/>
      <point x="280" y="0"/>
      <point x="280" y="-11"/>
      <point x="278" y="-27" type="curve" smooth="yes"/>
      <point x="275" y="-51"/>
      <point x="249" y="-128"/>
      <point x="179" y="-171" type="curve" smooth="yes"/>
      <point x="135" y="-198"/>
      <point x="112" y="-192"/>
      <point x="104" y="-246" type="curve" smooth="yes"/>
      <point x="97" y="-291" type="line" smooth="yes"/>
      <point x="93" y="-322"/>
      <point x="119" y="-337"/>
      <point x="147" y="-337" type="curve" smooth="yes"/>
      <point x="152" y="-337"/>
      <point x="156" y="-337"/>
    </contour>
  </outline>
</glyph>
<glyph name="question" format="1">
  <advance width="1742"/>
  <unicode hex="003F"/>
  <outline>
    <contour>
      <point x="581" y="0" type="curve" smooth="yes"/>
      <point x="785" y="0" type="line" smooth="yes"/>
      <point x="825" y="0"/>
      <point x="858" y="31"/>
      <point x="864" y="74" type="curve" smooth="yes"/>
      <point x="890" y="260" type="line" smooth="yes"/>
      <point x="896" y="303"/>
      <point x="872" y="334"/>
      <point x="832" y="334" type="curve" smooth="yes"/>
      <point x="628" y="334" type="line" smooth="yes"/>
      <point x="588" y="334"/>
      <point x="555" y="303"/>
      <point x="549" y="260" type="curve" smooth="yes"/>
      <point x="523" y="74" type="line" smooth="yes"/>
      <point x="517" y="31"/>
      <point x="541" y="0"/>
    </contour>
    <contour>
      <point x="702" y="451" type="curve" smooth="yes"/>
      <point x="767" y="491"/>
      <point x="795" y="550"/>
      <point x="974" y="564" type="curve" smooth="yes"/>
      <point x="1331" y="591"/>
      <point x="1706" y="599"/>
      <point x="1762" y="999" type="curve" smooth="yes"/>
      <point x="1811" y="1350"/>
      <point x="1459" y="1475"/>
      <point x="959" y="1475" type="curve" smooth="yes"/>
      <point x="716" y="1475"/>
      <point x="438" y="1383"/>
      <point x="326" y="1342" type="curve" smooth="yes"/>
      <point x="298" y="1331"/>
      <point x="277" y="1305"/>
      <point x="273" y="1277" type="curve" smooth="yes"/>
      <point x="272" y="1268"/>
      <point x="272" y="1259"/>
      <point x="275" y="1250" type="curve" smooth="yes"/>
      <point x="321" y="1079" type="line" smooth="yes"/>
      <point x="330" y="1048"/>
      <point x="353" y="1029"/>
      <point x="383" y="1029" type="curve" smooth="yes"/>
      <point x="391" y="1029"/>
      <point x="400" y="1030"/>
      <point x="409" y="1033" type="curve" smooth="yes"/>
      <point x="601" y="1095"/>
      <point x="799" y="1141"/>
      <point x="1032" y="1141" type="curve" smooth="yes"/>
      <point x="1253" y="1141"/>
      <point x="1304" y="1079"/>
      <point x="1290" y="978" type="curve" smooth="yes"/>
      <point x="1276" y="879"/>
      <point x="1185" y="838"/>
      <point x="1050" y="828" type="curve" smooth="yes"/>
      <point x="828" y="812"/>
      <point x="743" y="771"/>
      <point x="626" y="679" type="curve"/>
      <point x="613" y="670"/>
      <point x="591" y="657"/>
      <point x="587" y="627" type="curve" smooth="yes"/>
      <point x="585" y="616"/>
      <point x="587" y="602"/>
      <point x="592" y="585" type="curve"/>
      <point x="600" y="568"/>
      <point x="627" y="512"/>
      <point x="640" y="489" type="curve"/>
      <point x="651" y="458"/>
      <point x="669" y="446"/>
      <point x="685" y="446" type="curve" smooth="yes"/>
      <point x="691" y="446"/>
      <point x="697" y="448"/>
    </contour>
  </outline>
</glyph>
<glyph name="A" format="1">
  <advance width="2264"/>
  <unicode hex="0041"/>
  <outline>
    <contour>
      <point x="962" y="534" type="line" smooth="yes"/>
      <point x="951" y="534"/>
      <point x="943" y="544"/>
      <point x="945" y="555" type="curve" smooth="yes"/>
      <point x="945" y="558"/>
      <point x="947" y="561"/>
      <point x="948" y="563" type="curve" smooth="yes"/>
      <point x="1212" y="1046" type="line" smooth="yes"/>
      <point x="1215" y="1051"/>
      <point x="1219" y="1054"/>
      <point x="1224" y="1054" type="curve" smooth="yes"/>
      <point x="1228" y="1054"/>
      <point x="1232" y="1052"/>
      <point x="1233" y="1045" type="curve" smooth="yes"/>
      <point x="1352" y="564" type="line" smooth="yes"/>
      <point x="1353" y="562"/>
      <point x="1353" y="558"/>
      <point x="1353" y="555" type="curve" smooth="yes"/>
      <point x="1351" y="544"/>
      <point x="1341" y="534"/>
      <point x="1329" y="534" type="curve" smooth="yes"/>
    </contour>
    <contour>
      <point x="139" y="0" type="curve" smooth="yes"/>
      <point x="583" y="0" type="line" smooth="yes"/>
      <point x="625" y="0"/>
      <point x="659" y="17"/>
      <point x="682" y="59" type="curve" smooth="yes"/>
      <point x="745" y="180" type="line"/>
      <point x="755" y="197"/>
      <point x="757" y="209"/>
      <point x="784" y="209" type="curve" smooth="yes"/>
      <point x="1399" y="209" type="line" smooth="yes"/>
      <point x="1425" y="209"/>
      <point x="1424" y="198"/>
      <point x="1429" y="181" type="curve" smooth="yes"/>
      <point x="1461" y="58" type="line"/>
      <point x="1474" y="16"/>
      <point x="1504" y="0"/>
      <point x="1547" y="0" type="curve" smooth="yes"/>
      <point x="2122" y="0" type="line" smooth="yes"/>
      <point x="2148" y="0"/>
      <point x="2170" y="21"/>
      <point x="2174" y="46" type="curve" smooth="yes"/>
      <point x="2175" y="53"/>
      <point x="2174" y="61"/>
      <point x="2172" y="69" type="curve" smooth="yes"/>
      <point x="1772" y="1369" type="line" smooth="yes"/>
      <point x="1759" y="1410"/>
      <point x="1723" y="1438"/>
      <point x="1681" y="1438" type="curve" smooth="yes"/>
      <point x="1000" y="1438" type="line" smooth="yes"/>
      <point x="958" y="1438"/>
      <point x="914" y="1410"/>
      <point x="889" y="1369" type="curve" smooth="yes"/>
      <point x="111" y="69" type="line" smooth="yes"/>
      <point x="105" y="61"/>
      <point x="103" y="53"/>
      <point x="102" y="46" type="curve" smooth="yes"/>
      <point x="98" y="21"/>
      <point x="113" y="0"/>
    </contour>
    <contour>
      <point x="1132" y="1438" type="move" name="top"/>
    </contour>
    <contour>
      <point x="2038" y="10" type="move" name="ogonek"/>
    </contour>
  </outline>
</glyph>
<glyph name="E" format="1">
  <advance width="2047"/>
  <unicode hex="0045"/>
  <outline>
    <contour>
      <point x="215" y="0" type="curve" smooth="yes"/>
      <point x="1848" y="0" type="line" smooth="yes"/>
      <point x="1888" y="0"/>
      <point x="1923" y="34"/>
      <point x="1929" y="77" type="curve" smooth="yes"/>
      <point x="1955" y="262" type="line" smooth="yes"/>
      <point x="1961" y="305"/>
      <point x="1936" y="339"/>
      <point x="1896" y="339" type="curve" smooth="yes"/>
      <point x="877" y="339" type="line" smooth="yes"/>
      <point x="861" y="339"/>
      <point x="850" y="347"/>
      <point x="852" y="364" type="curve" smooth="yes"/>
      <point x="882" y="572" type="line" smooth="yes"/>
      <point x="884" y="589"/>
      <point x="898" y="598"/>
      <point x="914" y="598" type="curve" smooth="yes"/>
      <point x="1793" y="598" type="line" smooth="yes"/>
      <point x="1833" y="598"/>
      <point x="1868" y="632"/>
      <point x="1874" y="675" type="curve" smooth="yes"/>
      <point x="1889" y="786" type="line" smooth="yes"/>
      <point x="1895" y="829"/>
      <point x="1870" y="863"/>
      <point x="1830" y="863" type="curve" smooth="yes"/>
      <point x="950" y="863" type="line" smooth="yes"/>
      <point x="934" y="863"/>
      <point x="924" y="873"/>
      <point x="926" y="890" type="curve" smooth="yes"/>
      <point x="951" y="1067" type="line" smooth="yes"/>
      <point x="954" y="1087"/>
      <point x="966" y="1094"/>
      <point x="985" y="1094" type="curve" smooth="yes"/>
      <point x="1945" y="1094" type="line" smooth="yes"/>
      <point x="1985" y="1094"/>
      <point x="2019" y="1128"/>
      <point x="2025" y="1171" type="curve" smooth="yes"/>
      <point x="2052" y="1361" type="line" smooth="yes"/>
      <point x="2058" y="1404"/>
      <point x="2033" y="1438"/>
      <point x="1993" y="1438" type="curve" smooth="yes"/>
      <point x="417" y="1438" type="line" smooth="yes"/>
      <point x="377" y="1438"/>
      <point x="342" y="1404"/>
      <point x="336" y="1361" type="curve" smooth="yes"/>
      <point x="155" y="76" type="line" smooth="yes"/>
      <point x="149" y="33"/>
      <point x="175" y="0"/>
    </contour>
    <contour>
      <point x="1024" y="1438" type="move" name="top"/>
    </contour>
    <contour>
      <point x="1024" y="0" type="move" name="bottom"/>
    </contour>
    <contour>
      <point x="1842" y="10" type="move" name="ogonek"/>
    </contour>
  </outline>
</glyph>
<glyph name="F" format="1">
  <advance width="1943"/>
  <unicode hex="0046"/>
  <outline>
    <contour>
      <point x="213" y="0" type="curve" smooth="yes"/>
      <point x="729" y="0" type="line" smooth="yes"/>
      <point x="769" y="0"/>
      <point x="803" y="33"/>
      <point x="809" y="76" type="curve" smooth="yes"/>
      <point x="867" y="490" type="line" smooth="yes"/>
      <point x="869" y="507"/>
      <point x="888" y="524"/>
      <point x="904" y="524" type="curve" smooth="yes"/>
      <point x="1593" y="524" type="line" smooth="yes"/>
      <point x="1633" y="524"/>
      <point x="1668" y="558"/>
      <point x="1674" y="601" type="curve" smooth="yes"/>
      <point x="1693" y="732" type="line" smooth="yes"/>
      <point x="1699" y="775"/>
      <point x="1673" y="809"/>
      <point x="1633" y="809" type="curve" smooth="yes"/>
      <point x="943" y="809" type="line" smooth="yes"/>
      <point x="927" y="809"/>
      <point x="915" y="825"/>
      <point x="917" y="842" type="curve" smooth="yes"/>
      <point x="947" y="1053" type="line" smooth="yes"/>
      <point x="950" y="1073"/>
      <point x="965" y="1089"/>
      <point x="984" y="1089" type="curve" smooth="yes"/>
      <point x="1961" y="1089" type="line" smooth="yes"/>
      <point x="2001" y="1089"/>
      <point x="2036" y="1123"/>
      <point x="2042" y="1166" type="curve" smooth="yes"/>
      <point x="2070" y="1361" type="line" smooth="yes"/>
      <point x="2076" y="1404"/>
      <point x="2050" y="1438"/>
      <point x="2010" y="1438" type="curve" smooth="yes"/>
      <point x="415" y="1438" type="line" smooth="yes"/>
      <point x="375" y="1438"/>
      <point x="340" y="1404"/>
      <point x="334" y="1361" type="curve" smooth="yes"/>
      <point x="154" y="76" type="line" smooth="yes"/>
      <point x="148" y="33"/>
      <point x="173" y="0"/>
    </contour>
  </outline>
</glyph>
<glyph name="L" format="1">
  <advance width="1851"/>
  <unicode hex="004C"/>
  <outline>
    <contour>
      <point x="215" y="0" type="curve" smooth="yes"/>
      <point x="1669" y="0" type="line" smooth="yes"/>
      <point x="1709" y="0"/>
      <point x="1744" y="33"/>
      <point x="1750" y="76" type="curve" smooth="yes"/>
      <point x="1778" y="274" type="line" smooth="yes"/>
      <point x="1784" y="317"/>
      <point x="1758" y="350"/>
      <point x="1718" y="350" type="curve" smooth="yes"/>
      <point x="885" y="350" type="line" smooth="yes"/>
      <point x="866" y="350"/>
      <point x="853" y="367"/>
      <point x="856" y="387" type="curve" smooth="yes"/>
      <point x="993" y="1363" type="line" smooth="yes"/>
      <point x="999" y="1406"/>
      <point x="974" y="1438"/>
      <point x="934" y="1438" type="curve" smooth="yes"/>
      <point x="417" y="1438" type="line" smooth="yes"/>
      <point x="377" y="1438"/>
      <point x="342" y="1406"/>
      <point x="336" y="1363" type="curve" smooth="yes"/>
      <point x="155" y="76" type="line" smooth="yes"/>
      <point x="149" y="33"/>
      <point x="175" y="0"/>
    </contour>
    <contour>
      <point x="926" y="1438" type="move" name="top"/>
    </contour>
    <contour>
      <point x="926" y="0" type="move" name="bottom"/>
    </contour>
  </outline>
</glyph>
<glyph name="N" format="1">
  <advance width="2357"/>
  <unicode hex="004E"/>
  <outline>
    <contour>
      <point x="215" y="0" type="curve" smooth="yes"/>
      <point x="630" y="0" type="line" smooth="yes"/>
      <point x="670" y="0"/>
      <point x="706" y="33"/>
      <point x="712" y="76" type="curve" smooth="yes"/>
      <point x="820" y="845" type="line" smooth="yes"/>
      <point x="821" y="854"/>
      <point x="830" y="861"/>
      <point x="838" y="861" type="curve" smooth="yes"/>
      <point x="841" y="861"/>
      <point x="844" y="860"/>
      <point x="846" y="858" type="curve" smooth="yes"/>
      <point x="1547" y="30" type="line" smooth="yes"/>
      <point x="1572" y="2"/>
      <point x="1614" y="-15"/>
      <point x="1654" y="-15" type="curve" smooth="yes"/>
      <point x="2140" y="-15" type="line" smooth="yes"/>
      <point x="2180" y="-15"/>
      <point x="2215" y="17"/>
      <point x="2221" y="60" type="curve" smooth="yes"/>
      <point x="2403" y="1361" type="line" smooth="yes"/>
      <point x="2409" y="1404"/>
      <point x="2384" y="1436"/>
      <point x="2344" y="1436" type="curve" smooth="yes"/>
      <point x="1938" y="1436" type="line" smooth="yes"/>
      <point x="1898" y="1436"/>
      <point x="1863" y="1404"/>
      <point x="1857" y="1361" type="curve" smooth="yes"/>
      <point x="1772" y="763" type="line" smooth="yes"/>
      <point x="1771" y="754"/>
      <point x="1762" y="747"/>
      <point x="1755" y="747" type="curve" smooth="yes"/>
      <point x="1752" y="747"/>
      <point x="1749" y="748"/>
      <point x="1747" y="750" type="curve" smooth="yes"/>
      <point x="1168" y="1406" type="line" smooth="yes"/>
      <point x="1142" y="1434"/>
      <point x="1108" y="1452"/>
      <point x="1067" y="1452" type="curve" smooth="yes"/>
      <point x="419" y="1452" type="line" smooth="yes"/>
      <point x="379" y="1452"/>
      <point x="344" y="1419"/>
      <point x="338" y="1376" type="curve" smooth="yes"/>
      <point x="155" y="76" type="line" smooth="yes"/>
      <point x="149" y="33"/>
      <point x="175" y="0"/>
    </contour>
    <contour>
      <point x="1179" y="1438" type="move" name="top"/>
    </contour>
    <contour>
      <point x="1179" y="0" type="move" name="bottom"/>
    </contour>
  </outline>
</glyph>
<glyph name="O" format="1">
  <advance width="2474"/>
  <unicode hex="004F"/>
  <outline>
    <contour>
      <point x="1231" y="-41" type="curve" smooth="yes"/>
      <point x="1715" y="-41"/>
      <point x="2363" y="77"/>
      <point x="2454" y="722" type="curve" smooth="yes"/>
      <point x="2538" y="1319"/>
      <point x="1928" y="1475"/>
      <point x="1444" y="1475" type="curve" smooth="yes"/>
      <point x="960" y="1475"/>
      <point x="307" y="1319"/>
      <point x="223" y="722" type="curve" smooth="yes"/>
      <point x="132" y="77"/>
      <point x="747" y="-41"/>
    </contour>
    <contour>
      <point x="1282" y="322" type="curve" smooth="yes"/>
      <point x="1041" y="322"/>
      <point x="890" y="407"/>
      <point x="934" y="722" type="curve" smooth="yes"/>
      <point x="977" y="1025"/>
      <point x="1151" y="1118"/>
      <point x="1394" y="1118" type="curve" smooth="yes"/>
      <point x="1636" y="1118"/>
      <point x="1786" y="1025"/>
      <point x="1743" y="722" type="curve" smooth="yes"/>
      <point x="1699" y="407"/>
      <point x="1522" y="322"/>
    </contour>
    <contour>
      <point x="1237" y="1438" type="move" name="top"/>
    </contour>
  </outline>
</glyph>
<glyph name="P" format="1">
  <advance width="2203"/>
  <unicode hex="0050"/>
  <outline>
    <contour>
      <point x="902" y="740" type="line" smooth="yes"/>
      <point x="886" y="740"/>
      <point x="873" y="758"/>
      <point x="875" y="775" type="curve" smooth="yes"/>
      <point x="914" y="1057" type="line" smooth="yes"/>
      <point x="916" y="1074"/>
      <point x="935" y="1091"/>
      <point x="951" y="1091" type="curve" smooth="yes"/>
      <point x="1345" y="1091" type="line" smooth="yes"/>
      <point x="1472" y="1091"/>
      <point x="1594" y="1075"/>
      <point x="1572" y="919" type="curve" smooth="yes"/>
      <point x="1550" y="763"/>
      <point x="1443" y="740"/>
      <point x="1303" y="740" type="curve" smooth="yes"/>
    </contour>
    <contour>
      <point x="215" y="0" type="curve" smooth="yes"/>
      <point x="695" y="0" type="line" smooth="yes"/>
      <point x="735" y="0"/>
      <point x="771" y="33"/>
      <point x="777" y="76" type="curve" smooth="yes"/>
      <point x="825" y="417" type="line" smooth="yes"/>
      <point x="827" y="434"/>
      <point x="845" y="452"/>
      <point x="861" y="452" type="curve" smooth="yes"/>
      <point x="991" y="453"/>
      <point x="1199" y="452"/>
      <point x="1319" y="453" type="curve" smooth="yes"/>
      <point x="1787" y="458"/>
      <point x="2152" y="506"/>
      <point x="2212" y="935" type="curve" smooth="yes"/>
      <point x="2275" y="1380"/>
      <point x="1940" y="1438"/>
      <point x="1443" y="1438" type="curve" smooth="yes"/>
      <point x="1133" y="1438"/>
      <point x="726" y="1436"/>
      <point x="417" y="1436" type="curve" smooth="yes"/>
      <point x="377" y="1436"/>
      <point x="342" y="1403"/>
      <point x="336" y="1361" type="curve" smooth="yes"/>
      <point x="155" y="76" type="line" smooth="yes"/>
      <point x="149" y="33"/>
      <point x="175" y="0"/>
    </contour>
  </outline>
</glyph>
<glyph name="Q" format="1">
  <advance width="2474"/>
  <unicode hex="0051"/>
  <outline>
    <contour>
      <point x="1283" y="324" type="curve" smooth="yes"/>
      <point x="1042" y="324"/>
      <point x="890" y="409"/>
      <point x="934" y="723" type="curve" smooth="yes"/>
      <point x="977" y="1026"/>
      <point x="1151" y="1120"/>
      <point x="1394" y="1120" type="curve" smooth="yes"/>
      <point x="1636" y="1120"/>
      <point x="1786" y="1026"/>
      <point x="1743" y="723" type="curve" smooth="yes"/>
      <point x="1699" y="409"/>
      <point x="1523" y="324"/>
    </contour>
    <contour>
      <point x="1455" y="-513" type="curve"/>
      <point x="1720" y="-407" type="line"/>
      <point x="1745" y="-393"/>
      <point x="1762" y="-369"/>
      <point x="1766" y="-343" type="curve" smooth="yes"/>
      <point x="1768" y="-330"/>
      <point x="1766" y="-317"/>
      <point x="1761" y="-305" type="curve" smooth="yes"/>
      <point x="1649" y="-4" type="line"/>
      <point x="2027" y="65"/>
      <point x="2388" y="255"/>
      <point x="2454" y="723" type="curve" smooth="yes"/>
      <point x="2538" y="1321"/>
      <point x="1929" y="1477"/>
      <point x="1445" y="1477" type="curve" smooth="yes"/>
      <point x="961" y="1477"/>
      <point x="308" y="1321"/>
      <point x="224" y="723" type="curve" smooth="yes"/>
      <point x="136" y="95"/>
      <point x="719" y="-33"/>
      <point x="1196" y="-39" type="curve"/>
      <point x="1362" y="-485" type="line" smooth="yes"/>
      <point x="1372" y="-510"/>
      <point x="1393" y="-523"/>
      <point x="1417" y="-523" type="curve" smooth="yes"/>
      <point x="1429" y="-523"/>
      <point x="1442" y="-520"/>
    </contour>
  </outline>
</glyph>
<glyph name="R" format="1">
  <advance width="2230"/>
  <unicode hex="0052"/>
  <outline>
    <contour>
      <point x="908" y="789" type="line" smooth="yes"/>
      <point x="892" y="789"/>
      <point x="879" y="805"/>
      <point x="881" y="822" type="curve" smooth="yes"/>
      <point x="914" y="1057" type="line" smooth="yes"/>
      <point x="916" y="1074"/>
      <point x="935" y="1090"/>
      <point x="951" y="1090" type="curve" smooth="yes"/>
      <point x="1314" y="1090" type="line" smooth="yes"/>
      <point x="1449" y="1090"/>
      <point x="1605" y="1083"/>
      <point x="1585" y="938" type="curve" smooth="yes"/>
      <point x="1570" y="832"/>
      <point x="1480" y="789"/>
      <point x="1358" y="789" type="curve" smooth="yes"/>
    </contour>
    <contour>
      <point x="215" y="0" type="curve" smooth="yes"/>
      <point x="695" y="0" type="line" smooth="yes"/>
      <point x="735" y="0"/>
      <point x="771" y="33"/>
      <point x="777" y="76" type="curve" smooth="yes"/>
      <point x="832" y="467" type="line" smooth="yes"/>
      <point x="834" y="484"/>
      <point x="852" y="502"/>
      <point x="868" y="502" type="curve" smooth="yes"/>
      <point x="1239" y="502" type="line" smooth="yes"/>
      <point x="1341" y="502"/>
      <point x="1399" y="502"/>
      <point x="1433" y="411" type="curve"/>
      <point x="1461" y="339"/>
      <point x="1463" y="148"/>
      <point x="1466" y="68" type="curve"/>
      <point x="1470" y="17"/>
      <point x="1487" y="0"/>
      <point x="1543" y="0" type="curve" smooth="yes"/>
      <point x="2041" y="0" type="line" smooth="yes"/>
      <point x="2068" y="0"/>
      <point x="2085" y="18"/>
      <point x="2088" y="43" type="curve" smooth="yes"/>
      <point x="2088" y="45"/>
      <point x="2089" y="48"/>
      <point x="2089" y="50" type="curve" smooth="yes"/>
      <point x="2092" y="69"/>
      <point x="2087" y="159"/>
      <point x="2083" y="209" type="curve" smooth="yes"/>
      <point x="2065" y="455"/>
      <point x="2016" y="603"/>
      <point x="1812" y="643" type="curve" smooth="yes"/>
      <point x="1808" y="643"/>
      <point x="1808" y="645"/>
      <point x="1808" y="647" type="curve" smooth="yes"/>
      <point x="1808" y="649"/>
      <point x="1811" y="651"/>
      <point x="1814" y="652" type="curve" smooth="yes"/>
      <point x="2021" y="681"/>
      <point x="2177" y="787"/>
      <point x="2209" y="1012" type="curve" smooth="yes"/>
      <point x="2268" y="1435"/>
      <point x="1896" y="1438"/>
      <point x="1423" y="1438" type="curve" smooth="yes"/>
      <point x="417" y="1438" type="line" smooth="yes"/>
      <point x="377" y="1438"/>
      <point x="342" y="1406"/>
      <point x="336" y="1363" type="curve" smooth="yes"/>
      <point x="155" y="76" type="line" smooth="yes"/>
      <point x="149" y="33"/>
      <point x="175" y="0"/>
    </contour>
    <contour>
      <point x="1115" y="1438" type="move" name="top"/>
    </contour>
    <contour>
      <point x="1115" y="0" type="move" name="bottom"/>
    </contour>
  </outline>
</glyph>
<glyph name="S" format="1">
  <advance width="2251"/>
  <unicode hex="0053"/>
  <outline>
    <contour>
      <point x="1090" y="-41" type="curve" smooth="yes"/>
      <point x="1853" y="-41"/>
      <point x="2144" y="101"/>
      <point x="2194" y="456" type="curve" smooth="yes"/>
      <point x="2250" y="851"/>
      <point x="1815" y="899"/>
      <point x="1401" y="926" type="curve" smooth="yes"/>
      <point x="1024" y="950"/>
      <point x="931" y="964"/>
      <point x="942" y="1043" type="curve" smooth="yes"/>
      <point x="952" y="1115"/>
      <point x="1097" y="1132"/>
      <point x="1266" y="1132" type="curve" smooth="yes"/>
      <point x="1432" y="1132"/>
      <point x="1726" y="1108"/>
      <point x="1959" y="1024" type="curve" smooth="yes"/>
      <point x="1966" y="1022"/>
      <point x="1974" y="1021"/>
      <point x="1981" y="1021" type="curve" smooth="yes"/>
      <point x="2014" y="1021"/>
      <point x="2043" y="1042"/>
      <point x="2061" y="1070" type="curve" smooth="yes"/>
      <point x="2061" y="1072"/>
      <point x="2160" y="1238"/>
      <point x="2160" y="1239" type="curve" smooth="yes"/>
      <point x="2165" y="1247"/>
      <point x="2168" y="1256"/>
      <point x="2169" y="1265" type="curve" smooth="yes"/>
      <point x="2173" y="1293"/>
      <point x="2161" y="1320"/>
      <point x="2138" y="1331" type="curve" smooth="yes"/>
      <point x="1914" y="1431"/>
      <point x="1633" y="1475"/>
      <point x="1269" y="1475" type="curve" smooth="yes"/>
      <point x="805" y="1475"/>
      <point x="338" y="1427"/>
      <point x="276" y="989" type="curve" smooth="yes"/>
      <point x="213" y="539"/>
      <point x="791" y="539"/>
      <point x="1321" y="504" type="curve" smooth="yes"/>
      <point x="1442" y="497"/>
      <point x="1504" y="468"/>
      <point x="1494" y="394" type="curve" smooth="yes"/>
      <point x="1485" y="328"/>
      <point x="1395" y="301"/>
      <point x="1249" y="301" type="curve" smooth="yes"/>
      <point x="882" y="301"/>
      <point x="630" y="346"/>
      <point x="377" y="429" type="curve" smooth="yes"/>
      <point x="370" y="431"/>
      <point x="363" y="432"/>
      <point x="356" y="432" type="curve" smooth="yes"/>
      <point x="326" y="432"/>
      <point x="296" y="414"/>
      <point x="278" y="383" type="curve" smooth="yes"/>
      <point x="278" y="383"/>
      <point x="171" y="197"/>
      <point x="171" y="196" type="curve" smooth="yes"/>
      <point x="167" y="188"/>
      <point x="164" y="180"/>
      <point x="163" y="171" type="curve" smooth="yes"/>
      <point x="159" y="143"/>
      <point x="171" y="114"/>
      <point x="195" y="105" type="curve" smooth="yes"/>
      <point x="477" y="-11"/>
      <point x="778" y="-41"/>
    </contour>
    <contour>
      <point x="1126" y="1438" type="move" name="top"/>
    </contour>
    <contour>
      <point x="1126" y="0" type="move" name="bottom"/>
    </contour>
  </outline>
</glyph>
<glyph name="W" format="1">
  <advance width="3091"/>
  <unicode hex="0057"/>
  <outline>
    <contour>
      <point x="720" y="0" type="curve"/>
      <point x="1173" y="0" type="line" smooth="yes"/>
      <point x="1212" y="0"/>
      <point x="1253" y="30"/>
      <point x="1275" y="70" type="curve" smooth="yes"/>
      <point x="1641" y="723" type="line"/>
      <point x="1808" y="70" type="line" smooth="yes"/>
      <point x="1819" y="28"/>
      <point x="1853" y="1"/>
      <point x="1895" y="0" type="curve"/>
      <point x="2375" y="0" type="line"/>
      <point x="2417" y="1"/>
      <point x="2459" y="28"/>
      <point x="2482" y="70" type="curve" smooth="yes"/>
      <point x="3188" y="1369" type="line" smooth="yes"/>
      <point x="3192" y="1376"/>
      <point x="3194" y="1384"/>
      <point x="3195" y="1391" type="curve" smooth="yes"/>
      <point x="3199" y="1417"/>
      <point x="3184" y="1438"/>
      <point x="3156" y="1438" type="curve" smooth="yes"/>
      <point x="2741" y="1438" type="line" smooth="yes"/>
      <point x="2698" y="1438"/>
      <point x="2656" y="1411"/>
      <point x="2633" y="1369" type="curve" smooth="yes"/>
      <point x="2249" y="656" type="line"/>
      <point x="2058" y="1368" type="line" smooth="yes"/>
      <point x="2048" y="1408"/>
      <point x="2016" y="1436"/>
      <point x="1976" y="1438" type="curve"/>
      <point x="1587" y="1438" type="line" smooth="yes"/>
      <point x="1545" y="1438"/>
      <point x="1502" y="1411"/>
      <point x="1478" y="1369" type="curve" smooth="yes"/>
      <point x="1085" y="666" type="line"/>
      <point x="918" y="1367" type="line" smooth="yes"/>
      <point x="907" y="1410"/>
      <point x="874" y="1438"/>
      <point x="831" y="1438" type="curve" smooth="yes"/>
      <point x="334" y="1438" type="line" smooth="yes"/>
      <point x="306" y="1438"/>
      <point x="285" y="1417"/>
      <point x="281" y="1391" type="curve" smooth="yes"/>
      <point x="280" y="1384"/>
      <point x="281" y="1376"/>
      <point x="283" y="1369" type="curve" smooth="yes"/>
      <point x="631" y="70" type="line" smooth="yes"/>
      <point x="643" y="28"/>
      <point x="678" y="1"/>
    </contour>
    <contour>
      <point x="1546" y="1438" type="move" name="top"/>
    </contour>
  </outline>
</glyph>
<glyph name="X" format="1">
  <advance width="2230"/>
  <unicode hex="0058"/>
  <outline>
    <contour>
      <point x="136" y="0" type="curve" smooth="yes"/>
      <point x="539" y="0" type="line" smooth="yes"/>
      <point x="582" y="0"/>
      <point x="632" y="21"/>
      <point x="670" y="53" type="curve" smooth="yes"/>
      <point x="1083" y="405" type="line"/>
      <point x="1353" y="57" type="line" smooth="yes"/>
      <point x="1381" y="22"/>
      <point x="1424" y="0"/>
      <point x="1468" y="0" type="curve" smooth="yes"/>
      <point x="2098" y="0" type="line" smooth="yes"/>
      <point x="2117" y="0"/>
      <point x="2132" y="15"/>
      <point x="2134" y="31" type="curve" smooth="yes"/>
      <point x="2135" y="39"/>
      <point x="2131" y="48"/>
      <point x="2125" y="57" type="curve" smooth="yes"/>
      <point x="1561" y="808" type="line"/>
      <point x="2242" y="1385" type="line" smooth="yes"/>
      <point x="2251" y="1393"/>
      <point x="2256" y="1402"/>
      <point x="2257" y="1410" type="curve" smooth="yes"/>
      <point x="2259" y="1424"/>
      <point x="2250" y="1438"/>
      <point x="2233" y="1438" type="curve" smooth="yes"/>
      <point x="1825" y="1438" type="line" smooth="yes"/>
      <point x="1782" y="1438"/>
      <point x="1732" y="1417"/>
      <point x="1694" y="1385" type="curve" smooth="yes"/>
      <point x="1349" y="1089" type="line"/>
      <point x="1128" y="1381" type="line" smooth="yes"/>
      <point x="1101" y="1416"/>
      <point x="1058" y="1438"/>
      <point x="1015" y="1438" type="curve" smooth="yes"/>
      <point x="352" y="1438" type="line" smooth="yes"/>
      <point x="333" y="1438"/>
      <point x="320" y="1424"/>
      <point x="318" y="1408" type="curve" smooth="yes"/>
      <point x="317" y="1400"/>
      <point x="320" y="1390"/>
      <point x="326" y="1381" type="curve" smooth="yes"/>
      <point x="867" y="683" type="line"/>
      <point x="127" y="53" type="line" smooth="yes"/>
      <point x="118" y="45"/>
      <point x="113" y="36"/>
      <point x="112" y="29" type="curve" smooth="yes"/>
      <point x="110" y="14"/>
      <point x="119" y="0"/>
    </contour>
  </outline>
</glyph>
<glyph name="Y" format="1">
  <advance width="2073"/>
  <unicode hex="0059"/>
  <outline>
    <contour>
      <point x="795" y="0" type="curve" smooth="yes"/>
      <point x="1288" y="0" type="line" smooth="yes"/>
      <point x="1328" y="0"/>
      <point x="1363" y="33"/>
      <point x="1369" y="76" type="curve" smooth="yes"/>
      <point x="1425" y="476" type="line"/>
      <point x="2184" y="1375" type="line" smooth="yes"/>
      <point x="2192" y="1384"/>
      <point x="2197" y="1393"/>
      <point x="2198" y="1402" type="curve" smooth="yes"/>
      <point x="2201" y="1421"/>
      <point x="2187" y="1438"/>
      <point x="2166" y="1438" type="curve" smooth="yes"/>
      <point x="1730" y="1438" type="line" smooth="yes"/>
      <point x="1686" y="1438"/>
      <point x="1640" y="1413"/>
      <point x="1608" y="1374" type="curve" smooth="yes"/>
      <point x="1209" y="889" type="line"/>
      <point x="936" y="1375" type="line" smooth="yes"/>
      <point x="915" y="1414"/>
      <point x="873" y="1438"/>
      <point x="830" y="1438" type="curve" smooth="yes"/>
      <point x="306" y="1438" type="line" smooth="yes"/>
      <point x="285" y="1438"/>
      <point x="268" y="1421"/>
      <point x="265" y="1403" type="curve" smooth="yes"/>
      <point x="264" y="1395"/>
      <point x="267" y="1385"/>
      <point x="272" y="1376" type="curve" smooth="yes"/>
      <point x="790" y="473" type="line"/>
      <point x="735" y="76" type="line" smooth="yes"/>
      <point x="729" y="33"/>
      <point x="755" y="0"/>
    </contour>
    <contour>
      <point x="1037" y="1438" type="move" name="top"/>
    </contour>
  </outline>
</glyph>
<glyph name="backslash" format="1">
  <advance width="1297"/>
  <unicode hex="005C"/>
  <outline>
    <contour>
      <point x="719" y="-216" type="curve" smooth="yes"/>
      <point x="1163" y="-215" type="line" smooth="yes"/>
      <point x="1177" y="-215"/>
      <point x="1189" y="-203"/>
      <point x="1191" y="-189" type="curve" smooth="yes"/>
      <point x="1191" y="-186"/>
      <point x="1192" y="-183"/>
      <point x="1191" y="-180" type="curve" smooth="yes"/>
      <point x="801" y="1603" type="line"/>
      <point x="797" y="1624"/>
      <point x="780" y="1638"/>
      <point x="760" y="1638" type="curve" smooth="yes"/>
      <point x="316" y="1638" type="line" smooth="yes"/>
      <point x="302" y="1638"/>
      <point x="291" y="1626"/>
      <point x="289" y="1612" type="curve" smooth="yes"/>
      <point x="289" y="1609"/>
      <point x="288" y="1606"/>
      <point x="289" y="1603" type="curve" smooth="yes"/>
      <point x="677" y="-181" type="line" smooth="yes"/>
      <point x="681" y="-202"/>
      <point x="699" y="-216"/>
    </contour>
  </outline>
</glyph>
<glyph name="bracketright" format="1">
  <advance width="1282"/>
  <unicode hex="005D"/>
  <outline>
    <contour>
      <point x="165" y="-174" type="curve" smooth="yes"/>
      <point x="1040" y="-174" type="line" smooth="yes"/>
      <point x="1080" y="-174"/>
      <point x="1116" y="-140"/>
      <point x="1122" y="-97" type="curve" smooth="yes"/>
      <point x="1355" y="1561" type="line" smooth="yes"/>
      <point x="1361" y="1604"/>
      <point x="1334" y="1638"/>
      <point x="1294" y="1638" type="curve" smooth="yes"/>
      <point x="419" y="1638" type="line" smooth="yes"/>
      <point x="379" y="1638"/>
      <point x="344" y="1607"/>
      <point x="338" y="1564" type="curve" smooth="yes"/>
      <point x="310" y="1362" type="line" smooth="yes"/>
      <point x="304" y="1319"/>
      <point x="330" y="1288"/>
      <point x="370" y="1288" type="curve" smooth="yes"/>
      <point x="721" y="1288" type="line" smooth="yes"/>
      <point x="740" y="1288"/>
      <point x="751" y="1272"/>
      <point x="748" y="1252" type="curve" smooth="yes"/>
      <point x="602" y="213" type="line" smooth="yes"/>
      <point x="599" y="193"/>
      <point x="584" y="178"/>
      <point x="565" y="178" type="curve" smooth="yes"/>
      <point x="214" y="178" type="line" smooth="yes"/>
      <point x="174" y="178"/>
      <point x="139" y="147"/>
      <point x="133" y="104" type="curve" smooth="yes"/>
      <point x="104" y="-100" type="line" smooth="yes"/>
      <point x="98" y="-143"/>
      <point x="125" y="-174"/>
    </contour>
  </outline>
</glyph>
<glyph name="a" format="1">
  <advance width="1766"/>
  <unicode hex="0061"/>
  <outline>
    <contour>
      <point x="779" y="174" type="curve" smooth="yes"/>
      <point x="681" y="174"/>
      <point x="639" y="210"/>
      <point x="647" y="271" type="curve"/>
      <point x="661" y="369"/>
      <point x="843" y="414"/>
      <point x="1134" y="454" type="curve" smooth="yes"/>
      <point x="1139" y="455"/>
      <point x="1166" y="456"/>
      <point x="1169" y="456" type="curve" smooth="yes"/>
      <point x="1194" y="456"/>
      <point x="1191" y="438"/>
      <point x="1189" y="424" type="curve" smooth="yes"/>
      <point x="1169" y="285"/>
      <point x="982" y="174"/>
    </contour>
    <contour>
      <point x="654" y="-41" type="curve" smooth="yes"/>
      <point x="981" y="-41"/>
      <point x="1205" y="63"/>
      <point x="1324" y="215" type="curve" smooth="yes"/>
      <point x="1330" y="223"/>
      <point x="1337" y="230"/>
      <point x="1341" y="230" type="curve" smooth="yes"/>
      <point x="1347" y="230"/>
      <point x="1349" y="222"/>
      <point x="1351" y="211" type="curve" smooth="yes"/>
      <point x="1354" y="188"/>
      <point x="1382" y="110"/>
      <point x="1396" y="66" type="curve"/>
      <point x="1407" y="24"/>
      <point x="1438" y="0"/>
      <point x="1474" y="0" type="curve" smooth="yes"/>
      <point x="1580" y="0" type="line" smooth="yes"/>
      <point x="1611" y="0"/>
      <point x="1639" y="29"/>
      <point x="1644" y="68" type="curve" smooth="yes"/>
      <point x="1722" y="622" type="line" smooth="yes"/>
      <point x="1771" y="968"/>
      <point x="1429" y="1053"/>
      <point x="1005" y="1053" type="curve" smooth="yes"/>
      <point x="582" y="1053"/>
      <point x="359" y="989"/>
      <point x="281" y="846" type="curve" smooth="yes"/>
      <point x="275" y="833"/>
      <point x="267" y="817"/>
      <point x="265" y="802" type="curve" smooth="yes"/>
      <point x="263" y="785"/>
      <point x="273" y="766"/>
      <point x="288" y="765" type="curve" smooth="yes"/>
      <point x="620" y="731" type="line" smooth="yes"/>
      <point x="628" y="730"/>
      <point x="635" y="729"/>
      <point x="640" y="729" type="curve" smooth="yes"/>
      <point x="659" y="729"/>
      <point x="673" y="737"/>
      <point x="697" y="758" type="curve" smooth="yes"/>
      <point x="776" y="827"/>
      <point x="907" y="849"/>
      <point x="982" y="849" type="curve" smooth="yes"/>
      <point x="1173" y="849"/>
      <point x="1228" y="778"/>
      <point x="1211" y="654" type="curve" smooth="yes"/>
      <point x="1209" y="639" type="line" smooth="yes"/>
      <point x="1203" y="596"/>
      <point x="218" y="650"/>
      <point x="160" y="239" type="curve" smooth="yes"/>
      <point x="135" y="62"/>
      <point x="332" y="-41"/>
    </contour>
    <contour>
      <point x="883" y="1006" type="move" name="top"/>
    </contour>
    <contour>
      <point x="1589" y="10" type="move" name="ogonek"/>
    </contour>
  </outline>
</glyph>
<glyph name="b" format="1">
  <advance width="1824"/>
  <unicode hex="0062"/>
  <outline>
    <contour>
      <point x="949" y="231" type="curve" smooth="yes"/>
      <point x="765" y="231"/>
      <point x="682" y="361"/>
      <point x="703" y="513" type="curve" smooth="yes"/>
      <point x="724" y="664"/>
      <point x="846" y="794"/>
      <point x="1030" y="794" type="curve" smooth="yes"/>
      <point x="1204" y="794"/>
      <point x="1290" y="667"/>
      <point x="1268" y="513" type="curve" smooth="yes"/>
      <point x="1247" y="362"/>
      <point x="1127" y="231"/>
    </contour>
    <contour>
      <point x="1037" y="-41" type="curve" smooth="yes"/>
      <point x="1362" y="-41"/>
      <point x="1723" y="129"/>
      <point x="1775" y="499" type="curve" smooth="yes"/>
      <point x="1830" y="889"/>
      <point x="1524" y="1053"/>
      <point x="1219" y="1053" type="curve" smooth="yes"/>
      <point x="1057" y="1053"/>
      <point x="895" y="1005"/>
      <point x="783" y="916" type="curve" smooth="yes"/>
      <point x="779" y="913"/>
      <point x="776" y="912"/>
      <point x="773" y="912" type="curve" smooth="yes"/>
      <point x="765" y="912"/>
      <point x="760" y="919"/>
      <point x="761" y="929" type="curve" smooth="yes"/>
      <point x="822" y="1360" type="line" smooth="yes"/>
      <point x="828" y="1403"/>
      <point x="804" y="1436"/>
      <point x="766" y="1436" type="curve" smooth="yes"/>
      <point x="414" y="1436" type="line" smooth="yes"/>
      <point x="376" y="1436"/>
      <point x="342" y="1403"/>
      <point x="336" y="1360" type="curve" smooth="yes"/>
      <point x="154" y="67" type="line" smooth="yes"/>
      <point x="148" y="24"/>
      <point x="159" y="0"/>
      <point x="197" y="0" type="curve" smooth="yes"/>
      <point x="288" y="0" type="line" smooth="yes"/>
      <point x="328" y="0"/>
      <point x="349" y="29"/>
      <point x="379" y="75" type="curve"/>
      <point x="427" y="141"/>
      <point x="452" y="179"/>
      <point x="467" y="201" type="curve" smooth="yes"/>
      <point x="473" y="209"/>
      <point x="479" y="213"/>
      <point x="484" y="213" type="curve" smooth="yes"/>
      <point x="489" y="213"/>
      <point x="494" y="210"/>
      <point x="497" y="205" type="curve" smooth="yes"/>
      <point x="595" y="42"/>
      <point x="812" y="-41"/>
    </contour>
  </outline>
</glyph>
<glyph name="c" format="1">
  <advance width="1615"/>
  <unicode hex="0063"/>
  <outline>
    <contour>
      <point x="899" y="-41" type="curve" smooth="yes"/>
      <point x="1085" y="-41"/>
      <point x="1287" y="-6"/>
      <point x="1439" y="49" type="curve" smooth="yes"/>
      <point x="1469" y="59"/>
      <point x="1489" y="86"/>
      <point x="1493" y="115" type="curve" smooth="yes"/>
      <point x="1494" y="123"/>
      <point x="1494" y="131"/>
      <point x="1493" y="139" type="curve" smooth="yes"/>
      <point x="1491" y="149"/>
      <point x="1475" y="246"/>
      <point x="1473" y="253" type="curve" smooth="yes"/>
      <point x="1468" y="284"/>
      <point x="1448" y="301"/>
      <point x="1421" y="301" type="curve" smooth="yes"/>
      <point x="1413" y="301"/>
      <point x="1405" y="300"/>
      <point x="1396" y="297" type="curve" smooth="yes"/>
      <point x="1297" y="265"/>
      <point x="1153" y="231"/>
      <point x="1022" y="231" type="curve" smooth="yes"/>
      <point x="828" y="231"/>
      <point x="668" y="300"/>
      <point x="697" y="509" type="curve" smooth="yes"/>
      <point x="725" y="710"/>
      <point x="895" y="778"/>
      <point x="1072" y="778" type="curve" smooth="yes"/>
      <point x="1210" y="778"/>
      <point x="1348" y="738"/>
      <point x="1444" y="699" type="curve" smooth="yes"/>
      <point x="1452" y="696"/>
      <point x="1461" y="694"/>
      <point x="1469" y="694" type="curve" smooth="yes"/>
      <point x="1495" y="694"/>
      <point x="1520" y="709"/>
      <point x="1536" y="741" type="curve"/>
      <point x="1552" y="775"/>
      <point x="1573" y="818"/>
      <point x="1589" y="852" type="curve" smooth="yes"/>
      <point x="1593" y="860"/>
      <point x="1595" y="868"/>
      <point x="1596" y="876" type="curve" smooth="yes"/>
      <point x="1600" y="906"/>
      <point x="1588" y="936"/>
      <point x="1563" y="949" type="curve" smooth="yes"/>
      <point x="1432" y="1013"/>
      <point x="1238" y="1053"/>
      <point x="1042" y="1053" type="curve" smooth="yes"/>
      <point x="664" y="1053"/>
      <point x="246" y="910"/>
      <point x="190" y="509" type="curve" smooth="yes"/>
      <point x="132" y="96"/>
      <point x="510" y="-41"/>
    </contour>
    <contour>
      <point x="808" y="1006" type="move" name="top"/>
    </contour>
    <contour>
      <point x="808" y="0" type="move" name="bottom"/>
    </contour>
  </outline>
</glyph>
<glyph name="d" format="1">
  <advance width="1825"/>
  <unicode hex="0064"/>
  <outline>
    <contour>
      <point x="941" y="231" type="curve" smooth="yes"/>
      <point x="763" y="231"/>
      <point x="680" y="362"/>
      <point x="701" y="513" type="curve" smooth="yes"/>
      <point x="723" y="667"/>
      <point x="843" y="794"/>
      <point x="1019" y="794" type="curve" smooth="yes"/>
      <point x="1202" y="794"/>
      <point x="1287" y="665"/>
      <point x="1266" y="513" type="curve" smooth="yes"/>
      <point x="1245" y="361"/>
      <point x="1125" y="231"/>
    </contour>
    <contour>
      <point x="776" y="-41" type="curve" smooth="yes"/>
      <point x="1000" y="-41"/>
      <point x="1239" y="41"/>
      <point x="1382" y="201" type="curve" smooth="yes"/>
      <point x="1388" y="207"/>
      <point x="1395" y="211"/>
      <point x="1401" y="212" type="curve"/>
      <point x="1408" y="211"/>
      <point x="1414" y="206"/>
      <point x="1418" y="198" type="curve"/>
      <point x="1419" y="192"/>
      <point x="1469" y="71"/>
      <point x="1471" y="65" type="curve" smooth="yes"/>
      <point x="1487" y="26"/>
      <point x="1504" y="0"/>
      <point x="1543" y="0" type="curve" smooth="yes"/>
      <point x="1615" y="0" type="line" smooth="yes"/>
      <point x="1653" y="0"/>
      <point x="1685" y="33"/>
      <point x="1691" y="76" type="curve" smooth="yes"/>
      <point x="1871" y="1360" type="line" smooth="yes"/>
      <point x="1877" y="1403"/>
      <point x="1853" y="1436"/>
      <point x="1815" y="1436" type="curve" smooth="yes"/>
      <point x="1464" y="1436" type="line" smooth="yes"/>
      <point x="1426" y="1436"/>
      <point x="1392" y="1403"/>
      <point x="1386" y="1360" type="curve" smooth="yes"/>
      <point x="1325" y="930" type="line" smooth="yes"/>
      <point x="1324" y="920"/>
      <point x="1316" y="911"/>
      <point x="1309" y="911" type="curve"/>
      <point x="1306" y="912"/>
      <point x="1303" y="913"/>
      <point x="1300" y="916" type="curve" smooth="yes"/>
      <point x="1212" y="1005"/>
      <point x="1064" y="1053"/>
      <point x="901" y="1053" type="curve" smooth="yes"/>
      <point x="596" y="1053"/>
      <point x="245" y="889"/>
      <point x="190" y="499" type="curve" smooth="yes"/>
      <point x="138" y="129"/>
      <point x="450" y="-41"/>
    </contour>
    <contour>
      <point x="913" y="503" type="move" name="center"/>
    </contour>
  </outline>
</glyph>
<glyph name="e" format="1">
  <advance width="1701"/>
  <unicode hex="0065"/>
  <outline>
    <contour>
      <point x="728" y="615" type="line" smooth="yes"/>
      <point x="717" y="615"/>
      <point x="720" y="631"/>
      <point x="722" y="644" type="curve"/>
      <point x="746" y="753"/>
      <point x="872" y="835"/>
      <point x="1008" y="835" type="curve" smooth="yes"/>
      <point x="1158" y="835"/>
      <point x="1232" y="747"/>
      <point x="1230" y="639" type="curve"/>
      <point x="1228" y="628"/>
      <point x="1228" y="615"/>
      <point x="1217" y="615" type="curve" smooth="yes"/>
    </contour>
    <contour>
      <point x="927" y="-41" type="curve" smooth="yes"/>
      <point x="1052" y="-41"/>
      <point x="1336" y="1"/>
      <point x="1478" y="50" type="curve" smooth="yes"/>
      <point x="1511" y="61"/>
      <point x="1525" y="86"/>
      <point x="1529" y="114" type="curve" smooth="yes"/>
      <point x="1534" y="153"/>
      <point x="1522" y="199"/>
      <point x="1517" y="232" type="curve" smooth="yes"/>
      <point x="1512" y="262"/>
      <point x="1492" y="279"/>
      <point x="1465" y="279" type="curve" smooth="yes"/>
      <point x="1457" y="279"/>
      <point x="1450" y="278"/>
      <point x="1441" y="275" type="curve" smooth="yes"/>
      <point x="1342" y="243"/>
      <point x="1164" y="210"/>
      <point x="1021" y="210" type="curve" smooth="yes"/>
      <point x="842" y="210"/>
      <point x="667" y="262"/>
      <point x="689" y="419" type="curve" smooth="yes"/>
      <point x="691" y="434"/>
      <point x="702" y="449"/>
      <point x="715" y="449" type="curve" smooth="yes"/>
      <point x="1597" y="449" type="line" smooth="yes"/>
      <point x="1627" y="449"/>
      <point x="1644" y="469"/>
      <point x="1649" y="490" type="curve" smooth="yes"/>
      <point x="1650" y="500"/>
      <point x="1654" y="521"/>
      <point x="1656" y="533" type="curve" smooth="yes"/>
      <point x="1704" y="918"/>
      <point x="1357" y="1053"/>
      <point x="1030" y="1053" type="curve" smooth="yes"/>
      <point x="685" y="1053"/>
      <point x="254" y="954"/>
      <point x="191" y="504" type="curve" smooth="yes"/>
      <point x="126" y="44"/>
      <point x="578" y="-41"/>
    </contour>
    <contour>
      <point x="851" y="1006" type="move" name="top"/>
    </contour>
    <contour>
      <point x="851" y="0" type="move" name="bottom"/>
    </contour>
    <contour>
      <point x="1531" y="10" type="move" name="ogonek"/>
    </contour>
  </outline>
</glyph>
<glyph name="j" format="1">
  <advance width="1058"/>
  <unicode hex="006A"/>
  <outline>
    <contour>
      <point x="651" y="1156" type="curve" smooth="yes"/>
      <point x="1005" y="1156" type="line" smooth="yes"/>
      <point x="1043" y="1156"/>
      <point x="1078" y="1189"/>
      <point x="1084" y="1232" type="curve" smooth="yes"/>
      <point x="1113" y="1441" type="line" smooth="yes"/>
      <point x="1119" y="1484"/>
      <point x="1094" y="1516"/>
      <point x="1056" y="1516" type="curve" smooth="yes"/>
      <point x="702" y="1516" type="line" smooth="yes"/>
      <point x="664" y="1516"/>
      <point x="630" y="1484"/>
      <point x="624" y="1441" type="curve" smooth="yes"/>
      <point x="595" y="1232" type="line" smooth="yes"/>
      <point x="589" y="1189"/>
      <point x="613" y="1156"/>
    </contour>
    <contour>
      <point x="915" y="11" type="curve"/>
      <point x="1044" y="931" type="line" smooth="yes"/>
      <point x="1050" y="974"/>
      <point x="1025" y="1006"/>
      <point x="987" y="1006" type="curve" smooth="yes"/>
      <point x="632" y="1006" type="line" smooth="yes"/>
      <point x="594" y="1006"/>
      <point x="560" y="974"/>
      <point x="554" y="931" type="curve" smooth="yes"/>
      <point x="425" y="14" type="line" smooth="yes"/>
      <point x="408" y="-110"/>
      <point x="311" y="-146"/>
      <point x="205" y="-146" type="curve" smooth="yes"/>
      <point x="173" y="-146"/>
      <point x="128" y="-143"/>
      <point x="101" y="-140" type="curve" smooth="yes"/>
      <point x="98" y="-140"/>
      <point x="96" y="-139"/>
      <point x="93" y="-139" type="curve" smooth="yes"/>
      <point x="60" y="-139"/>
      <point x="31" y="-168"/>
      <point x="26" y="-206" type="curve" smooth="yes"/>
      <point x="6" y="-344" type="line" smooth="yes"/>
      <point x="0" y="-388"/>
      <point x="23" y="-424"/>
      <point x="61" y="-429" type="curve" smooth="yes"/>
      <point x="119" y="-438"/>
      <point x="193" y="-446"/>
      <point x="268" y="-446" type="curve" smooth="yes"/>
      <point x="574" y="-446"/>
      <point x="866" y="-334"/>
    </contour>
  </outline>
</glyph>
<glyph name="k" format="1">
  <advance width="1808"/>
  <unicode hex="006B"/>
  <outline>
    <contour>
      <point x="214" y="0" type="curve" smooth="yes"/>
      <point x="572" y="0" type="line" smooth="yes"/>
      <point x="611" y="0"/>
      <point x="644" y="33"/>
      <point x="650" y="76" type="curve" smooth="yes"/>
      <point x="670" y="219" type="line" smooth="yes"/>
      <point x="673" y="241"/>
      <point x="686" y="261"/>
      <point x="702" y="274" type="curve" smooth="yes"/>
      <point x="703" y="275"/>
      <point x="826" y="371"/>
      <point x="836" y="377" type="curve"/>
      <point x="843" y="383"/>
      <point x="852" y="386"/>
      <point x="859" y="386" type="curve" smooth="yes"/>
      <point x="867" y="386"/>
      <point x="874" y="381"/>
      <point x="880" y="374" type="curve" smooth="yes"/>
      <point x="1118" y="59" type="line" smooth="yes"/>
      <point x="1145" y="24"/>
      <point x="1163" y="0"/>
      <point x="1204" y="0" type="curve" smooth="yes"/>
      <point x="1660" y="0" type="line" smooth="yes"/>
      <point x="1678" y="0"/>
      <point x="1691" y="15"/>
      <point x="1693" y="31" type="curve" smooth="yes"/>
      <point x="1694" y="39"/>
      <point x="1692" y="48"/>
      <point x="1686" y="56" type="curve" smooth="yes"/>
      <point x="1273" y="570" type="line" smooth="yes"/>
      <point x="1268" y="576"/>
      <point x="1267" y="583"/>
      <point x="1268" y="590" type="curve" smooth="yes"/>
      <point x="1269" y="599"/>
      <point x="1273" y="608"/>
      <point x="1282" y="613" type="curve"/>
      <point x="1766" y="958" type="line" smooth="yes"/>
      <point x="1777" y="965"/>
      <point x="1784" y="974"/>
      <point x="1785" y="982" type="curve" smooth="yes"/>
      <point x="1787" y="995"/>
      <point x="1779" y="1006"/>
      <point x="1764" y="1006" type="curve" smooth="yes"/>
      <point x="1255" y="1006" type="line" smooth="yes"/>
      <point x="1214" y="1006"/>
      <point x="1163" y="986"/>
      <point x="1123" y="957" type="curve" smooth="yes"/>
      <point x="764" y="703" type="line" smooth="yes"/>
      <point x="760" y="701"/>
      <point x="756" y="699"/>
      <point x="754" y="699" type="curve" smooth="yes"/>
      <point x="745" y="699"/>
      <point x="738" y="706"/>
      <point x="740" y="717" type="curve" smooth="yes"/>
      <point x="832" y="1369" type="line" smooth="yes"/>
      <point x="838" y="1412"/>
      <point x="814" y="1444"/>
      <point x="775" y="1444" type="curve" smooth="yes"/>
      <point x="417" y="1444" type="line" smooth="yes"/>
      <point x="378" y="1444"/>
      <point x="344" y="1412"/>
      <point x="338" y="1369" type="curve" smooth="yes"/>
      <point x="156" y="76" type="line" smooth="yes"/>
      <point x="150" y="33"/>
      <point x="175" y="0"/>
    </contour>
    <contour>
      <point x="904" y="0" type="move" name="bottom"/>
    </contour>
  </outline>
</glyph>
<glyph name="l" format="1">
  <advance width="782"/>
  <unicode hex="006C"/>
  <outline>
    <contour>
      <point x="213" y="0" type="curve" smooth="yes"/>
      <point x="568" y="0" type="line" smooth="yes"/>
      <point x="606" y="0"/>
      <point x="640" y="33"/>
      <point x="646" y="76" type="curve" smooth="yes"/>
      <point x="828" y="1369" type="line" smooth="yes"/>
      <point x="834" y="1412"/>
      <point x="809" y="1444"/>
      <point x="771" y="1444" type="curve" smooth="yes"/>
      <point x="416" y="1444" type="line" smooth="yes"/>
      <point x="378" y="1444"/>
      <point x="345" y="1412"/>
      <point x="339" y="1369" type="curve" smooth="yes"/>
      <point x="157" y="76" type="line" smooth="yes"/>
      <point x="151" y="33"/>
      <point x="175" y="0"/>
    </contour>
    <contour>
      <point x="391" y="1006" type="move" name="top"/>
    </contour>
    <contour>
      <point x="391" y="0" type="move" name="bottom"/>
    </contour>
    <contour>
      <point x="762" y="1006" type="move" name="topright"/>
    </contour>
  </outline>
</glyph>
<glyph name="m" format="1">
  <advance width="2661"/>
  <unicode hex="006D"/>
  <outline>
    <contour>
      <point x="207" y="0" type="curve" smooth="yes"/>
      <point x="561" y="0" type="line" smooth="yes"/>
      <point x="599" y="0"/>
      <point x="633" y="33"/>
      <point x="639" y="76" type="curve" smooth="yes"/>
      <point x="687" y="420" type="line" smooth="yes"/>
      <point x="712" y="598"/>
      <point x="792" y="781"/>
      <point x="976" y="781" type="curve" smooth="yes"/>
      <point x="1111" y="781"/>
      <point x="1171" y="658"/>
      <point x="1151" y="513" type="curve" smooth="yes"/>
      <point x="1089" y="76" type="line" smooth="yes"/>
      <point x="1083" y="33"/>
      <point x="1107" y="0"/>
      <point x="1146" y="0" type="curve" smooth="yes"/>
      <point x="1507" y="0" type="line" smooth="yes"/>
      <point x="1546" y="0"/>
      <point x="1580" y="33"/>
      <point x="1586" y="76" type="curve" smooth="yes"/>
      <point x="1644" y="485" type="line" smooth="yes"/>
      <point x="1678" y="729"/>
      <point x="1810" y="781"/>
      <point x="1915" y="781" type="curve" smooth="yes"/>
      <point x="2063" y="781"/>
      <point x="2124" y="703"/>
      <point x="2097" y="513" type="curve" smooth="yes"/>
      <point x="2035" y="76" type="line" smooth="yes"/>
      <point x="2029" y="33"/>
      <point x="2054" y="0"/>
      <point x="2093" y="0" type="curve" smooth="yes"/>
      <point x="2465" y="0" type="line" smooth="yes"/>
      <point x="2504" y="0"/>
      <point x="2537" y="33"/>
      <point x="2543" y="76" type="curve" smooth="yes"/>
      <point x="2605" y="518" type="line" smooth="yes"/>
      <point x="2655" y="877"/>
      <point x="2396" y="1053"/>
      <point x="2086" y="1053" type="curve" smooth="yes"/>
      <point x="1917" y="1053"/>
      <point x="1741" y="993"/>
      <point x="1613" y="874" type="curve" smooth="yes"/>
      <point x="1603" y="864"/>
      <point x="1595" y="861"/>
      <point x="1587" y="861" type="curve" smooth="yes"/>
      <point x="1579" y="861"/>
      <point x="1571" y="865"/>
      <point x="1565" y="873" type="curve" smooth="yes"/>
      <point x="1474" y="994"/>
      <point x="1316" y="1053"/>
      <point x="1135" y="1053" type="curve" smooth="yes"/>
      <point x="940" y="1053"/>
      <point x="740" y="973"/>
      <point x="612" y="813" type="curve" smooth="yes"/>
      <point x="606" y="805"/>
      <point x="600" y="802"/>
      <point x="593" y="802" type="curve" smooth="yes"/>
      <point x="586" y="802"/>
      <point x="580" y="806"/>
      <point x="577" y="814" type="curve" smooth="yes"/>
      <point x="525" y="942" type="line" smooth="yes"/>
      <point x="509" y="983"/>
      <point x="475" y="1006"/>
      <point x="433" y="1006" type="curve" smooth="yes"/>
      <point x="346" y="1006" type="line" smooth="yes"/>
      <point x="308" y="1006"/>
      <point x="276" y="972"/>
      <point x="270" y="929" type="curve" smooth="yes"/>
      <point x="150" y="76" type="line" smooth="yes"/>
      <point x="144" y="33"/>
      <point x="169" y="0"/>
    </contour>
  </outline>
</glyph>
<glyph name="n" format="1">
  <advance width="1824"/>
  <unicode hex="006E"/>
  <outline>
    <contour>
      <point x="208" y="0" type="curve" smooth="yes"/>
      <point x="566" y="0" type="line" smooth="yes"/>
      <point x="605" y="0"/>
      <point x="638" y="33"/>
      <point x="644" y="76" type="curve" smooth="yes"/>
      <point x="705" y="513" type="line" smooth="yes"/>
      <point x="724" y="646"/>
      <point x="851" y="781"/>
      <point x="1028" y="781" type="curve" smooth="yes"/>
      <point x="1195" y="781"/>
      <point x="1283" y="658"/>
      <point x="1263" y="513" type="curve" smooth="yes"/>
      <point x="1201" y="76" type="line" smooth="yes"/>
      <point x="1195" y="33"/>
      <point x="1219" y="0"/>
      <point x="1258" y="0" type="curve" smooth="yes"/>
      <point x="1627" y="0" type="line" smooth="yes"/>
      <point x="1666" y="0"/>
      <point x="1699" y="33"/>
      <point x="1705" y="76" type="curve" smooth="yes"/>
      <point x="1767" y="518" type="line" smooth="yes"/>
      <point x="1818" y="881"/>
      <point x="1583" y="1053"/>
      <point x="1194" y="1053" type="curve" smooth="yes"/>
      <point x="981" y="1053"/>
      <point x="757" y="973"/>
      <point x="617" y="812" type="curve" smooth="yes"/>
      <point x="611" y="805"/>
      <point x="604" y="801"/>
      <point x="597" y="801" type="curve" smooth="yes"/>
      <point x="590" y="801"/>
      <point x="583" y="806"/>
      <point x="580" y="814" type="curve" smooth="yes"/>
      <point x="528" y="942" type="line" smooth="yes"/>
      <point x="512" y="983"/>
      <point x="477" y="1006"/>
      <point x="435" y="1006" type="curve" smooth="yes"/>
      <point x="347" y="1006" type="line" smooth="yes"/>
      <point x="308" y="1006"/>
      <point x="276" y="972"/>
      <point x="270" y="929" type="curve" smooth="yes"/>
      <point x="150" y="76" type="line" smooth="yes"/>
      <point x="144" y="33"/>
      <point x="169" y="0"/>
    </contour>
    <contour>
      <point x="912" y="1006" type="move" name="top"/>
    </contour>
    <contour>
      <point x="912" y="0" type="move" name="bottom"/>
    </contour>
  </outline>
</glyph>
<glyph name="o" format="1">
  <advance width="1793"/>
  <unicode hex="006F"/>
  <outline>
    <contour>
      <point x="891" y="-41" type="curve" smooth="yes"/>
      <point x="1223" y="-41"/>
      <point x="1676" y="16"/>
      <point x="1745" y="507" type="curve" smooth="yes"/>
      <point x="1813" y="992"/>
      <point x="1355" y="1053"/>
      <point x="1045" y="1053" type="curve" smooth="yes"/>
      <point x="735" y="1053"/>
      <point x="259" y="992"/>
      <point x="191" y="507" type="curve" smooth="yes"/>
      <point x="122" y="16"/>
      <point x="559" y="-41"/>
    </contour>
    <contour>
      <point x="927" y="215" type="curve" smooth="yes"/>
      <point x="746" y="215"/>
      <point x="649" y="308"/>
      <point x="677" y="507" type="curve" smooth="yes"/>
      <point x="701" y="681"/>
      <point x="826" y="798"/>
      <point x="1009" y="798" type="curve" smooth="yes"/>
      <point x="1192" y="798"/>
      <point x="1283" y="681"/>
      <point x="1259" y="507" type="curve" smooth="yes"/>
      <point x="1231" y="308"/>
      <point x="1107" y="215"/>
    </contour>
    <contour>
      <point x="897" y="1006" type="move" name="top"/>
    </contour>
  </outline>
</glyph>
<glyph name="p" format="1">
  <advance width="1824"/>
  <unicode hex="0070"/>
  <outline>
    <contour>
      <point x="947" y="213" type="curve" smooth="yes"/>
      <point x="762" y="213"/>
      <point x="676" y="344"/>
      <point x="698" y="498" type="curve" smooth="yes"/>
      <point x="719" y="649"/>
      <point x="841" y="781"/>
      <point x="1026" y="781" type="curve" smooth="yes"/>
      <point x="1202" y="781"/>
      <point x="1286" y="648"/>
      <point x="1265" y="498" type="curve" smooth="yes"/>
      <point x="1243" y="341"/>
      <point x="1121" y="213"/>
    </contour>
    <contour>
      <point x="157" y="-318" type="curve" smooth="yes"/>
      <point x="519" y="-318" type="line" smooth="yes"/>
      <point x="557" y="-318"/>
      <point x="587" y="-289"/>
      <point x="593" y="-246" type="curve" smooth="yes"/>
      <point x="636" y="61" type="line" smooth="yes"/>
      <point x="638" y="72"/>
      <point x="646" y="80"/>
      <point x="654" y="80" type="curve" smooth="yes"/>
      <point x="658" y="80"/>
      <point x="662" y="78"/>
      <point x="664" y="76" type="curve" smooth="yes"/>
      <point x="754" y="-3"/>
      <point x="903" y="-41"/>
      <point x="1065" y="-41" type="curve" smooth="yes"/>
      <point x="1372" y="-41"/>
      <point x="1722" y="119"/>
      <point x="1777" y="511" type="curve" smooth="yes"/>
      <point x="1829" y="883"/>
      <point x="1518" y="1053"/>
      <point x="1189" y="1053" type="curve" smooth="yes"/>
      <point x="976" y="1053"/>
      <point x="748" y="971"/>
      <point x="611" y="809" type="curve" smooth="yes"/>
      <point x="605" y="803"/>
      <point x="596" y="792"/>
      <point x="591" y="792" type="curve" smooth="yes"/>
      <point x="583" y="792"/>
      <point x="579" y="803"/>
      <point x="576" y="811" type="curve" smooth="yes"/>
      <point x="575" y="816"/>
      <point x="524" y="926"/>
      <point x="523" y="932" type="curve"/>
      <point x="505" y="975"/>
      <point x="470" y="999"/>
      <point x="430" y="999" type="curve" smooth="yes"/>
      <point x="345" y="999" type="line" smooth="yes"/>
      <point x="307" y="999"/>
      <point x="275" y="967"/>
      <point x="269" y="924" type="curve" smooth="yes"/>
      <point x="105" y="-246" type="line" smooth="yes"/>
      <point x="99" y="-289"/>
      <point x="119" y="-318"/>
    </contour>
  </outline>
</glyph>
<glyph name="t" format="1">
  <advance width="1446"/>
  <unicode hex="0074"/>
  <outline>
    <contour>
      <point x="939" y="-41" type="curve" smooth="yes"/>
      <point x="1054" y="-41"/>
      <point x="1167" y="-25"/>
      <point x="1258" y="-2" type="curve" smooth="yes"/>
      <point x="1296" y="8"/>
      <point x="1331" y="46"/>
      <point x="1335" y="88" type="curve"/>
      <point x="1354" y="232" type="line"/>
      <point x="1357" y="266"/>
      <point x="1340" y="290"/>
      <point x="1312" y="290" type="curve" smooth="yes"/>
      <point x="1307" y="290"/>
      <point x="1301" y="289"/>
      <point x="1295" y="287" type="curve" smooth="yes"/>
      <point x="1230" y="269"/>
      <point x="1150" y="254"/>
      <point x="1076" y="254" type="curve" smooth="yes"/>
      <point x="954" y="254"/>
      <point x="858" y="295"/>
      <point x="877" y="433" type="curve" smooth="yes"/>
      <point x="923" y="762" type="line" smooth="yes"/>
      <point x="926" y="782"/>
      <point x="943" y="797"/>
      <point x="961" y="797" type="curve" smooth="yes"/>
      <point x="1296" y="797" type="line" smooth="yes"/>
      <point x="1335" y="797"/>
      <point x="1368" y="830"/>
      <point x="1374" y="873" type="curve" smooth="yes"/>
      <point x="1382" y="931" type="line" smooth="yes"/>
      <point x="1388" y="974"/>
      <point x="1364" y="1006"/>
      <point x="1325" y="1006" type="curve" smooth="yes"/>
      <point x="990" y="1006" type="line" smooth="yes"/>
      <point x="972" y="1006"/>
      <point x="960" y="1022"/>
      <point x="963" y="1042" type="curve" smooth="yes"/>
      <point x="1009" y="1374" type="line" smooth="yes"/>
      <point x="1015" y="1417"/>
      <point x="992" y="1450"/>
      <point x="953" y="1450" type="curve" smooth="yes"/>
      <point x="633" y="1450" type="line" smooth="yes"/>
      <point x="594" y="1450"/>
      <point x="562" y="1417"/>
      <point x="555" y="1374" type="curve"/>
      <point x="446" y="1042" type="line" smooth="yes"/>
      <point x="440" y="1022"/>
      <point x="428" y="1006"/>
      <point x="410" y="1006" type="curve" smooth="yes"/>
      <point x="296" y="1006" type="line" smooth="yes"/>
      <point x="257" y="1006"/>
      <point x="224" y="974"/>
      <point x="218" y="931" type="curve" smooth="yes"/>
      <point x="210" y="873" type="line" smooth="yes"/>
      <point x="204" y="830"/>
      <point x="228" y="797"/>
      <point x="267" y="797" type="curve" smooth="yes"/>
      <point x="380" y="797" type="line" smooth="yes"/>
      <point x="398" y="797"/>
      <point x="410" y="782"/>
      <point x="407" y="762" type="curve" smooth="yes"/>
      <point x="367" y="475" type="line" smooth="yes"/>
      <point x="312" y="84"/>
      <point x="620" y="-41"/>
    </contour>
    <contour>
      <point x="723" y="503" type="move" name="center"/>
    </contour>
    <contour>
      <point x="723" y="0" type="move" name="bottom"/>
    </contour>
  </outline>
</glyph>
<glyph name="z" format="1">
  <advance width="1501"/>
  <unicode hex="007A"/>
  <outline>
    <contour>
      <point x="172" y="0" type="curve" smooth="yes"/>
      <point x="1337" y="0" type="line" smooth="yes"/>
      <point x="1355" y="0"/>
      <point x="1373" y="17"/>
      <point x="1376" y="37" type="curve" smooth="yes"/>
      <point x="1401" y="220" type="line" smooth="yes"/>
      <point x="1404" y="240"/>
      <point x="1391" y="257"/>
      <point x="1373" y="257" type="curve" smooth="yes"/>
      <point x="833" y="257" type="line"/>
      <point x="1411" y="722" type="line" smooth="yes"/>
      <point x="1429" y="737"/>
      <point x="1442" y="760"/>
      <point x="1445" y="783" type="curve" smooth="yes"/>
      <point x="1471" y="969" type="line" smooth="yes"/>
      <point x="1474" y="989"/>
      <point x="1457" y="1006"/>
      <point x="1439" y="1006" type="curve" smooth="yes"/>
      <point x="314" y="1006" type="line" smooth="yes"/>
      <point x="296" y="1006"/>
      <point x="278" y="989"/>
      <point x="275" y="969" type="curve" smooth="yes"/>
      <point x="250" y="786" type="line" smooth="yes"/>
      <point x="247" y="766"/>
      <point x="260" y="749"/>
      <point x="278" y="749" type="curve" smooth="yes"/>
      <point x="796" y="749" type="line"/>
      <point x="201" y="280" type="line" smooth="yes"/>
      <point x="183" y="266"/>
      <point x="170" y="243"/>
      <point x="167" y="220" type="curve" smooth="yes"/>
      <point x="141" y="37" type="line" smooth="yes"/>
      <point x="138" y="17"/>
      <point x="154" y="0"/>
    </contour>
    <contour>
      <point x="751" y="1006" type="move" name="top"/>
    </contour>
  </outline>
</glyph>
<glyph name="braceright" format="1">
  <advance width="1087"/>
  <unicode hex="007D"/>
  <outline>
    <contour>
      <point x="172" y="-123" type="curve" smooth="yes"/>
      <point x="392" y="-123" type="line" smooth="yes"/>
      <point x="612" y="-123"/>
      <point x="688" y="21"/>
      <point x="741" y="192" type="curve"/>
      <point x="798" y="383"/>
      <point x="835" y="535"/>
      <point x="978" y="569" type="curve"/>
      <point x="1032" y="583"/>
      <point x="1056" y="613"/>
      <point x="1070" y="710" type="curve" smooth="yes"/>
      <point x="1082" y="797"/>
      <point x="1067" y="837"/>
      <point x="1017" y="851" type="curve"/>
      <point x="883" y="885"/>
      <point x="889" y="1037"/>
      <point x="886" y="1228" type="curve"/>
      <point x="881" y="1399"/>
      <point x="846" y="1543"/>
      <point x="626" y="1543" type="curve" smooth="yes"/>
      <point x="406" y="1543" type="line" smooth="yes"/>
      <point x="367" y="1543"/>
      <point x="330" y="1511"/>
      <point x="324" y="1469" type="curve" smooth="yes"/>
      <point x="310" y="1368" type="line" smooth="yes"/>
      <point x="303" y="1316"/>
      <point x="322" y="1288"/>
      <point x="368" y="1279" type="curve" smooth="yes"/>
      <point x="481" y="1255"/>
      <point x="497" y="1241"/>
      <point x="479" y="1110" type="curve" smooth="yes"/>
      <point x="465" y="1008" type="line" smooth="yes"/>
      <point x="450" y="898"/>
      <point x="479" y="766"/>
      <point x="602" y="725" type="curve" smooth="yes"/>
      <point x="608" y="723"/>
      <point x="611" y="716"/>
      <point x="610" y="710" type="curve" smooth="yes"/>
      <point x="609" y="704"/>
      <point x="605" y="697"/>
      <point x="598" y="695" type="curve" smooth="yes"/>
      <point x="459" y="658"/>
      <point x="397" y="524"/>
      <point x="381" y="412" type="curve" smooth="yes"/>
      <point x="366" y="310" type="line" smooth="yes"/>
      <point x="348" y="181"/>
      <point x="328" y="165"/>
      <point x="208" y="141" type="curve" smooth="yes"/>
      <point x="159" y="132"/>
      <point x="132" y="104"/>
      <point x="125" y="52" type="curve" smooth="yes"/>
      <point x="111" y="-49" type="line" smooth="yes"/>
      <point x="105" y="-91"/>
      <point x="133" y="-123"/>
    </contour>
  </outline>
</glyph>
<glyph name="dieresis" format="1">
  <advance width="1170"/>
  <unicode hex="00A8"/>
  <outline>
    <contour>
      <point x="996" y="1200" type="curve" smooth="yes"/>
      <point x="1130" y="1200" type="line" smooth="yes"/>
      <point x="1170" y="1200"/>
      <point x="1206" y="1234"/>
      <point x="1212" y="1277" type="curve" smooth="yes"/>
      <point x="1231" y="1407" type="line" smooth="yes"/>
      <point x="1237" y="1450"/>
      <point x="1210" y="1484"/>
      <point x="1170" y="1484" type="curve" smooth="yes"/>
      <point x="1036" y="1484" type="line" smooth="yes"/>
      <point x="996" y="1484"/>
      <point x="960" y="1450"/>
      <point x="954" y="1407" type="curve" smooth="yes"/>
      <point x="935" y="1277" type="line" smooth="yes"/>
      <point x="929" y="1234"/>
      <point x="956" y="1200"/>
    </contour>
    <contour>
      <point x="378" y="1200" type="curve" smooth="yes"/>
      <point x="512" y="1200" type="line" smooth="yes"/>
      <point x="552" y="1200"/>
      <point x="588" y="1234"/>
      <point x="594" y="1277" type="curve" smooth="yes"/>
      <point x="612" y="1407" type="line" smooth="yes"/>
      <point x="618" y="1450"/>
      <point x="592" y="1484"/>
      <point x="552" y="1484" type="curve" smooth="yes"/>
      <point x="418" y="1484" type="line" smooth="yes"/>
      <point x="378" y="1484"/>
      <point x="341" y="1450"/>
      <point x="335" y="1407" type="curve" smooth="yes"/>
      <point x="317" y="1277" type="line" smooth="yes"/>
      <point x="311" y="1234"/>
      <point x="338" y="1200"/>
    </contour>
    <contour>
      <point x="774" y="1006" type="move" name="_top"/>
    </contour>
  </outline>
</glyph>
<glyph name="copyright" format="1">
  <advance width="1767"/>
  <unicode hex="00A9"/>
  <outline>
    <contour>
      <point x="877" y="-41" type="curve" smooth="yes"/>
      <point x="1383" y="-41"/>
      <point x="1686" y="318"/>
      <point x="1742" y="717" type="curve" smooth="yes"/>
      <point x="1798" y="1116"/>
      <point x="1596" y="1475"/>
      <point x="1090" y="1475" type="curve" smooth="yes"/>
      <point x="584" y="1475"/>
      <point x="281" y="1116"/>
      <point x="225" y="717" type="curve" smooth="yes"/>
      <point x="169" y="318"/>
      <point x="371" y="-41"/>
    </contour>
    <contour>
      <point x="903" y="124" type="curve" smooth="yes"/>
      <point x="485" y="124"/>
      <point x="373" y="440"/>
      <point x="411" y="713" type="curve" smooth="yes"/>
      <point x="451" y="998"/>
      <point x="651" y="1307"/>
      <point x="1069" y="1307" type="curve" smooth="yes"/>
      <point x="1487" y="1307"/>
      <point x="1599" y="998"/>
      <point x="1559" y="713" type="curve" smooth="yes"/>
      <point x="1521" y="440"/>
      <point x="1321" y="124"/>
    </contour>
    <contour>
      <point x="964" y="330" type="curve" smooth="yes"/>
      <point x="1070" y="330"/>
      <point x="1183" y="356"/>
      <point x="1269" y="394" type="curve" smooth="yes"/>
      <point x="1285" y="401"/>
      <point x="1298" y="422"/>
      <point x="1301" y="444" type="curve" smooth="yes"/>
      <point x="1302" y="450"/>
      <point x="1302" y="456"/>
      <point x="1301" y="462" type="curve" smooth="yes"/>
      <point x="1299" y="491"/>
      <point x="1296" y="517"/>
      <point x="1293" y="546" type="curve"/>
      <point x="1292" y="568"/>
      <point x="1281" y="583"/>
      <point x="1266" y="583" type="curve" smooth="yes"/>
      <point x="1262" y="583"/>
      <point x="1257" y="582"/>
      <point x="1253" y="580" type="curve" smooth="yes"/>
      <point x="1193" y="556"/>
      <point x="1112" y="535"/>
      <point x="1041" y="535" type="curve" smooth="yes"/>
      <point x="934" y="535"/>
      <point x="848" y="581"/>
      <point x="869" y="731" type="curve" smooth="yes"/>
      <point x="889" y="872"/>
      <point x="981" y="920"/>
      <point x="1082" y="920" type="curve" smooth="yes"/>
      <point x="1154" y="920"/>
      <point x="1230" y="893"/>
      <point x="1284" y="864" type="curve" smooth="yes"/>
      <point x="1288" y="862"/>
      <point x="1292" y="861"/>
      <point x="1296" y="861" type="curve" smooth="yes"/>
      <point x="1312" y="861"/>
      <point x="1329" y="876"/>
      <point x="1339" y="900" type="curve"/>
      <point x="1348" y="928"/>
      <point x="1369" y="969"/>
      <point x="1374" y="1003" type="curve" smooth="yes"/>
      <point x="1377" y="1024"/>
      <point x="1374" y="1042"/>
      <point x="1357" y="1053" type="curve" smooth="yes"/>
      <point x="1286" y="1098"/>
      <point x="1180" y="1127"/>
      <point x="1068" y="1127" type="curve" smooth="yes"/>
      <point x="860" y="1127"/>
      <point x="624" y="1022"/>
      <point x="583" y="731" type="curve" smooth="yes"/>
      <point x="541" y="432"/>
      <point x="743" y="330"/>
    </contour>
  </outline>
</glyph>
<glyph name="guillemotleft" format="1">
  <advance width="1352"/>
  <unicode hex="00AB"/>
  <outline>
    <contour>
      <point x="1169" y="29" type="curve" smooth="yes"/>
      <point x="1203" y="29"/>
      <point x="1224" y="60"/>
      <point x="1227" y="80" type="curve" smooth="yes"/>
      <point x="1241" y="182" type="line" smooth="yes"/>
      <point x="1250" y="246"/>
      <point x="1247" y="272"/>
      <point x="1206" y="323" type="curve"/>
      <point x="1000" y="501" type="line"/>
      <point x="991" y="513"/>
      <point x="987" y="521"/>
      <point x="989" y="536" type="curve" smooth="yes"/>
      <point x="991" y="550"/>
      <point x="995" y="556"/>
      <point x="1009" y="568" type="curve"/>
      <point x="1266" y="746" type="line"/>
      <point x="1323" y="798"/>
      <point x="1331" y="825"/>
      <point x="1340" y="888" type="curve" smooth="yes"/>
      <point x="1354" y="987" type="line" smooth="yes"/>
      <point x="1357" y="1006"/>
      <point x="1344" y="1036"/>
      <point x="1310" y="1036" type="curve" smooth="yes"/>
      <point x="1295" y="1036"/>
      <point x="1276" y="1030"/>
      <point x="1252" y="1016" type="curve"/>
      <point x="862" y="768" type="line"/>
      <point x="790" y="721"/>
      <point x="758" y="671"/>
      <point x="749" y="606" type="curve" smooth="yes"/>
      <point x="728" y="453" type="line" smooth="yes"/>
      <point x="719" y="389"/>
      <point x="739" y="350"/>
      <point x="797" y="303" type="curve" smooth="yes"/>
      <point x="1117" y="49" type="line"/>
      <point x="1136" y="35"/>
      <point x="1154" y="29"/>
    </contour>
    <contour>
      <point x="625" y="29" type="curve" smooth="yes"/>
      <point x="659" y="29"/>
      <point x="681" y="60"/>
      <point x="684" y="80" type="curve" smooth="yes"/>
      <point x="698" y="182" type="line" smooth="yes"/>
      <point x="707" y="246"/>
      <point x="704" y="272"/>
      <point x="663" y="323" type="curve"/>
      <point x="456" y="501" type="line"/>
      <point x="447" y="513"/>
      <point x="444" y="521"/>
      <point x="446" y="536" type="curve" smooth="yes"/>
      <point x="448" y="550"/>
      <point x="452" y="556"/>
      <point x="465" y="568" type="curve"/>
      <point x="722" y="746" type="line"/>
      <point x="778" y="798"/>
      <point x="788" y="825"/>
      <point x="797" y="888" type="curve" smooth="yes"/>
      <point x="811" y="987" type="line" smooth="yes"/>
      <point x="814" y="1006"/>
      <point x="801" y="1036"/>
      <point x="767" y="1036" type="curve" smooth="yes"/>
      <point x="752" y="1036"/>
      <point x="733" y="1030"/>
      <point x="710" y="1016" type="curve" smooth="yes"/>
      <point x="319" y="768" type="line"/>
      <point x="247" y="721"/>
      <point x="215" y="671"/>
      <point x="206" y="606" type="curve" smooth="yes"/>
      <point x="185" y="453" type="line" smooth="yes"/>
      <point x="176" y="389"/>
      <point x="196" y="350"/>
      <point x="254" y="303" type="curve" smooth="yes"/>
      <point x="574" y="49" type="line"/>
      <point x="593" y="35"/>
      <point x="611" y="29"/>
    </contour>
  </outline>
</glyph>
<glyph name="logicalnot" format="1">
  <advance width="1206"/>
  <unicode hex="00AC"/>
  <outline>
    <contour>
      <point x="874" y="129" type="curve" smooth="yes"/>
      <point x="1026" y="129" type="line" smooth="yes"/>
      <point x="1066" y="129"/>
      <point x="1099" y="163"/>
      <point x="1105" y="206" type="curve" smooth="yes"/>
      <point x="1177" y="717" type="line" smooth="yes"/>
      <point x="1183" y="760"/>
      <point x="1156" y="792"/>
      <point x="1116" y="792" type="curve" smooth="yes"/>
      <point x="297" y="792" type="line" smooth="yes"/>
      <point x="257" y="792"/>
      <point x="223" y="761"/>
      <point x="217" y="718" type="curve" smooth="yes"/>
      <point x="198" y="580" type="line" smooth="yes"/>
      <point x="192" y="537"/>
      <point x="216" y="506"/>
      <point x="256" y="506" type="curve" smooth="yes"/>
      <point x="824" y="506" type="line" smooth="yes"/>
      <point x="843" y="506"/>
      <point x="856" y="489"/>
      <point x="853" y="469" type="curve" smooth="yes"/>
      <point x="816" y="206" type="line" smooth="yes"/>
      <point x="810" y="163"/>
      <point x="834" y="129"/>
    </contour>
  </outline>
</glyph>
<glyph name="uni00AD" format="1">
  <advance width="947"/>
  <unicode hex="00AD"/>
  <outline>
    <contour>
      <point x="225" y="449" type="curve" smooth="yes"/>
      <point x="847" y="449" type="line" smooth="yes"/>
      <point x="873" y="449"/>
      <point x="898" y="478"/>
      <point x="903" y="513" type="curve" smooth="yes"/>
      <point x="922" y="648" type="line" smooth="yes"/>
      <point x="927" y="682"/>
      <point x="910" y="709"/>
      <point x="884" y="709" type="curve" smooth="yes"/>
      <point x="262" y="709" type="line" smooth="yes"/>
      <point x="236" y="709"/>
      <point x="211" y="683"/>
      <point x="207" y="651" type="curve" smooth="yes"/>
      <point x="189" y="519" type="line" smooth="yes"/>
      <point x="184" y="480"/>
      <point x="199" y="449"/>
    </contour>
  </outline>
</glyph>
<glyph name="macron" format="1">
  <advance width="986"/>
  <unicode hex="00AF"/>
  <outline>
    <contour>
      <point x="366" y="1242" type="curve" smooth="yes"/>
      <point x="973" y="1242" type="line" smooth="yes"/>
      <point x="1013" y="1242"/>
      <point x="1046" y="1275"/>
      <point x="1052" y="1318" type="curve" smooth="yes"/>
      <point x="1065" y="1410" type="line" smooth="yes"/>
      <point x="1071" y="1453"/>
      <point x="1047" y="1486"/>
      <point x="1007" y="1486" type="curve" smooth="yes"/>
      <point x="401" y="1486" type="line" smooth="yes"/>
      <point x="361" y="1486"/>
      <point x="327" y="1453"/>
      <point x="321" y="1410" type="curve" smooth="yes"/>
      <point x="308" y="1318" type="line" smooth="yes"/>
      <point x="302" y="1275"/>
      <point x="326" y="1242"/>
    </contour>
    <contour>
      <point x="686.5" y="1006" type="move" name="_top"/>
    </contour>
  </outline>
</glyph>
<glyph name="degree" format="1">
  <advance width="1252"/>
  <unicode hex="00B0"/>
  <outline>
    <contour>
      <point x="675" y="362" type="curve" smooth="yes"/>
      <point x="1004" y="362"/>
      <point x="1212" y="596"/>
      <point x="1251" y="870" type="curve" smooth="yes"/>
      <point x="1290" y="1145"/>
      <point x="1147" y="1381"/>
      <point x="818" y="1381" type="curve" smooth="yes"/>
      <point x="489" y="1381"/>
      <point x="281" y="1145"/>
      <point x="242" y="870" type="curve" smooth="yes"/>
      <point x="203" y="596"/>
      <point x="346" y="362"/>
    </contour>
    <contour>
      <point x="697" y="519" type="curve" smooth="yes"/>
      <point x="454" y="519"/>
      <point x="391" y="707"/>
      <point x="414" y="870" type="curve" smooth="yes"/>
      <point x="438" y="1041"/>
      <point x="553" y="1224"/>
      <point x="796" y="1224" type="curve" smooth="yes"/>
      <point x="1038" y="1224"/>
      <point x="1104" y="1041"/>
      <point x="1080" y="870" type="curve" smooth="yes"/>
      <point x="1057" y="707"/>
      <point x="939" y="519"/>
    </contour>
  </outline>
</glyph>
<glyph name="plusminus" format="1">
  <advance width="1193"/>
  <unicode hex="00B1"/>
  <outline>
    <contour>
      <point x="165" y="-133" type="curve" smooth="yes"/>
      <point x="988" y="-133" type="line" smooth="yes"/>
      <point x="1028" y="-133"/>
      <point x="1062" y="-101"/>
      <point x="1068" y="-58" type="curve" smooth="yes"/>
      <point x="1087" y="78" type="line" smooth="yes"/>
      <point x="1093" y="121"/>
      <point x="1068" y="154"/>
      <point x="1028" y="154" type="curve" smooth="yes"/>
      <point x="205" y="154" type="line" smooth="yes"/>
      <point x="165" y="154"/>
      <point x="130" y="121"/>
      <point x="124" y="78" type="curve" smooth="yes"/>
      <point x="105" y="-58" type="line" smooth="yes"/>
      <point x="99" y="-101"/>
      <point x="125" y="-133"/>
    </contour>
    <contour>
      <point x="559" y="253" type="curve" smooth="yes"/>
      <point x="705" y="253" type="line" smooth="yes"/>
      <point x="745" y="253"/>
      <point x="779" y="285"/>
      <point x="785" y="328" type="curve" smooth="yes"/>
      <point x="823" y="600" type="line" smooth="yes"/>
      <point x="826" y="620"/>
      <point x="842" y="637"/>
      <point x="861" y="637" type="curve" smooth="yes"/>
      <point x="1092" y="637" type="line" smooth="yes"/>
      <point x="1132" y="637"/>
      <point x="1166" y="668"/>
      <point x="1172" y="711" type="curve" smooth="yes"/>
      <point x="1191" y="852" type="line" smooth="yes"/>
      <point x="1197" y="895"/>
      <point x="1173" y="926"/>
      <point x="1133" y="926" type="curve" smooth="yes"/>
      <point x="901" y="926" type="line" smooth="yes"/>
      <point x="882" y="926"/>
      <point x="871" y="943"/>
      <point x="874" y="963" type="curve" smooth="yes"/>
      <point x="912" y="1236" type="line" smooth="yes"/>
      <point x="918" y="1279"/>
      <point x="894" y="1312"/>
      <point x="854" y="1312" type="curve" smooth="yes"/>
      <point x="707" y="1312" type="line" smooth="yes"/>
      <point x="667" y="1312"/>
      <point x="634" y="1279"/>
      <point x="628" y="1236" type="curve" smooth="yes"/>
      <point x="589" y="963" type="line" smooth="yes"/>
      <point x="586" y="943"/>
      <point x="570" y="926"/>
      <point x="551" y="926" type="curve" smooth="yes"/>
      <point x="316" y="926" type="line" smooth="yes"/>
      <point x="276" y="926"/>
      <point x="243" y="895"/>
      <point x="237" y="852" type="curve" smooth="yes"/>
      <point x="217" y="711" type="line" smooth="yes"/>
      <point x="211" y="668"/>
      <point x="236" y="637"/>
      <point x="276" y="637" type="curve" smooth="yes"/>
      <point x="510" y="637" type="line" smooth="yes"/>
      <point x="529" y="637"/>
      <point x="541" y="620"/>
      <point x="538" y="600" type="curve" smooth="yes"/>
      <point x="500" y="328" type="line" smooth="yes"/>
      <point x="494" y="285"/>
      <point x="519" y="253"/>
    </contour>
  </outline>
</glyph>
<glyph name="paragraph" format="1">
  <advance width="1614"/>
  <unicode hex="00B6"/>
  <outline>
    <contour>
      <point x="800" y="-1" type="curve" smooth="yes"/>
      <point x="942" y="-1" type="line" smooth="yes"/>
      <point x="982" y="-1"/>
      <point x="1016" y="33"/>
      <point x="1022" y="76" type="curve" smooth="yes"/>
      <point x="1089" y="554" type="line"/>
      <point x="1250" y="554" type="line" smooth="yes"/>
      <point x="1259" y="554"/>
      <point x="1267" y="545"/>
      <point x="1265" y="533" type="curve" smooth="yes"/>
      <point x="1200" y="76" type="line" smooth="yes"/>
      <point x="1194" y="33"/>
      <point x="1218" y="-1"/>
      <point x="1258" y="-1" type="curve" smooth="yes"/>
      <point x="1401" y="-1" type="line" smooth="yes"/>
      <point x="1441" y="-1"/>
      <point x="1474" y="33"/>
      <point x="1480" y="76" type="curve" smooth="yes"/>
      <point x="1656" y="1327" type="line" smooth="yes"/>
      <point x="1662" y="1370"/>
      <point x="1635" y="1400"/>
      <point x="1596" y="1404" type="curve" smooth="yes"/>
      <point x="1520" y="1412"/>
      <point x="1216" y="1438"/>
      <point x="988" y="1438" type="curve" smooth="yes"/>
      <point x="636" y="1438"/>
      <point x="308" y="1355"/>
      <point x="260" y="1013" type="curve" smooth="yes"/>
      <point x="209" y="652"/>
      <point x="463" y="554"/>
      <point x="774" y="554" type="curve" smooth="yes"/>
      <point x="809" y="554" type="line"/>
      <point x="742" y="76" type="line" smooth="yes"/>
      <point x="736" y="33"/>
      <point x="760" y="-1"/>
    </contour>
  </outline>
</glyph>
<glyph name="periodcentered" format="1">
  <advance width="576"/>
  <unicode hex="00B7"/>
  <outline>
    <contour>
      <point x="280" y="651" type="curve" smooth="yes"/>
      <point x="479" y="651" type="line" smooth="yes"/>
      <point x="519" y="651"/>
      <point x="555" y="685"/>
      <point x="561" y="728" type="curve" smooth="yes"/>
      <point x="587" y="916" type="line" smooth="yes"/>
      <point x="593" y="959"/>
      <point x="567" y="993"/>
      <point x="527" y="993" type="curve" smooth="yes"/>
      <point x="329" y="993" type="line" smooth="yes"/>
      <point x="289" y="993"/>
      <point x="252" y="959"/>
      <point x="246" y="916" type="curve" smooth="yes"/>
      <point x="220" y="728" type="line" smooth="yes"/>
      <point x="214" y="685"/>
      <point x="240" y="651"/>
    </contour>
  </outline>
</glyph>
<glyph name="cedilla" format="1">
  <advance width="660"/>
  <unicode hex="00B8"/>
  <outline>
    <contour>
      <point x="162" y="-373" type="line" smooth="yes"/>
      <point x="123" y="-373"/>
      <point x="109" y="-422"/>
      <point x="103" y="-464" type="curve" smooth="yes"/>
      <point x="88" y="-572"/>
      <point x="175" y="-642"/>
      <point x="281" y="-642" type="curve" smooth="yes"/>
      <point x="415" y="-642"/>
      <point x="525" y="-569"/>
      <point x="550" y="-391" type="curve" smooth="yes"/>
      <point x="566" y="-280"/>
      <point x="507" y="-156"/>
      <point x="407" y="-156" type="curve" smooth="yes"/>
      <point x="312" y="-156" type="line" smooth="yes"/>
      <point x="300" y="-156"/>
      <point x="296" y="-163"/>
      <point x="295" y="-173" type="curve" smooth="yes"/>
      <point x="285" y="-244" type="line" smooth="yes"/>
      <point x="283" y="-255"/>
      <point x="298" y="-254"/>
      <point x="298" y="-254" type="curve"/>
      <point x="334" y="-254" type="line" smooth="yes"/>
      <point x="380" y="-254"/>
      <point x="399" y="-331"/>
      <point x="388" y="-407" type="curve" smooth="yes"/>
      <point x="375" y="-499"/>
      <point x="347" y="-532"/>
      <point x="303" y="-532" type="curve" smooth="yes"/>
      <point x="257" y="-532"/>
      <point x="241" y="-493"/>
      <point x="247" y="-451" type="curve" smooth="yes"/>
      <point x="249" y="-436"/>
      <point x="255" y="-419"/>
      <point x="257" y="-404" type="curve" smooth="yes"/>
      <point x="259" y="-386"/>
      <point x="257" y="-373"/>
      <point x="234" y="-373" type="curve" smooth="yes"/>
    </contour>
    <contour>
      <point x="326.957" y="0" type="move" name="_bottom"/>
    </contour>
  </outline>
</glyph>
<glyph name="ordmasculine" format="1">
  <advance width="1581"/>
  <unicode hex="00BA"/>
  <outline>
    <contour>
      <point x="867" y="545" type="curve" smooth="yes"/>
      <point x="1149" y="545"/>
      <point x="1533" y="593"/>
      <point x="1592" y="1011" type="curve" smooth="yes"/>
      <point x="1650" y="1422"/>
      <point x="1261" y="1474"/>
      <point x="998" y="1474" type="curve" smooth="yes"/>
      <point x="734" y="1474"/>
      <point x="330" y="1422"/>
      <point x="272" y="1011" type="curve" smooth="yes"/>
      <point x="213" y="593"/>
      <point x="585" y="545"/>
    </contour>
    <contour>
      <point x="898" y="762" type="curve" smooth="yes"/>
      <point x="744" y="762"/>
      <point x="662" y="841"/>
      <point x="686" y="1011" type="curve" smooth="yes"/>
      <point x="707" y="1158"/>
      <point x="811" y="1258"/>
      <point x="967" y="1258" type="curve" smooth="yes"/>
      <point x="1122" y="1258"/>
      <point x="1200" y="1158"/>
      <point x="1179" y="1011" type="curve" smooth="yes"/>
      <point x="1155" y="841"/>
      <point x="1050" y="762"/>
    </contour>
  </outline>
</glyph>
<glyph name="guillemotright" format="1">
  <advance width="1352"/>
  <unicode hex="00BB"/>
  <outline>
    <contour>
      <point x="736" y="29" type="curve" smooth="yes"/>
      <point x="751" y="29"/>
      <point x="770" y="36"/>
      <point x="793" y="49" type="curve"/>
      <point x="1184" y="297" type="line"/>
      <point x="1256" y="344"/>
      <point x="1287" y="394"/>
      <point x="1296" y="459" type="curve" smooth="yes"/>
      <point x="1317" y="613" type="line" smooth="yes"/>
      <point x="1326" y="677"/>
      <point x="1307" y="716"/>
      <point x="1249" y="763" type="curve" smooth="yes"/>
      <point x="928" y="1016" type="line" smooth="yes"/>
      <point x="909" y="1031"/>
      <point x="891" y="1036"/>
      <point x="877" y="1036" type="curve" smooth="yes"/>
      <point x="843" y="1036"/>
      <point x="821" y="1006"/>
      <point x="818" y="986" type="curve" smooth="yes"/>
      <point x="804" y="883" type="line" smooth="yes"/>
      <point x="795" y="820"/>
      <point x="799" y="794"/>
      <point x="840" y="743" type="curve"/>
      <point x="1046" y="564" type="line"/>
      <point x="1056" y="553"/>
      <point x="1059" y="545"/>
      <point x="1057" y="530" type="curve" smooth="yes"/>
      <point x="1055" y="515"/>
      <point x="1051" y="509"/>
      <point x="1037" y="497" type="curve"/>
      <point x="780" y="320" type="line"/>
      <point x="723" y="268"/>
      <point x="714" y="241"/>
      <point x="705" y="177" type="curve" smooth="yes"/>
      <point x="691" y="79" type="line" smooth="yes"/>
      <point x="688" y="60"/>
      <point x="702" y="29"/>
    </contour>
    <contour>
      <point x="192" y="29" type="curve" smooth="yes"/>
      <point x="206" y="29"/>
      <point x="225" y="36"/>
      <point x="248" y="49" type="curve"/>
      <point x="640" y="297" type="line"/>
      <point x="712" y="344"/>
      <point x="743" y="394"/>
      <point x="752" y="459" type="curve" smooth="yes"/>
      <point x="773" y="613" type="line" smooth="yes"/>
      <point x="782" y="677"/>
      <point x="763" y="716"/>
      <point x="705" y="763" type="curve" smooth="yes"/>
      <point x="384" y="1016" type="line" smooth="yes"/>
      <point x="365" y="1031"/>
      <point x="347" y="1036"/>
      <point x="333" y="1036" type="curve" smooth="yes"/>
      <point x="298" y="1036"/>
      <point x="277" y="1006"/>
      <point x="274" y="986" type="curve" smooth="yes"/>
      <point x="260" y="883" type="line" smooth="yes"/>
      <point x="251" y="820"/>
      <point x="255" y="794"/>
      <point x="296" y="743" type="curve"/>
      <point x="502" y="564" type="line"/>
      <point x="512" y="553"/>
      <point x="515" y="545"/>
      <point x="513" y="530" type="curve" smooth="yes"/>
      <point x="511" y="515"/>
      <point x="507" y="509"/>
      <point x="493" y="497" type="curve"/>
      <point x="236" y="320" type="line"/>
      <point x="179" y="268"/>
      <point x="169" y="241"/>
      <point x="160" y="177" type="curve" smooth="yes"/>
      <point x="147" y="79" type="line" smooth="yes"/>
      <point x="144" y="60"/>
      <point x="157" y="29"/>
    </contour>
  </outline>
</glyph>
<glyph name="AE" format="1">
  <advance width="2819"/>
  <unicode hex="00C6"/>
  <outline>
    <contour>
      <point x="962" y="534" type="line" smooth="yes"/>
      <point x="950" y="534"/>
      <point x="942" y="544"/>
      <point x="944" y="555" type="curve" smooth="yes"/>
      <point x="944" y="558"/>
      <point x="946" y="561"/>
      <point x="947" y="563" type="curve" smooth="yes"/>
      <point x="1257" y="1142" type="line" smooth="yes"/>
      <point x="1260" y="1147"/>
      <point x="1264" y="1150"/>
      <point x="1269" y="1150" type="curve" smooth="yes"/>
      <point x="1289" y="1150" type="line"/>
      <point x="1202" y="534" type="line"/>
    </contour>
    <contour>
      <point x="140" y="0" type="curve" smooth="yes"/>
      <point x="582" y="0" type="line" smooth="yes"/>
      <point x="625" y="0"/>
      <point x="658" y="17"/>
      <point x="681" y="59" type="curve" smooth="yes"/>
      <point x="745" y="180" type="line" smooth="yes"/>
      <point x="755" y="197"/>
      <point x="757" y="209"/>
      <point x="783" y="209" type="curve" smooth="yes"/>
      <point x="1156" y="209" type="line"/>
      <point x="1138" y="76" type="line" smooth="yes"/>
      <point x="1132" y="33"/>
      <point x="1158" y="0"/>
      <point x="1198" y="0" type="curve" smooth="yes"/>
      <point x="2620" y="0" type="line" smooth="yes"/>
      <point x="2660" y="0"/>
      <point x="2695" y="34"/>
      <point x="2701" y="77" type="curve" smooth="yes"/>
      <point x="2727" y="262" type="line" smooth="yes"/>
      <point x="2733" y="305"/>
      <point x="2708" y="339"/>
      <point x="2668" y="339" type="curve" smooth="yes"/>
      <point x="1791" y="339" type="line" smooth="yes"/>
      <point x="1775" y="339"/>
      <point x="1765" y="347"/>
      <point x="1767" y="364" type="curve" smooth="yes"/>
      <point x="1796" y="572" type="line" smooth="yes"/>
      <point x="1798" y="589"/>
      <point x="1812" y="598"/>
      <point x="1828" y="598" type="curve" smooth="yes"/>
      <point x="2564" y="598" type="line" smooth="yes"/>
      <point x="2604" y="598"/>
      <point x="2640" y="632"/>
      <point x="2646" y="675" type="curve" smooth="yes"/>
      <point x="2661" y="786" type="line" smooth="yes"/>
      <point x="2667" y="829"/>
      <point x="2641" y="863"/>
      <point x="2601" y="863" type="curve" smooth="yes"/>
      <point x="1865" y="863" type="line" smooth="yes"/>
      <point x="1849" y="863"/>
      <point x="1839" y="873"/>
      <point x="1841" y="890" type="curve" smooth="yes"/>
      <point x="1866" y="1067" type="line" smooth="yes"/>
      <point x="1869" y="1087"/>
      <point x="1880" y="1094"/>
      <point x="1899" y="1094" type="curve" smooth="yes"/>
      <point x="2717" y="1094" type="line" smooth="yes"/>
      <point x="2757" y="1094"/>
      <point x="2791" y="1128"/>
      <point x="2797" y="1171" type="curve" smooth="yes"/>
      <point x="2824" y="1361" type="line" smooth="yes"/>
      <point x="2830" y="1404"/>
      <point x="2805" y="1438"/>
      <point x="2765" y="1438" type="curve" smooth="yes"/>
      <point x="1001" y="1438" type="line" smooth="yes"/>
      <point x="958" y="1438"/>
      <point x="915" y="1410"/>
      <point x="890" y="1369" type="curve" smooth="yes"/>
      <point x="111" y="69" type="line" smooth="yes"/>
      <point x="105" y="61"/>
      <point x="103" y="53"/>
      <point x="102" y="46" type="curve" smooth="yes"/>
      <point x="98" y="21"/>
      <point x="113" y="0"/>
    </contour>
    <contour>
      <point x="1410" y="1438" type="move" name="top"/>
    </contour>
  </outline>
</glyph>
<glyph name="Eth" format="1">
  <advance width="2248"/>
  <unicode hex="00D0"/>
  <outline>
    <contour>
      <point x="219" y="0" type="curve" smooth="yes"/>
      <point x="1133" y="0" type="line" smooth="yes"/>
      <point x="1671" y="0"/>
      <point x="2127" y="31"/>
      <point x="2225" y="731" type="curve" smooth="yes"/>
      <point x="2300" y="1267"/>
      <point x="1906" y="1438"/>
      <point x="1431" y="1438" type="curve" smooth="yes"/>
      <point x="421" y="1438" type="line" smooth="yes"/>
      <point x="381" y="1438"/>
      <point x="345" y="1404"/>
      <point x="339" y="1361" type="curve" smooth="yes"/>
      <point x="265" y="832" type="line"/>
      <point x="173" y="832" type="line" smooth="yes"/>
      <point x="133" y="832"/>
      <point x="112" y="800"/>
      <point x="106" y="757" type="curve" smooth="yes"/>
      <point x="99" y="707" type="line" smooth="yes"/>
      <point x="93" y="664"/>
      <point x="104" y="631"/>
      <point x="144" y="631" type="curve" smooth="yes"/>
      <point x="237" y="631" type="line"/>
      <point x="159" y="76" type="line" smooth="yes"/>
      <point x="153" y="33"/>
      <point x="179" y="0"/>
    </contour>
    <contour>
      <point x="852" y="346" type="line" smooth="yes"/>
      <point x="836" y="346"/>
      <point x="822" y="364"/>
      <point x="824" y="381" type="curve" smooth="yes"/>
      <point x="859" y="631" type="line"/>
      <point x="1033" y="631" type="line" smooth="yes"/>
      <point x="1071" y="631"/>
      <point x="1091" y="661"/>
      <point x="1098" y="701" type="curve"/>
      <point x="1106" y="757" type="line" smooth="yes"/>
      <point x="1112" y="800"/>
      <point x="1101" y="832"/>
      <point x="1061" y="832" type="curve" smooth="yes"/>
      <point x="887" y="832" type="line"/>
      <point x="919" y="1063" type="line" smooth="yes"/>
      <point x="921" y="1080"/>
      <point x="941" y="1097"/>
      <point x="957" y="1097" type="curve" smooth="yes"/>
      <point x="1007" y="1098"/>
      <point x="1201" y="1099"/>
      <point x="1250" y="1099" type="curve" smooth="yes"/>
      <point x="1462" y="1099"/>
      <point x="1655" y="1047"/>
      <point x="1610" y="728" type="curve" smooth="yes"/>
      <point x="1562" y="384"/>
      <point x="1383" y="346"/>
      <point x="1119" y="346" type="curve" smooth="yes"/>
      <point x="936" y="346" type="line" smooth="yes"/>
    </contour>
  </outline>
</glyph>
<glyph name="Oslash" format="1">
  <advance width="2474"/>
  <unicode hex="00D8"/>
  <outline>
    <contour>
      <point x="1282" y="322" type="curve" smooth="yes"/>
      <point x="1262" y="322"/>
      <point x="1243" y="322"/>
      <point x="1225" y="323" type="curve"/>
      <point x="1619" y="1073" type="line"/>
      <point x="1719" y="1019"/>
      <point x="1770" y="911"/>
      <point x="1743" y="722" type="curve" smooth="yes"/>
      <point x="1699" y="407"/>
      <point x="1522" y="322"/>
    </contour>
    <contour>
      <point x="1058" y="367" type="line"/>
      <point x="957" y="419"/>
      <point x="906" y="524"/>
      <point x="934" y="722" type="curve" smooth="yes"/>
      <point x="977" y="1025"/>
      <point x="1151" y="1118"/>
      <point x="1394" y="1118" type="curve" smooth="yes"/>
      <point x="1414" y="1118"/>
      <point x="1434" y="1118"/>
      <point x="1453" y="1116" type="curve"/>
    </contour>
    <contour>
      <point x="919" y="-202" type="line" smooth="yes"/>
      <point x="936" y="-202"/>
      <point x="956" y="-189"/>
      <point x="966" y="-169" type="curve" smooth="yes"/>
      <point x="1038" y="-34" type="line"/>
      <point x="1103" y="-39"/>
      <point x="1168" y="-41"/>
      <point x="1231" y="-41" type="curve" smooth="yes"/>
      <point x="1715" y="-41"/>
      <point x="2363" y="77"/>
      <point x="2454" y="722" type="curve" smooth="yes"/>
      <point x="2517" y="1171"/>
      <point x="2185" y="1370"/>
      <point x="1813" y="1441" type="curve"/>
      <point x="1897" y="1602" type="line" smooth="yes"/>
      <point x="1905" y="1617"/>
      <point x="1899" y="1635"/>
      <point x="1886" y="1635" type="curve" smooth="yes"/>
      <point x="1754" y="1635" type="line" smooth="yes"/>
      <point x="1736" y="1635"/>
      <point x="1719" y="1622"/>
      <point x="1709" y="1602" type="curve" smooth="yes"/>
      <point x="1637" y="1466" type="line"/>
      <point x="1572" y="1473"/>
      <point x="1506" y="1475"/>
      <point x="1444" y="1475" type="curve" smooth="yes"/>
      <point x="960" y="1475"/>
      <point x="307" y="1319"/>
      <point x="223" y="722" type="curve" smooth="yes"/>
      <point x="155" y="238"/>
      <point x="486" y="51"/>
      <point x="859" y="-13" type="curve"/>
      <point x="776" y="-167" type="line" smooth="yes"/>
      <point x="767" y="-182"/>
      <point x="774" y="-200"/>
      <point x="788" y="-200" type="curve" smooth="yes"/>
    </contour>
    <contour>
      <point x="1237" y="1438" type="move" name="top"/>
    </contour>
  </outline>
</glyph>
<glyph name="Thorn" format="1">
  <advance width="2177"/>
  <unicode hex="00DE"/>
  <outline>
    <contour>
      <point x="884" y="614" type="line" smooth="yes"/>
      <point x="868" y="614"/>
      <point x="855" y="632"/>
      <point x="857" y="649" type="curve" smooth="yes"/>
      <point x="895" y="918" type="line" smooth="yes"/>
      <point x="897" y="935"/>
      <point x="915" y="952"/>
      <point x="931" y="952" type="curve" smooth="yes"/>
      <point x="1190" y="952" type="line" smooth="yes"/>
      <point x="1223" y="952"/>
      <point x="1259" y="953"/>
      <point x="1295" y="953" type="curve" smooth="yes"/>
      <point x="1424" y="953"/>
      <point x="1551" y="937"/>
      <point x="1530" y="787" type="curve" smooth="yes"/>
      <point x="1509" y="637"/>
      <point x="1388" y="614"/>
      <point x="1249" y="614" type="curve" smooth="yes"/>
    </contour>
    <contour>
      <point x="215" y="0" type="curve" smooth="yes"/>
      <point x="695" y="0" type="line" smooth="yes"/>
      <point x="735" y="0"/>
      <point x="771" y="33"/>
      <point x="777" y="76" type="curve" smooth="yes"/>
      <point x="807" y="290" type="line" smooth="yes"/>
      <point x="809" y="307"/>
      <point x="827" y="325"/>
      <point x="843" y="325" type="curve" smooth="yes"/>
      <point x="973" y="327"/>
      <point x="1145" y="325"/>
      <point x="1265" y="327" type="curve" smooth="yes"/>
      <point x="1733" y="332"/>
      <point x="2111" y="380"/>
      <point x="2170" y="803" type="curve" smooth="yes"/>
      <point x="2232" y="1241"/>
      <point x="1876" y="1249"/>
      <point x="1379" y="1249" type="curve" smooth="yes"/>
      <point x="941" y="1249" type="line"/>
      <point x="957" y="1363" type="line" smooth="yes"/>
      <point x="963" y="1406"/>
      <point x="937" y="1438"/>
      <point x="897" y="1438" type="curve" smooth="yes"/>
      <point x="417" y="1438" type="line" smooth="yes"/>
      <point x="377" y="1438"/>
      <point x="342" y="1406"/>
      <point x="336" y="1363" type="curve" smooth="yes"/>
      <point x="155" y="76" type="line" smooth="yes"/>
      <point x="149" y="33"/>
      <point x="175" y="0"/>
    </contour>
  </outline>
</glyph>
<glyph name="ae" format="1">
  <advance width="2698"/>
  <unicode hex="00E6"/>
  <outline>
    <contour>
      <point x="1723" y="611" type="line" smooth="yes"/>
      <point x="1712" y="611"/>
      <point x="1716" y="628"/>
      <point x="1718" y="641" type="curve"/>
      <point x="1742" y="750"/>
      <point x="1867" y="835"/>
      <point x="2003" y="835" type="curve" smooth="yes"/>
      <point x="2153" y="835"/>
      <point x="2228" y="743"/>
      <point x="2226" y="636" type="curve"/>
      <point x="2224" y="624"/>
      <point x="2223" y="611"/>
      <point x="2212" y="611" type="curve" smooth="yes"/>
    </contour>
    <contour>
      <point x="778" y="174" type="curve" smooth="yes"/>
      <point x="681" y="174"/>
      <point x="638" y="210"/>
      <point x="647" y="271" type="curve" smooth="yes"/>
      <point x="661" y="369"/>
      <point x="852" y="414"/>
      <point x="1144" y="454" type="curve" smooth="yes"/>
      <point x="1149" y="455"/>
      <point x="1167" y="456"/>
      <point x="1170" y="456" type="curve" smooth="yes"/>
      <point x="1194" y="456"/>
      <point x="1192" y="438"/>
      <point x="1190" y="424" type="curve" smooth="yes"/>
      <point x="1171" y="289"/>
      <point x="982" y="174"/>
    </contour>
    <contour>
      <point x="656" y="-41" type="curve" smooth="yes"/>
      <point x="947" y="-41"/>
      <point x="1156" y="39"/>
      <point x="1298" y="176" type="curve"/>
      <point x="1305" y="169"/>
      <point x="1312" y="162"/>
      <point x="1319" y="156" type="curve"/>
      <point x="1460" y="8"/>
      <point x="1708" y="-41"/>
      <point x="1922" y="-41" type="curve" smooth="yes"/>
      <point x="2042" y="-41"/>
      <point x="2331" y="0"/>
      <point x="2473" y="49" type="curve" smooth="yes"/>
      <point x="2502" y="59"/>
      <point x="2524" y="88"/>
      <point x="2528" y="117" type="curve" smooth="yes"/>
      <point x="2529" y="124"/>
      <point x="2528" y="130"/>
      <point x="2527" y="137" type="curve" smooth="yes"/>
      <point x="2521" y="173"/>
      <point x="2520" y="197"/>
      <point x="2513" y="233" type="curve"/>
      <point x="2509" y="263"/>
      <point x="2488" y="281"/>
      <point x="2460" y="281" type="curve" smooth="yes"/>
      <point x="2452" y="281"/>
      <point x="2444" y="280"/>
      <point x="2436" y="277" type="curve" smooth="yes"/>
      <point x="2337" y="245"/>
      <point x="2187" y="209"/>
      <point x="2055" y="209" type="curve" smooth="yes"/>
      <point x="1876" y="209"/>
      <point x="1665" y="270"/>
      <point x="1687" y="426" type="curve" smooth="yes"/>
      <point x="1689" y="441"/>
      <point x="1698" y="454"/>
      <point x="1711" y="454" type="curve" smooth="yes"/>
      <point x="2594" y="454" type="line" smooth="yes"/>
      <point x="2638" y="454"/>
      <point x="2647" y="489"/>
      <point x="2653" y="533" type="curve" smooth="yes"/>
      <point x="2700" y="918"/>
      <point x="2352" y="1053"/>
      <point x="2024" y="1053" type="curve" smooth="yes"/>
      <point x="1854" y="1053"/>
      <point x="1651" y="1002"/>
      <point x="1491" y="906" type="curve"/>
      <point x="1395" y="1003"/>
      <point x="1235" y="1053"/>
      <point x="1007" y="1053" type="curve" smooth="yes"/>
      <point x="582" y="1053"/>
      <point x="352" y="990"/>
      <point x="279" y="846" type="curve" smooth="yes"/>
      <point x="273" y="833"/>
      <point x="265" y="817"/>
      <point x="263" y="802" type="curve" smooth="yes"/>
      <point x="261" y="787"/>
      <point x="269" y="769"/>
      <point x="283" y="766" type="curve"/>
      <point x="622" y="731" type="line" smooth="yes"/>
      <point x="630" y="730"/>
      <point x="636" y="729"/>
      <point x="641" y="729" type="curve" smooth="yes"/>
      <point x="660" y="729"/>
      <point x="674" y="737"/>
      <point x="698" y="758" type="curve" smooth="yes"/>
      <point x="777" y="827"/>
      <point x="907" y="849"/>
      <point x="982" y="849" type="curve" smooth="yes"/>
      <point x="1179" y="849"/>
      <point x="1229" y="772"/>
      <point x="1213" y="661" type="curve" smooth="yes"/>
      <point x="1213" y="658"/>
      <point x="1210" y="644"/>
      <point x="1209" y="639" type="curve" smooth="yes"/>
      <point x="1203" y="596"/>
      <point x="218" y="650"/>
      <point x="160" y="238" type="curve" smooth="yes"/>
      <point x="135" y="62"/>
      <point x="332" y="-41"/>
    </contour>
    <contour>
      <point x="1349" y="1006" type="move" name="top"/>
    </contour>
  </outline>
</glyph>
<glyph name="hbar" format="1">
  <advance width="1815"/>
  <unicode hex="0127"/>
  <outline>
    <contour>
      <point x="211" y="0" type="curve" smooth="yes"/>
      <point x="565" y="0" type="line" smooth="yes"/>
      <point x="603" y="0"/>
      <point x="637" y="33"/>
      <point x="643" y="76" type="curve" smooth="yes"/>
      <point x="705" y="513" type="line" smooth="yes"/>
      <point x="724" y="646"/>
      <point x="851" y="781"/>
      <point x="1028" y="781" type="curve" smooth="yes"/>
      <point x="1195" y="781"/>
      <point x="1271" y="658"/>
      <point x="1251" y="513" type="curve" smooth="yes"/>
      <point x="1190" y="76" type="line" smooth="yes"/>
      <point x="1184" y="33"/>
      <point x="1207" y="0"/>
      <point x="1246" y="0" type="curve" smooth="yes"/>
      <point x="1618" y="0" type="line" smooth="yes"/>
      <point x="1657" y="0"/>
      <point x="1690" y="33"/>
      <point x="1696" y="76" type="curve" smooth="yes"/>
      <point x="1758" y="518" type="line" smooth="yes"/>
      <point x="1807" y="868"/>
      <point x="1547" y="1053"/>
      <point x="1234" y="1053" type="curve" smooth="yes"/>
      <point x="1078" y="1053"/>
      <point x="917" y="1006"/>
      <point x="785" y="909" type="curve" smooth="yes"/>
      <point x="773" y="901"/>
      <point x="760" y="908"/>
      <point x="762" y="923" type="curve" smooth="yes"/>
      <point x="791" y="1128" type="line"/>
      <point x="1062" y="1128" type="line" smooth="yes"/>
      <point x="1100" y="1128"/>
      <point x="1118" y="1153"/>
      <point x="1124" y="1196" type="curve" smooth="yes"/>
      <point x="1130" y="1242" type="line" smooth="yes"/>
      <point x="1136" y="1285"/>
      <point x="1126" y="1311"/>
      <point x="1088" y="1311" type="curve" smooth="yes"/>
      <point x="817" y="1311" type="line"/>
      <point x="824" y="1362" type="line" smooth="yes"/>
      <point x="830" y="1405"/>
      <point x="805" y="1438"/>
      <point x="767" y="1438" type="curve" smooth="yes"/>
      <point x="413" y="1438" type="line" smooth="yes"/>
      <point x="375" y="1438"/>
      <point x="341" y="1405"/>
      <point x="335" y="1362" type="curve" smooth="yes"/>
      <point x="327" y="1311" type="line"/>
      <point x="237" y="1311" type="line" smooth="yes"/>
      <point x="199" y="1311"/>
      <point x="181" y="1285"/>
      <point x="175" y="1242" type="curve" smooth="yes"/>
      <point x="169" y="1196" type="line" smooth="yes"/>
      <point x="163" y="1153"/>
      <point x="174" y="1128"/>
      <point x="212" y="1128" type="curve" smooth="yes"/>
      <point x="302" y="1128" type="line"/>
      <point x="154" y="76" type="line" smooth="yes"/>
      <point x="148" y="33"/>
      <point x="173" y="0"/>
    </contour>
  </outline>
</glyph>
<glyph name="eng" format="1">
  <advance width="1827"/>
  <unicode hex="014B"/>
  <outline>
    <contour>
      <point x="837" y="-429" type="curve" smooth="yes"/>
      <point x="895" y="-438"/>
      <point x="969" y="-446"/>
      <point x="1044" y="-446" type="curve" smooth="yes"/>
      <point x="1075" y="-446"/>
      <point x="1105" y="-444"/>
      <point x="1135" y="-441" type="curve" smooth="yes"/>
      <point x="1403" y="-419"/>
      <point x="1651" y="-305"/>
      <point x="1695" y="11" type="curve"/>
      <point x="1701" y="50"/>
      <point x="1725" y="211"/>
      <point x="1768" y="518" type="curve" smooth="yes"/>
      <point x="1819" y="881"/>
      <point x="1582" y="1053"/>
      <point x="1194" y="1053" type="curve" smooth="yes"/>
      <point x="981" y="1053"/>
      <point x="757" y="973"/>
      <point x="617" y="812" type="curve" smooth="yes"/>
      <point x="611" y="805"/>
      <point x="604" y="801"/>
      <point x="597" y="801" type="curve" smooth="yes"/>
      <point x="590" y="801"/>
      <point x="583" y="806"/>
      <point x="580" y="814" type="curve" smooth="yes"/>
      <point x="528" y="942" type="line" smooth="yes"/>
      <point x="512" y="983"/>
      <point x="477" y="1006"/>
      <point x="435" y="1006" type="curve" smooth="yes"/>
      <point x="347" y="1006" type="line" smooth="yes"/>
      <point x="308" y="1006"/>
      <point x="276" y="972"/>
      <point x="270" y="929" type="curve" smooth="yes"/>
      <point x="150" y="76" type="line" smooth="yes"/>
      <point x="144" y="33"/>
      <point x="169" y="0"/>
      <point x="208" y="0" type="curve" smooth="yes"/>
      <point x="566" y="0" type="line" smooth="yes"/>
      <point x="605" y="0"/>
      <point x="638" y="33"/>
      <point x="644" y="76" type="curve" smooth="yes"/>
      <point x="705" y="513" type="line" smooth="yes"/>
      <point x="724" y="646"/>
      <point x="860" y="781"/>
      <point x="1037" y="781" type="curve" smooth="yes"/>
      <point x="1204" y="781"/>
      <point x="1292" y="658"/>
      <point x="1272" y="513" type="curve" smooth="yes"/>
      <point x="1201" y="14" type="line" smooth="yes"/>
      <point x="1184" y="-110"/>
      <point x="1087" y="-146"/>
      <point x="981" y="-146" type="curve" smooth="yes"/>
      <point x="950" y="-146"/>
      <point x="903" y="-143"/>
      <point x="876" y="-140" type="curve" smooth="yes"/>
      <point x="873" y="-140"/>
      <point x="872" y="-139"/>
      <point x="869" y="-139" type="curve" smooth="yes"/>
      <point x="836" y="-139"/>
      <point x="806" y="-168"/>
      <point x="801" y="-206" type="curve" smooth="yes"/>
      <point x="782" y="-344" type="line" smooth="yes"/>
      <point x="776" y="-388"/>
      <point x="799" y="-424"/>
    </contour>
  </outline>
</glyph>
<glyph name="oe" format="1">
  <advance width="2915"/>
  <unicode hex="0153"/>
  <outline>
    <contour>
      <point x="934" y="215" type="curve" smooth="yes"/>
      <point x="753" y="215"/>
      <point x="657" y="308"/>
      <point x="685" y="507" type="curve" smooth="yes"/>
      <point x="709" y="681"/>
      <point x="832" y="798"/>
      <point x="1016" y="798" type="curve" smooth="yes"/>
      <point x="1199" y="798"/>
      <point x="1289" y="681"/>
      <point x="1265" y="507" type="curve" smooth="yes"/>
      <point x="1237" y="308"/>
      <point x="1114" y="215"/>
    </contour>
    <contour>
      <point x="1740" y="615" type="line" smooth="yes"/>
      <point x="1729" y="615"/>
      <point x="1732" y="631"/>
      <point x="1734" y="644" type="curve"/>
      <point x="1758" y="753"/>
      <point x="1883" y="835"/>
      <point x="2019" y="835" type="curve" smooth="yes"/>
      <point x="2169" y="835"/>
      <point x="2244" y="747"/>
      <point x="2242" y="639" type="curve"/>
      <point x="2240" y="628"/>
      <point x="2240" y="615"/>
      <point x="2229" y="615" type="curve" smooth="yes"/>
    </contour>
    <contour>
      <point x="2596" y="449" type="line" smooth="yes"/>
      <point x="2650" y="449"/>
      <point x="2662" y="483"/>
      <point x="2669" y="533" type="curve"/>
      <point x="2716" y="918"/>
      <point x="2368" y="1053"/>
      <point x="2040" y="1053" type="curve" smooth="yes"/>
      <point x="1881" y="1053"/>
      <point x="1703" y="1025"/>
      <point x="1559" y="933" type="curve"/>
      <point x="1421" y="1033"/>
      <point x="1216" y="1053"/>
      <point x="1054" y="1053" type="curve" smooth="yes"/>
      <point x="743" y="1053"/>
      <point x="267" y="992"/>
      <point x="199" y="507" type="curve" smooth="yes"/>
      <point x="130" y="16"/>
      <point x="567" y="-41"/>
      <point x="900" y="-41" type="curve" smooth="yes"/>
      <point x="1076" y="-41"/>
      <point x="1287" y="-23"/>
      <point x="1450" y="80" type="curve"/>
      <point x="1580" y="-16"/>
      <point x="1771" y="-41"/>
      <point x="1937" y="-41" type="curve" smooth="yes"/>
      <point x="2063" y="-41"/>
      <point x="2348" y="1"/>
      <point x="2490" y="50" type="curve" smooth="yes"/>
      <point x="2524" y="61"/>
      <point x="2537" y="86"/>
      <point x="2541" y="114" type="curve" smooth="yes"/>
      <point x="2546" y="153"/>
      <point x="2534" y="199"/>
      <point x="2529" y="232" type="curve" smooth="yes"/>
      <point x="2524" y="262"/>
      <point x="2504" y="279"/>
      <point x="2477" y="279" type="curve" smooth="yes"/>
      <point x="2469" y="279"/>
      <point x="2462" y="278"/>
      <point x="2453" y="275" type="curve" smooth="yes"/>
      <point x="2354" y="243"/>
      <point x="2213" y="210"/>
      <point x="2070" y="210" type="curve" smooth="yes"/>
      <point x="1891" y="210"/>
      <point x="1679" y="262"/>
      <point x="1701" y="419" type="curve" smooth="yes"/>
      <point x="1703" y="434"/>
      <point x="1714" y="449"/>
      <point x="1727" y="449" type="curve" smooth="yes"/>
    </contour>
    <contour>
      <point x="1458" y="1006" type="move" name="top"/>
    </contour>
  </outline>
</glyph>
<glyph name="Tbar" format="1">
  <advance width="1970"/>
  <unicode hex="0166"/>
  <outline>
    <contour>
      <point x="751" y="0" type="curve" smooth="yes"/>
      <point x="1217" y="0" type="line" smooth="yes"/>
      <point x="1257" y="0"/>
      <point x="1292" y="33"/>
      <point x="1298" y="76" type="curve" smooth="yes"/>
      <point x="1355" y="483" type="line"/>
      <point x="1674" y="483" type="line" smooth="yes"/>
      <point x="1714" y="483"/>
      <point x="1747" y="516"/>
      <point x="1753" y="559" type="curve" smooth="yes"/>
      <point x="1771" y="684" type="line" smooth="yes"/>
      <point x="1777" y="727"/>
      <point x="1753" y="760"/>
      <point x="1713" y="760" type="curve" smooth="yes"/>
      <point x="1394" y="760" type="line"/>
      <point x="1437" y="1069" type="line" smooth="yes"/>
      <point x="1440" y="1089"/>
      <point x="1457" y="1104"/>
      <point x="1476" y="1104" type="curve" smooth="yes"/>
      <point x="1956" y="1104" type="line" smooth="yes"/>
      <point x="1996" y="1104"/>
      <point x="2032" y="1138"/>
      <point x="2038" y="1181" type="curve" smooth="yes"/>
      <point x="2063" y="1361" type="line" smooth="yes"/>
      <point x="2069" y="1404"/>
      <point x="2043" y="1438"/>
      <point x="2003" y="1438" type="curve" smooth="yes"/>
      <point x="366" y="1438" type="line" smooth="yes"/>
      <point x="326" y="1438"/>
      <point x="291" y="1404"/>
      <point x="285" y="1361" type="curve" smooth="yes"/>
      <point x="260" y="1181" type="line" smooth="yes"/>
      <point x="254" y="1138"/>
      <point x="279" y="1104"/>
      <point x="319" y="1104" type="curve" smooth="yes"/>
      <point x="803" y="1104" type="line" smooth="yes"/>
      <point x="822" y="1104"/>
      <point x="834" y="1089"/>
      <point x="831" y="1069" type="curve" smooth="yes"/>
      <point x="787" y="760" type="line"/>
      <point x="475" y="760" type="line" smooth="yes"/>
      <point x="435" y="760"/>
      <point x="401" y="727"/>
      <point x="395" y="684" type="curve" smooth="yes"/>
      <point x="378" y="559" type="line" smooth="yes"/>
      <point x="372" y="516"/>
      <point x="396" y="483"/>
      <point x="436" y="483" type="curve" smooth="yes"/>
      <point x="748" y="483" type="line"/>
      <point x="691" y="76" type="line" smooth="yes"/>
      <point x="685" y="33"/>
      <point x="711" y="0"/>
    </contour>
  </outline>
</glyph>
<glyph name="breve" format="1">
  <advance width="1258"/>
  <unicode hex="02D8"/>
  <outline>
    <contour>
      <point x="786" y="1192" type="curve" smooth="yes"/>
      <point x="939" y="1192"/>
      <point x="1139" y="1223"/>
      <point x="1181" y="1505" type="curve"/>
      <point x="949" y="1505" type="line"/>
      <point x="932" y="1399"/>
      <point x="882" y="1351"/>
      <point x="808" y="1351" type="curve" smooth="yes"/>
      <point x="733" y="1351"/>
      <point x="696" y="1400"/>
      <point x="709" y="1505" type="curve"/>
      <point x="476" y="1505" type="line"/>
      <point x="439" y="1223"/>
      <point x="632" y="1192"/>
    </contour>
    <contour>
      <point x="826.192" y="1006" type="move" name="_top"/>
    </contour>
  </outline>
</glyph>
<glyph name="ring" format="1">
  <advance width="1573"/>
  <unicode hex="02DA"/>
  <outline>
    <contour>
      <point x="1019" y="1638" type="curve" smooth="yes"/>
      <point x="1131" y="1638"/>
      <point x="1292" y="1709"/>
      <point x="1319" y="1900" type="curve" smooth="yes"/>
      <point x="1347" y="2096"/>
      <point x="1216" y="2162"/>
      <point x="1092" y="2162" type="curve" smooth="yes"/>
      <point x="966" y="2162"/>
      <point x="817" y="2096"/>
      <point x="789" y="1900" type="curve" smooth="yes"/>
      <point x="762" y="1708"/>
      <point x="904" y="1638"/>
    </contour>
    <contour>
      <point x="1034" y="1753" type="curve" smooth="yes"/>
      <point x="956" y="1753"/>
      <point x="898" y="1802"/>
      <point x="914" y="1900" type="curve"/>
      <point x="927" y="2005"/>
      <point x="1002" y="2046"/>
      <point x="1075" y="2046" type="curve" smooth="yes"/>
      <point x="1146" y="2046"/>
      <point x="1209" y="2005"/>
      <point x="1194" y="1900" type="curve" smooth="yes"/>
      <point x="1180" y="1801"/>
      <point x="1108" y="1753"/>
    </contour>
    <contour>
      <point x="786.5" y="1006" type="move" name="_top"/>
    </contour>
  </outline>
</glyph>
<glyph name="ogonek" format="1">
  <advance width="657"/>
  <unicode hex="02DB"/>
  <outline>
    <contour>
      <point x="328" y="-371" type="curve" smooth="yes"/>
      <point x="390" y="-371" type="line" smooth="yes"/>
      <point x="402" y="-371"/>
      <point x="406" y="-364"/>
      <point x="407" y="-354" type="curve" smooth="yes"/>
      <point x="417" y="-283" type="line" smooth="yes"/>
      <point x="419" y="-272"/>
      <point x="403" y="-273"/>
      <point x="403" y="-273" type="curve"/>
      <point x="386" y="-273" type="line" smooth="yes"/>
      <point x="303" y="-273"/>
      <point x="302" y="-196"/>
      <point x="313" y="-120" type="curve" smooth="yes"/>
      <point x="326" y="-31"/>
      <point x="354" y="0"/>
      <point x="398" y="0" type="curve"/>
      <point x="418" y="96" type="line"/>
      <point x="284" y="96"/>
      <point x="169" y="27"/>
      <point x="144" y="-153" type="curve" smooth="yes"/>
      <point x="130" y="-254"/>
      <point x="181" y="-371"/>
    </contour>
    <contour>
      <point x="418" y="10" type="move" name="_ogonek"/>
    </contour>
  </outline>
</glyph>
<glyph name="tilde" format="1">
  <advance width="1359"/>
  <unicode hex="02DC"/>
  <outline>
    <contour>
      <point x="558" y="869" type="curve" smooth="yes"/>
      <point x="740" y="869"/>
      <point x="897" y="984"/>
      <point x="1069" y="984" type="curve" smooth="yes"/>
      <point x="1142" y="984"/>
      <point x="1220" y="951"/>
      <point x="1297" y="902" type="curve" smooth="yes"/>
      <point x="1307" y="895"/>
      <point x="1317" y="891"/>
      <point x="1327" y="891" type="curve" smooth="yes"/>
      <point x="1355" y="891"/>
      <point x="1372" y="918"/>
      <point x="1384" y="945" type="curve" smooth="yes"/>
      <point x="1390" y="958"/>
      <point x="1441" y="1045"/>
      <point x="1444" y="1068" type="curve" smooth="yes"/>
      <point x="1447" y="1092"/>
      <point x="1434" y="1106"/>
      <point x="1412" y="1119" type="curve" smooth="yes"/>
      <point x="1294" y="1192"/>
      <point x="1188" y="1226"/>
      <point x="1086" y="1226" type="curve" smooth="yes"/>
      <point x="893" y="1226"/>
      <point x="748" y="1109"/>
      <point x="591" y="1109" type="curve" smooth="yes"/>
      <point x="519" y="1109"/>
      <point x="447" y="1142"/>
      <point x="364" y="1203" type="curve" smooth="yes"/>
      <point x="353" y="1210"/>
      <point x="343" y="1216"/>
      <point x="331" y="1216" type="curve" smooth="yes"/>
      <point x="312" y="1216"/>
      <point x="298" y="1204"/>
      <point x="283" y="1180" type="curve"/>
      <point x="217" y="1080" type="line" smooth="yes"/>
      <point x="210" y="1071"/>
      <point x="207" y="1063"/>
      <point x="206" y="1055" type="curve" smooth="yes"/>
      <point x="203" y="1035"/>
      <point x="215" y="1016"/>
      <point x="235" y="1001" type="curve"/>
      <point x="344" y="912"/>
      <point x="445" y="869"/>
    </contour>
    <contour>
      <point x="824.985" y="1006" type="move" name="_top"/>
    </contour>
  </outline>
</glyph>
<glyph name="hungarumlaut" format="1">
  <advance width="1411"/>
  <unicode hex="02DD"/>
  <outline>
    <contour>
      <point x="1003" y="1170" type="curve" smooth="yes"/>
      <point x="1093" y="1170" type="line" smooth="yes"/>
      <point x="1128" y="1170"/>
      <point x="1138" y="1191"/>
      <point x="1150" y="1209" type="curve"/>
      <point x="1403" y="1553" type="line" smooth="yes"/>
      <point x="1411" y="1565"/>
      <point x="1417" y="1579"/>
      <point x="1419" y="1590" type="curve" smooth="yes"/>
      <point x="1421" y="1606"/>
      <point x="1416" y="1618"/>
      <point x="1397" y="1618" type="curve" smooth="yes"/>
      <point x="1156" y="1618" type="line" smooth="yes"/>
      <point x="1115" y="1618"/>
      <point x="1095" y="1606"/>
      <point x="1082" y="1563" type="curve" smooth="yes"/>
      <point x="977" y="1237" type="line" smooth="yes"/>
      <point x="972" y="1223"/>
      <point x="970" y="1211"/>
      <point x="969" y="1202" type="curve" smooth="yes"/>
      <point x="965" y="1175"/>
      <point x="976" y="1170"/>
    </contour>
    <contour>
      <point x="543" y="1170" type="curve" smooth="yes"/>
      <point x="633" y="1170" type="line" smooth="yes"/>
      <point x="668" y="1170"/>
      <point x="678" y="1191"/>
      <point x="691" y="1209" type="curve" smooth="yes"/>
      <point x="943" y="1553" type="line" smooth="yes"/>
      <point x="951" y="1565"/>
      <point x="957" y="1579"/>
      <point x="959" y="1590" type="curve" smooth="yes"/>
      <point x="961" y="1606"/>
      <point x="956" y="1618"/>
      <point x="937" y="1618" type="curve" smooth="yes"/>
      <point x="695" y="1618" type="line" smooth="yes"/>
      <point x="654" y="1618"/>
      <point x="634" y="1606"/>
      <point x="621" y="1563" type="curve" smooth="yes"/>
      <point x="517" y="1237" type="line" smooth="yes"/>
      <point x="512" y="1223"/>
      <point x="509" y="1211"/>
      <point x="508" y="1202" type="curve" smooth="yes"/>
      <point x="504" y="1175"/>
      <point x="516" y="1170"/>
    </contour>
    <contour>
      <point x="963.329" y="1006" type="move" name="_top"/>
    </contour>
  </outline>
</glyph>
<glyph name="mu" format="1">
  <advance width="1838"/>
  <unicode hex="03BC"/>
  <outline>
    <contour>
      <point x="167" y="-299" type="curve" smooth="yes"/>
      <point x="480" y="-299" type="line" smooth="yes"/>
      <point x="519" y="-299"/>
      <point x="551" y="-267"/>
      <point x="557" y="-224" type="curve" smooth="yes"/>
      <point x="587" y="-12" type="line"/>
      <point x="644" y="-33"/>
      <point x="714" y="-42"/>
      <point x="784" y="-42" type="curve" smooth="yes"/>
      <point x="997" y="-42"/>
      <point x="1222" y="38"/>
      <point x="1361" y="198" type="curve" smooth="yes"/>
      <point x="1367" y="205"/>
      <point x="1375" y="210"/>
      <point x="1382" y="210" type="curve" smooth="yes"/>
      <point x="1389" y="210"/>
      <point x="1396" y="205"/>
      <point x="1399" y="197" type="curve" smooth="yes"/>
      <point x="1452" y="64" type="line" smooth="yes"/>
      <point x="1467" y="24"/>
      <point x="1503" y="0"/>
      <point x="1545" y="0" type="curve" smooth="yes"/>
      <point x="1632" y="0" type="line" smooth="yes"/>
      <point x="1671" y="0"/>
      <point x="1704" y="34"/>
      <point x="1710" y="77" type="curve" smooth="yes"/>
      <point x="1831" y="941" type="line" smooth="yes"/>
      <point x="1837" y="984"/>
      <point x="1812" y="1016"/>
      <point x="1773" y="1016" type="curve" smooth="yes"/>
      <point x="1414" y="1016" type="line" smooth="yes"/>
      <point x="1375" y="1016"/>
      <point x="1342" y="984"/>
      <point x="1336" y="941" type="curve" smooth="yes"/>
      <point x="1274" y="499" type="line" smooth="yes"/>
      <point x="1255" y="366"/>
      <point x="1127" y="231"/>
      <point x="951" y="231" type="curve" smooth="yes"/>
      <point x="783" y="231"/>
      <point x="707" y="354"/>
      <point x="727" y="499" type="curve" smooth="yes"/>
      <point x="789" y="941" type="line" smooth="yes"/>
      <point x="795" y="984"/>
      <point x="770" y="1016"/>
      <point x="731" y="1016" type="curve" smooth="yes"/>
      <point x="350" y="1016" type="line" smooth="yes"/>
      <point x="311" y="1016"/>
      <point x="278" y="984"/>
      <point x="272" y="941" type="curve" smooth="yes"/>
      <point x="109" y="-224" type="line" smooth="yes"/>
      <point x="103" y="-267"/>
      <point x="128" y="-299"/>
    </contour>
  </outline>
</glyph>
<glyph name="endash" format="1">
  <advance width="947"/>
  <unicode hex="2013"/>
  <outline>
    <contour>
      <point x="229" y="422" type="curve" smooth="yes"/>
      <point x="844" y="422" type="line" smooth="yes"/>
      <point x="877" y="422"/>
      <point x="910" y="453"/>
      <point x="915" y="492" type="curve" smooth="yes"/>
      <point x="941" y="680" type="line" smooth="yes"/>
      <point x="946" y="718"/>
      <point x="923" y="748"/>
      <point x="890" y="748" type="curve" smooth="yes"/>
      <point x="275" y="748" type="line" smooth="yes"/>
      <point x="242" y="748"/>
      <point x="209" y="717"/>
      <point x="204" y="678" type="curve" smooth="yes"/>
      <point x="178" y="493" type="line" smooth="yes"/>
      <point x="173" y="454"/>
      <point x="196" y="422"/>
    </contour>
  </outline>
</glyph>
<glyph name="quoteleft" format="1">
  <advance width="619"/>
  <unicode hex="2018"/>
  <outline>
    <contour>
      <point x="300" y="801" type="curve" smooth="yes"/>
      <point x="543" y="801" type="line" smooth="yes"/>
      <point x="583" y="801"/>
      <point x="604" y="833"/>
      <point x="610" y="876" type="curve" smooth="yes"/>
      <point x="638" y="1079" type="line" smooth="yes"/>
      <point x="643" y="1117"/>
      <point x="627" y="1146"/>
      <point x="592" y="1146" type="curve" smooth="yes"/>
      <point x="519" y="1146" type="line" smooth="yes"/>
      <point x="505" y="1146"/>
      <point x="505" y="1157"/>
      <point x="507" y="1173" type="curve" smooth="yes"/>
      <point x="510" y="1197"/>
      <point x="536" y="1274"/>
      <point x="606" y="1317" type="curve" smooth="yes"/>
      <point x="650" y="1344"/>
      <point x="674" y="1338"/>
      <point x="682" y="1392" type="curve" smooth="yes"/>
      <point x="688" y="1436" type="line" smooth="yes"/>
      <point x="692" y="1467"/>
      <point x="667" y="1482"/>
      <point x="639" y="1482" type="curve" smooth="yes"/>
      <point x="634" y="1482"/>
      <point x="630" y="1482"/>
      <point x="625" y="1481" type="curve" smooth="yes"/>
      <point x="493" y="1458"/>
      <point x="315" y="1347"/>
      <point x="282" y="1110" type="curve" smooth="yes"/>
      <point x="250" y="878" type="line" smooth="yes"/>
      <point x="244" y="835"/>
      <point x="260" y="801"/>
    </contour>
  </outline>
</glyph>
<glyph name="quoteright" format="1">
  <advance width="606"/>
  <unicode hex="2019"/>
  <outline>
    <contour>
      <point x="312" y="803" type="curve" smooth="yes"/>
      <point x="444" y="826"/>
      <point x="621" y="938"/>
      <point x="654" y="1175" type="curve" smooth="yes"/>
      <point x="687" y="1407" type="line" smooth="yes"/>
      <point x="693" y="1450"/>
      <point x="677" y="1484"/>
      <point x="637" y="1484" type="curve" smooth="yes"/>
      <point x="394" y="1484" type="line" smooth="yes"/>
      <point x="354" y="1484"/>
      <point x="333" y="1452"/>
      <point x="327" y="1409" type="curve" smooth="yes"/>
      <point x="299" y="1206" type="line" smooth="yes"/>
      <point x="294" y="1168"/>
      <point x="310" y="1139"/>
      <point x="345" y="1139" type="curve" smooth="yes"/>
      <point x="418" y="1139" type="line" smooth="yes"/>
      <point x="432" y="1139"/>
      <point x="432" y="1128"/>
      <point x="430" y="1112" type="curve" smooth="yes"/>
      <point x="427" y="1088"/>
      <point x="400" y="1011"/>
      <point x="330" y="968" type="curve" smooth="yes"/>
      <point x="286" y="941"/>
      <point x="263" y="947"/>
      <point x="255" y="893" type="curve" smooth="yes"/>
      <point x="248" y="848" type="line" smooth="yes"/>
      <point x="244" y="817"/>
      <point x="270" y="802"/>
      <point x="298" y="802" type="curve" smooth="yes"/>
      <point x="303" y="802"/>
      <point x="307" y="802"/>
    </contour>
  </outline>
</glyph>
<glyph name="perthousand" format="1">
  <advance width="3291"/>
  <unicode hex="2030"/>
  <outline>
    <contour>
      <point x="2805" y="-40" type="curve" smooth="yes"/>
      <point x="3081" y="-40"/>
      <point x="3256" y="194"/>
      <point x="3289" y="431" type="curve" smooth="yes"/>
      <point x="3322" y="667"/>
      <point x="3217" y="897"/>
      <point x="2937" y="897" type="curve" smooth="yes"/>
      <point x="2657" y="897"/>
      <point x="2487" y="667"/>
      <point x="2454" y="431" type="curve" smooth="yes"/>
      <point x="2421" y="194"/>
      <point x="2529" y="-40"/>
    </contour>
    <contour>
      <point x="2830" y="134" type="curve" smooth="yes"/>
      <point x="2717" y="134"/>
      <point x="2674" y="241"/>
      <point x="2700" y="425" type="curve" smooth="yes"/>
      <point x="2726" y="613"/>
      <point x="2803" y="723"/>
      <point x="2913" y="723" type="curve" smooth="yes"/>
      <point x="3025" y="723"/>
      <point x="3067" y="613"/>
      <point x="3041" y="425" type="curve" smooth="yes"/>
      <point x="3015" y="241"/>
      <point x="2943" y="134"/>
    </contour>
    <contour>
      <point x="1833" y="-40" type="curve" smooth="yes"/>
      <point x="2109" y="-40"/>
      <point x="2284" y="194"/>
      <point x="2317" y="431" type="curve" smooth="yes"/>
      <point x="2350" y="667"/>
      <point x="2245" y="897"/>
      <point x="1965" y="897" type="curve" smooth="yes"/>
      <point x="1685" y="897"/>
      <point x="1515" y="667"/>
      <point x="1482" y="431" type="curve" smooth="yes"/>
      <point x="1449" y="194"/>
      <point x="1557" y="-40"/>
    </contour>
    <contour>
      <point x="1858" y="134" type="curve" smooth="yes"/>
      <point x="1745" y="134"/>
      <point x="1703" y="241"/>
      <point x="1729" y="425" type="curve" smooth="yes"/>
      <point x="1755" y="613"/>
      <point x="1831" y="723"/>
      <point x="1941" y="723" type="curve" smooth="yes"/>
      <point x="2053" y="723"/>
      <point x="2095" y="613"/>
      <point x="2069" y="425" type="curve" smooth="yes"/>
      <point x="2043" y="241"/>
      <point x="1971" y="134"/>
    </contour>
    <contour>
      <point x="560" y="560" type="curve" smooth="yes"/>
      <point x="836" y="560"/>
      <point x="1010" y="793"/>
      <point x="1043" y="1031" type="curve" smooth="yes"/>
      <point x="1076" y="1267"/>
      <point x="972" y="1497"/>
      <point x="692" y="1497" type="curve" smooth="yes"/>
      <point x="412" y="1497"/>
      <point x="242" y="1267"/>
      <point x="209" y="1031" type="curve" smooth="yes"/>
      <point x="176" y="793"/>
      <point x="284" y="560"/>
    </contour>
    <contour>
      <point x="584" y="734" type="curve" smooth="yes"/>
      <point x="471" y="734"/>
      <point x="429" y="840"/>
      <point x="455" y="1024" type="curve" smooth="yes"/>
      <point x="481" y="1212"/>
      <point x="557" y="1323"/>
      <point x="667" y="1323" type="curve" smooth="yes"/>
      <point x="778" y="1323"/>
      <point x="821" y="1212"/>
      <point x="795" y="1024" type="curve" smooth="yes"/>
      <point x="769" y="840"/>
      <point x="697" y="734"/>
    </contour>
    <contour>
      <point x="740" y="-82" type="curve" smooth="yes"/>
      <point x="876" y="-82" type="line" smooth="yes"/>
      <point x="919" y="-82"/>
      <point x="962" y="-54"/>
      <point x="986" y="-12" type="curve" smooth="yes"/>
      <point x="1802" y="1466" type="line" smooth="yes"/>
      <point x="1806" y="1473"/>
      <point x="1808" y="1480"/>
      <point x="1809" y="1487" type="curve" smooth="yes"/>
      <point x="1813" y="1513"/>
      <point x="1796" y="1536"/>
      <point x="1769" y="1536" type="curve" smooth="yes"/>
      <point x="1635" y="1536" type="line" smooth="yes"/>
      <point x="1592" y="1536"/>
      <point x="1547" y="1508"/>
      <point x="1524" y="1466" type="curve" smooth="yes"/>
      <point x="707" y="-12" type="line" smooth="yes"/>
      <point x="703" y="-19"/>
      <point x="701" y="-26"/>
      <point x="700" y="-33" type="curve" smooth="yes"/>
      <point x="696" y="-59"/>
      <point x="713" y="-82"/>
    </contour>
  </outline>
</glyph>
<glyph name="guilsinglleft" format="1">
  <advance width="716"/>
  <unicode hex="2039"/>
  <outline>
    <contour>
      <point x="586" y="29" type="curve" smooth="yes"/>
      <point x="620" y="29"/>
      <point x="642" y="60"/>
      <point x="645" y="80" type="curve" smooth="yes"/>
      <point x="659" y="182" type="line" smooth="yes"/>
      <point x="668" y="246"/>
      <point x="665" y="272"/>
      <point x="624" y="323" type="curve"/>
      <point x="417" y="501" type="line"/>
      <point x="408" y="513"/>
      <point x="404" y="521"/>
      <point x="406" y="536" type="curve" smooth="yes"/>
      <point x="408" y="550"/>
      <point x="413" y="556"/>
      <point x="427" y="568" type="curve"/>
      <point x="683" y="746" type="line"/>
      <point x="740" y="798"/>
      <point x="749" y="825"/>
      <point x="758" y="888" type="curve" smooth="yes"/>
      <point x="772" y="987" type="line" smooth="yes"/>
      <point x="775" y="1006"/>
      <point x="762" y="1036"/>
      <point x="728" y="1036" type="curve" smooth="yes"/>
      <point x="713" y="1036"/>
      <point x="694" y="1030"/>
      <point x="671" y="1016" type="curve" smooth="yes"/>
      <point x="280" y="768" type="line"/>
      <point x="208" y="721"/>
      <point x="176" y="671"/>
      <point x="167" y="606" type="curve" smooth="yes"/>
      <point x="146" y="453" type="line" smooth="yes"/>
      <point x="137" y="389"/>
      <point x="157" y="350"/>
      <point x="215" y="303" type="curve" smooth="yes"/>
      <point x="535" y="49" type="line"/>
      <point x="554" y="35"/>
      <point x="572" y="29"/>
    </contour>
  </outline>
</glyph>
<glyph name="fraction" format="1">
  <advance width="1303"/>
  <unicode hex="2044"/>
  <outline>
    <contour>
      <point x="73" y="-204" type="curve" smooth="yes"/>
      <point x="85" y="-205"/>
      <point x="336" y="-206"/>
      <point x="338" y="-206" type="curve" smooth="yes"/>
      <point x="367" y="-206"/>
      <point x="386" y="-188"/>
      <point x="397" y="-171" type="curve" smooth="yes"/>
      <point x="1452" y="1594" type="line" smooth="yes"/>
      <point x="1455" y="1599"/>
      <point x="1460" y="1610"/>
      <point x="1461" y="1620" type="curve" smooth="yes"/>
      <point x="1463" y="1634"/>
      <point x="1459" y="1647"/>
      <point x="1437" y="1647" type="curve" smooth="yes"/>
      <point x="1191" y="1647" type="line" smooth="yes"/>
      <point x="1163" y="1647"/>
      <point x="1139" y="1638"/>
      <point x="1119" y="1605" type="curve" smooth="yes"/>
      <point x="55" y="-171" type="line" smooth="yes"/>
      <point x="53" y="-174"/>
      <point x="52" y="-177"/>
      <point x="52" y="-181" type="curve" smooth="yes"/>
      <point x="50" y="-192"/>
      <point x="56" y="-203"/>
    </contour>
  </outline>
</glyph>
<glyph name="minus" format="1">
  <advance width="1200"/>
  <unicode hex="2212"/>
  <outline>
    <contour>
      <point x="259" y="504" type="curve" smooth="yes"/>
      <point x="1082" y="504" type="line" smooth="yes"/>
      <point x="1122" y="504"/>
      <point x="1157" y="536"/>
      <point x="1163" y="579" type="curve" smooth="yes"/>
      <point x="1182" y="715" type="line" smooth="yes"/>
      <point x="1188" y="758"/>
      <point x="1162" y="791"/>
      <point x="1122" y="791" type="curve" smooth="yes"/>
      <point x="299" y="791" type="line" smooth="yes"/>
      <point x="259" y="791"/>
      <point x="225" y="758"/>
      <point x="219" y="715" type="curve" smooth="yes"/>
      <point x="200" y="579" type="line" smooth="yes"/>
      <point x="194" y="536"/>
      <point x="219" y="504"/>
    </contour>
  </outline>
</glyph>
<glyph name="greaterequal" format="1">
  <advance width="1164"/>
  <unicode hex="2265"/>
  <outline>
    <contour>
      <point x="171" y="-2" type="curve" smooth="yes"/>
      <point x="179" y="-2"/>
      <point x="189" y="1"/>
      <point x="200" y="7" type="curve" smooth="yes"/>
      <point x="1037" y="399" type="line"/>
      <point x="1077" y="422"/>
      <point x="1108" y="461"/>
      <point x="1114" y="504" type="curve" smooth="yes"/>
      <point x="1151" y="767" type="line" smooth="yes"/>
      <point x="1157" y="811"/>
      <point x="1141" y="858"/>
      <point x="1104" y="877" type="curve" smooth="yes"/>
      <point x="375" y="1260" type="line" smooth="yes"/>
      <point x="364" y="1267"/>
      <point x="355" y="1272"/>
      <point x="347" y="1272" type="curve" smooth="yes"/>
      <point x="328" y="1272"/>
      <point x="312" y="1256"/>
      <point x="308" y="1230" type="curve" smooth="yes"/>
      <point x="276" y="998" type="line" smooth="yes"/>
      <point x="270" y="954"/>
      <point x="288" y="918"/>
      <point x="325" y="896" type="curve"/>
      <point x="855" y="665" type="line" smooth="yes"/>
      <point x="861" y="662"/>
      <point x="863" y="656"/>
      <point x="862" y="651" type="curve" smooth="yes"/>
      <point x="861" y="645"/>
      <point x="858" y="639"/>
      <point x="851" y="636" type="curve" smooth="yes"/>
      <point x="253" y="386" type="line"/>
      <point x="211" y="365"/>
      <point x="182" y="334"/>
      <point x="176" y="290" type="curve" smooth="yes"/>
      <point x="141" y="42" type="line" smooth="yes"/>
      <point x="137" y="15"/>
      <point x="151" y="-2"/>
    </contour>
  </outline>
</glyph>
<glyph name="uniFB02" format="1">
  <advance width="2049"/>
  <unicode hex="FB02"/>
  <outline>
    <contour>
      <point x="400" y="0" type="curve" smooth="yes"/>
      <point x="774" y="0" type="line" smooth="yes"/>
      <point x="812" y="0"/>
      <point x="847" y="34"/>
      <point x="853" y="77" type="curve" smooth="yes"/>
      <point x="950" y="762" type="line" smooth="yes"/>
      <point x="953" y="782"/>
      <point x="957" y="799"/>
      <point x="975" y="799" type="curve" smooth="yes"/>
      <point x="1330" y="799" type="line" smooth="yes"/>
      <point x="1369" y="799"/>
      <point x="1392" y="808"/>
      <point x="1398" y="851" type="curve" smooth="yes"/>
      <point x="1412" y="951" type="line" smooth="yes"/>
      <point x="1418" y="994"/>
      <point x="1398" y="1006"/>
      <point x="1359" y="1006" type="curve" smooth="yes"/>
      <point x="990" y="1006" type="line" smooth="yes"/>
      <point x="986" y="1006"/>
      <point x="985" y="1010"/>
      <point x="985" y="1013" type="curve" smooth="yes"/>
      <point x="992" y="1062" type="line" smooth="yes"/>
      <point x="1005" y="1158"/>
      <point x="1122" y="1199"/>
      <point x="1312" y="1199" type="curve" smooth="yes"/>
      <point x="1388" y="1199"/>
      <point x="1527" y="1187"/>
      <point x="1576" y="1183" type="curve"/>
      <point x="1420" y="76" type="line" smooth="yes"/>
      <point x="1414" y="33"/>
      <point x="1439" y="0"/>
      <point x="1478" y="0" type="curve" smooth="yes"/>
      <point x="1836" y="0" type="line" smooth="yes"/>
      <point x="1875" y="0"/>
      <point x="1908" y="33"/>
      <point x="1914" y="76" type="curve" smooth="yes"/>
      <point x="2088" y="1313" type="line" smooth="yes"/>
      <point x="2094" y="1356"/>
      <point x="2069" y="1381"/>
      <point x="2031" y="1389" type="curve" smooth="yes"/>
      <point x="1759" y="1442"/>
      <point x="1508" y="1475"/>
      <point x="1193" y="1475" type="curve" smooth="yes"/>
      <point x="871" y="1475"/>
      <point x="545" y="1367"/>
      <point x="479" y="1044" type="curve" smooth="yes"/>
      <point x="475" y="1022"/>
      <point x="473" y="1006"/>
      <point x="453" y="1006" type="curve" smooth="yes"/>
      <point x="318" y="1006" type="line" smooth="yes"/>
      <point x="279" y="1006"/>
      <point x="255" y="988"/>
      <point x="249" y="945" type="curve" smooth="yes"/>
      <point x="236" y="851" type="line" smooth="yes"/>
      <point x="230" y="808"/>
      <point x="250" y="799"/>
      <point x="289" y="799" type="curve" smooth="yes"/>
      <point x="426" y="799" type="line" smooth="yes"/>
      <point x="444" y="799"/>
      <point x="442" y="782"/>
      <point x="439" y="762" type="curve" smooth="yes"/>
      <point x="342" y="77" type="line" smooth="yes"/>
      <point x="336" y="34"/>
      <point x="362" y="0"/>
    </contour>
  </outline>
</glyph>
<glyph name="uniFB04" format="1">
  <advance width="3152"/>
  <outline>
    <contour>
      <point x="411" y="0" type="curve" smooth="yes"/>
      <point x="801" y="0" type="line" smooth="yes"/>
      <point x="841" y="0"/>
      <point x="878" y="34"/>
      <point x="884" y="77" type="curve" smooth="yes"/>
      <point x="981" y="762" type="line" smooth="yes"/>
      <point x="984" y="782"/>
      <point x="987" y="799"/>
      <point x="1006" y="799" type="curve" smooth="yes"/>
      <point x="1507" y="799" type="line" smooth="yes"/>
      <point x="1526" y="799"/>
      <point x="1523" y="782"/>
      <point x="1520" y="762" type="curve" smooth="yes"/>
      <point x="1424" y="77" type="line" smooth="yes"/>
      <point x="1418" y="34"/>
      <point x="1445" y="0"/>
      <point x="1485" y="0" type="curve" smooth="yes"/>
      <point x="1875" y="0" type="line" smooth="yes"/>
      <point x="1915" y="0"/>
      <point x="1952" y="34"/>
      <point x="1958" y="77" type="curve" smooth="yes"/>
      <point x="2054" y="762" type="line" smooth="yes"/>
      <point x="2057" y="782"/>
      <point x="2061" y="799"/>
      <point x="2080" y="799" type="curve" smooth="yes"/>
      <point x="2410" y="799" type="line" smooth="yes"/>
      <point x="2450" y="799"/>
      <point x="2473" y="808"/>
      <point x="2479" y="851" type="curve" smooth="yes"/>
      <point x="2493" y="951" type="line" smooth="yes"/>
      <point x="2499" y="994"/>
      <point x="2479" y="1006"/>
      <point x="2439" y="1006" type="curve" smooth="yes"/>
      <point x="2095" y="1006" type="line" smooth="yes"/>
      <point x="2091" y="1006"/>
      <point x="2089" y="1010"/>
      <point x="2089" y="1013" type="curve" smooth="yes"/>
      <point x="2096" y="1062" type="line" smooth="yes"/>
      <point x="2109" y="1158"/>
      <point x="2215" y="1199"/>
      <point x="2389" y="1199" type="curve" smooth="yes"/>
      <point x="2468" y="1199"/>
      <point x="2612" y="1187"/>
      <point x="2663" y="1183" type="curve"/>
      <point x="2507" y="76" type="line" smooth="yes"/>
      <point x="2501" y="33"/>
      <point x="2526" y="0"/>
      <point x="2566" y="0" type="curve" smooth="yes"/>
      <point x="2936" y="0" type="line" smooth="yes"/>
      <point x="2976" y="0"/>
      <point x="3012" y="33"/>
      <point x="3018" y="76" type="curve" smooth="yes"/>
      <point x="3191" y="1313" type="line" smooth="yes"/>
      <point x="3197" y="1356"/>
      <point x="3171" y="1381"/>
      <point x="3131" y="1389" type="curve" smooth="yes"/>
      <point x="2862" y="1442"/>
      <point x="2615" y="1475"/>
      <point x="2302" y="1475" type="curve" smooth="yes"/>
      <point x="1967" y="1475"/>
      <point x="1627" y="1367"/>
      <point x="1561" y="1044" type="curve" smooth="yes"/>
      <point x="1557" y="1022"/>
      <point x="1554" y="1006"/>
      <point x="1534" y="1006" type="curve" smooth="yes"/>
      <point x="1021" y="1006" type="line" smooth="yes"/>
      <point x="1017" y="1006"/>
      <point x="1016" y="1010"/>
      <point x="1016" y="1013" type="curve" smooth="yes"/>
      <point x="1023" y="1062" type="line" smooth="yes"/>
      <point x="1036" y="1158"/>
      <point x="1131" y="1199"/>
      <point x="1284" y="1199" type="curve" smooth="yes"/>
      <point x="1341" y="1199"/>
      <point x="1455" y="1181"/>
      <point x="1460" y="1181" type="curve" smooth="yes"/>
      <point x="1492" y="1181"/>
      <point x="1501" y="1193"/>
      <point x="1506" y="1230" type="curve" smooth="yes"/>
      <point x="1526" y="1377" type="line" smooth="yes"/>
      <point x="1530" y="1405"/>
      <point x="1513" y="1431"/>
      <point x="1488" y="1438" type="curve"/>
      <point x="1396" y="1456"/>
      <point x="1277" y="1475"/>
      <point x="1160" y="1475" type="curve" smooth="yes"/>
      <point x="858" y="1475"/>
      <point x="551" y="1367"/>
      <point x="487" y="1044" type="curve" smooth="yes"/>
      <point x="483" y="1022"/>
      <point x="480" y="1006"/>
      <point x="460" y="1006" type="curve" smooth="yes"/>
      <point x="320" y="1006" type="line" smooth="yes"/>
      <point x="280" y="1006"/>
      <point x="256" y="988"/>
      <point x="250" y="945" type="curve" smooth="yes"/>
      <point x="237" y="851" type="line" smooth="yes"/>
      <point x="231" y="808"/>
      <point x="251" y="799"/>
      <point x="291" y="799" type="curve" smooth="yes"/>
      <point x="432" y="799" type="line" smooth="yes"/>
      <point x="451" y="799"/>
      <point x="449" y="782"/>
      <point x="446" y="762" type="curve" smooth="yes"/>
      <point x="350" y="77" type="line" smooth="yes"/>
      <point x="344" y="34"/>
      <point x="371" y="0"/>
    </contour>
  </outline>
</glyph>
